<svg width="263" height="204" viewBox="0 0 263 204" fill="none" xmlns="http://www.w3.org/2000/svg">
<g filter="url(#filter0_d_2681_27813)">
<path fill-rule="evenodd" clip-rule="evenodd" d="M8.53921 2C4.9277 2 2 4.9277 2 8.53921V45.4608C2 49.0723 4.92771 52 8.53921 52H123.509L129.137 60.0172C130.439 61.8722 133.187 61.8722 134.489 60.0172L140.116 52H254.461C258.072 52 261 49.0723 261 45.4608V8.53921C261 4.9277 258.072 2 254.461 2H8.53921Z" fill="#FFF6E5"/>
</g>
<path d="M46.979 19.251V33.7041H36.5298V19.251H46.979ZM39.1909 31.5312H44.269V21.375H39.1909V31.5312ZM50.3237 39.1729V17.1025H53.0337V25.5742H56.4272V27.8691H53.0337V39.1729H50.3237ZM67.3892 17.542C72.272 17.542 75.3359 19.1411 75.3481 21.8389C75.3359 24.4756 72.272 26.0503 67.3892 26.0381C62.5552 26.0503 59.4302 24.4756 59.4302 21.8389C59.4302 19.1411 62.5552 17.542 67.3892 17.542ZM57.355 29.7246V27.5273H77.4722V29.7246H57.355ZM59.7231 38.9043V31.4824H75.0308V38.9043H59.7231ZM62.2622 21.8389C62.2378 23.1694 64.1665 23.9263 67.3892 23.9385C70.6118 23.9263 72.5405 23.1694 72.5405 21.8389C72.5405 20.4351 70.6118 19.666 67.3892 19.666C64.1665 19.666 62.2378 20.4351 62.2622 21.8389ZM62.4087 36.707H72.394V33.6309H62.4087V36.707ZM99.1274 34.4365V36.6338H78.9614V34.4365H84.186V29.8955H80.6948V27.6982H83.7954V21.1553H80.6216V18.9824H97.3696V21.1553H94.147V27.6982H97.2964V29.8955H93.8052V34.4365H99.1274ZM86.5054 27.6982H91.4614V21.1553H86.5054V27.6982ZM86.896 34.4365H91.0952V29.8955H86.896V34.4365ZM119.049 17.127V33.9238H116.339V29.5781H113.068V27.4053H116.339V24.9395H113.068V22.7422H116.339V17.127H119.049ZM100.617 21.7412V19.5684H105.548V17.1025H108.258V19.5684H112.946V21.7412H100.617ZM101.764 26.9414C101.752 24.4146 103.888 22.6445 106.867 22.6445C109.87 22.6445 112.03 24.4146 112.042 26.9414C112.03 29.4805 109.87 31.2261 106.867 31.2383C103.888 31.2261 101.752 29.4805 101.764 26.9414ZM104.303 26.9414C104.291 28.3208 105.353 29.1387 106.867 29.1387C108.393 29.1387 109.467 28.3208 109.479 26.9414C109.467 25.5986 108.393 24.7808 106.867 24.7686C105.353 24.7808 104.291 25.5986 104.303 26.9414ZM104.499 38.7334V32.4834H107.257V36.5361H119.538V38.7334H104.499ZM148.224 30.3594V32.5811H139.484V39.1973H136.798V32.5811H128.107V30.3594H148.224ZM129.206 26.8682C133.612 26.3311 136.505 24.0728 136.774 21.8633H129.962V19.7148H136.798V17.127H139.484V19.7148H146.344V21.8633H139.533C139.789 24.0483 142.67 26.3311 147.077 26.8682L146.076 29.0166C142.426 28.5527 139.594 26.9536 138.166 24.8296C136.725 26.978 133.856 28.5527 130.182 29.0166L129.206 26.8682ZM166.999 17.1025V25.7207H170.27V27.9912H166.999V39.124H164.289V17.1025H166.999ZM149.591 33.0938C154.962 30.4082 157.868 26.6729 158.405 21.6436H150.788V19.3975H161.164C161.151 25.8794 158.466 31.5801 151.129 35.1934L149.591 33.0938ZM183.917 18.0547C187.14 18.0547 189.435 19.8491 189.459 22.498C189.435 24.6953 187.787 26.3433 185.333 26.7949V28.5771C187.177 28.4673 189.02 28.3086 190.729 28.0645L190.949 30.042C186.359 30.8599 181.232 30.9575 177.497 30.9453L177.204 28.7725C178.791 28.7725 180.646 28.7603 182.599 28.6992V26.8071C180.072 26.3799 178.388 24.7319 178.4 22.498C178.388 19.8491 180.683 18.0547 183.917 18.0547ZM180.231 38.709V32.4834H182.941V36.5117H195.514V38.709H180.231ZM180.939 22.498C180.915 23.9507 182.16 24.854 183.917 24.8662C185.688 24.854 186.884 23.9507 186.896 22.498C186.884 21.0088 185.688 20.1299 183.917 20.1299C182.16 20.1299 180.915 21.0088 180.939 22.498ZM192.023 33.9727V17.127H194.733V24.2559H197.711V26.502H194.733V33.9727H192.023ZM219.025 34.3633V36.6094H198.859V34.3633H204.206V30.7256H201.251V23.5234H213.947V20.8135H201.203V18.6162H216.632V25.6963H203.961V28.5283H217.145V30.7256H213.922V34.3633H219.025ZM206.842 34.3633H211.261V30.7256H206.842V34.3633ZM225.006 19.3242L224.738 31.7998H221.979L221.686 19.3242H225.006ZM221.466 35.291C221.454 34.2656 222.321 33.4233 223.371 33.4111C224.384 33.4233 225.25 34.2656 225.25 35.291C225.25 36.3408 224.384 37.1953 223.371 37.1953C222.321 37.1953 221.454 36.3408 221.466 35.291Z" fill="black"/>
<path d="M145.624 198.604C160.593 194.422 175.218 183.821 185.656 168.233C205.178 139.077 203.317 102.065 179.707 86.0237C165.659 76.4781 147.529 76.9492 131.19 84.9738C115.015 77.2398 97.1633 76.9001 83.2928 86.3246L84.6979 88.3924L83.2928 86.3246C59.6835 102.366 57.8217 139.378 77.3441 168.534C94.3901 193.991 122.88 206.377 145.624 198.604Z" fill="#F84C37" stroke="white" stroke-width="5"/>
<ellipse cx="112.001" cy="125.605" rx="5.19955" ry="9.09921" fill="white"/>
<ellipse cx="110.051" cy="127.555" rx="3.24972" ry="5.84949" fill="black"/>
<ellipse cx="136.699" cy="125.605" rx="5.19955" ry="9.09921" fill="white"/>
<ellipse cx="123.7" cy="139.904" rx="5.2" ry="3.9" fill="black"/>
<ellipse cx="134.749" cy="127.555" rx="3.24972" ry="5.84949" fill="black"/>
<path d="M117.252 151.602C119.801 161.351 132.8 160.051 135.692 151.838" stroke="black" stroke-width="2.59978" stroke-linecap="round"/>
<defs>
<filter id="filter0_d_2681_27813" x="0" y="0" width="263" height="63.4082" filterUnits="userSpaceOnUse" color-interpolation-filters="sRGB">
<feFlood flood-opacity="0" result="BackgroundImageFix"/>
<feColorMatrix in="SourceAlpha" type="matrix" values="0 0 0 0 0 0 0 0 0 0 0 0 0 0 0 0 0 0 127 0" result="hardAlpha"/>
<feOffset/>
<feGaussianBlur stdDeviation="1"/>
<feComposite in2="hardAlpha" operator="out"/>
<feColorMatrix type="matrix" values="0 0 0 0 0 0 0 0 0 0 0 0 0 0 0 0 0 0 0.3 0"/>
<feBlend mode="normal" in2="BackgroundImageFix" result="effect1_dropShadow_2681_27813"/>
<feBlend mode="normal" in="SourceGraphic" in2="effect1_dropShadow_2681_27813" result="shape"/>
</filter>
</defs>
</svg>
