<svg width="50" height="50" viewBox="0 0 50 50" fill="none" xmlns="http://www.w3.org/2000/svg">
<mask id="mask0_3063_21715" style="mask-type:alpha" maskUnits="userSpaceOnUse" x="0" y="0" width="50" height="50">
<circle cx="25" cy="25" r="25" fill="#D9D9D9"/>
</mask>
<g mask="url(#mask0_3063_21715)">
<path d="M50 0H0V50H50V0Z" fill="black"/>
<path d="M25.2533 17.3463C26.1988 17.3463 27.384 16.6875 28.0898 15.809C28.729 15.0129 29.195 13.9011 29.195 12.7893C29.195 12.6383 29.1817 12.4874 29.1551 12.3638C28.1031 12.405 26.838 13.0913 26.0789 14.0109C25.4797 14.711 24.9337 15.809 24.9337 16.9346C24.9337 17.0993 24.9603 17.264 24.9736 17.3189C25.0402 17.3326 25.1468 17.3463 25.2533 17.3463ZM21.9241 33.9547C23.2158 33.9547 23.7884 33.0626 25.3998 33.0626C27.0377 33.0626 27.3973 33.9273 28.8355 33.9273C30.2471 33.9273 31.1926 32.5821 32.0848 31.2645C33.0835 29.7546 33.4964 28.2722 33.523 28.2036C33.4298 28.1761 30.7265 27.0369 30.7265 23.8387C30.7265 21.0661 32.8572 19.817 32.977 19.7209C31.5654 17.6346 29.4214 17.5797 28.8355 17.5797C27.2508 17.5797 25.9591 18.568 25.1468 18.568C24.2678 18.568 23.1093 17.6346 21.7377 17.6346C19.1276 17.6346 16.4775 19.8582 16.4775 24.0583C16.4775 26.6663 17.463 29.4252 18.6748 31.2095C19.7135 32.7194 20.6191 33.9547 21.9241 33.9547Z" fill="white"/>
</g>
</svg>
