<svg width="171" height="63" viewBox="0 0 171 63" fill="none" xmlns="http://www.w3.org/2000/svg">
<g filter="url(#filter0_d_2796_46898)">
<mask id="path-1-inside-1_2796_46898" fill="white">
<path fill-rule="evenodd" clip-rule="evenodd" d="M14.5392 54.8398C10.9277 54.8398 8 51.9121 8 48.3006V24.3791C8 20.7675 10.9277 17.8398 14.5392 17.8398H128.558L135.383 9.23792C136.692 7.58809 139.196 7.58809 140.505 9.23792L147.33 17.8398H157.461C161.072 17.8398 164 20.7676 164 24.3791V48.3006C164 51.9121 161.072 54.8398 157.461 54.8398H14.5392Z"/>
</mask>
<path fill-rule="evenodd" clip-rule="evenodd" d="M14.5392 54.8398C10.9277 54.8398 8 51.9121 8 48.3006V24.3791C8 20.7675 10.9277 17.8398 14.5392 17.8398H128.558L135.383 9.23792C136.692 7.58809 139.196 7.58809 140.505 9.23792L147.33 17.8398H157.461C161.072 17.8398 164 20.7676 164 24.3791V48.3006C164 51.9121 161.072 54.8398 157.461 54.8398H14.5392Z" fill="white"/>
<path d="M128.558 17.8398L129.341 18.4614L129.041 18.8398H128.558V17.8398ZM135.383 9.23792L136.166 9.85947L135.383 9.23792ZM140.505 9.23792L141.289 8.61636V8.61636L140.505 9.23792ZM147.33 17.8398V18.8398H146.847L146.547 18.4614L147.33 17.8398ZM9 48.3006C9 51.3599 11.48 53.8398 14.5392 53.8398V55.8398C10.3754 55.8398 7 52.4644 7 48.3006H9ZM9 24.3791V48.3006H7V24.3791H9ZM14.5392 18.8398C11.48 18.8398 9 21.3198 9 24.3791H7C7 20.2153 10.3754 16.8398 14.5392 16.8398V18.8398ZM128.558 18.8398H14.5392V16.8398H128.558V18.8398ZM127.774 17.2183L134.599 8.61636L136.166 9.85947L129.341 18.4614L127.774 17.2183ZM134.599 8.61636C136.309 6.46193 139.579 6.46194 141.289 8.61636L139.722 9.85947C138.813 8.71423 137.075 8.71424 136.166 9.85947L134.599 8.61636ZM141.289 8.61636L148.114 17.2183L146.547 18.4614L139.722 9.85947L141.289 8.61636ZM157.461 18.8398H147.33V16.8398H157.461V18.8398ZM163 24.3791C163 21.3198 160.52 18.8398 157.461 18.8398V16.8398C161.625 16.8398 165 20.2153 165 24.3791H163ZM163 48.3006V24.3791H165V48.3006H163ZM157.461 53.8398C160.52 53.8398 163 51.3599 163 48.3006H165C165 52.4644 161.625 55.8398 157.461 55.8398V53.8398ZM14.5392 53.8398H157.461V55.8398H14.5392V53.8398Z" fill="#F66F70" mask="url(#path-1-inside-1_2796_46898)"/>
</g>
<path d="M38.4023 28.7031V40.4609H29.8672V28.7031H38.4023ZM32.3281 38.4883H35.9219V30.6562H32.3281V38.4883ZM40.8242 44.7969V27.0234H43.3242V33.7227H45.9414V35.793H43.3242V44.7969H40.8242ZM54.6914 27.3555C58.6465 27.3457 61.1465 28.6641 61.1562 30.832C61.1465 32.9902 58.6465 34.2793 54.6914 34.2695C50.7559 34.2793 48.207 32.9902 48.207 30.832C48.207 28.6641 50.7559 27.3457 54.6914 27.3555ZM46.5859 37.2969V35.3047H62.7969V37.2969H46.5859ZM48.4609 44.6016V38.5469H60.8633V44.6016H48.4609ZM50.8047 30.832C50.7852 31.8281 52.2012 32.3359 54.6914 32.3359C57.1426 32.3359 58.5781 31.8281 58.5781 30.832C58.5781 29.8066 57.1426 29.2891 54.6914 29.2891C52.2012 29.2891 50.7852 29.8066 50.8047 30.832ZM50.9219 42.6094H58.4219V40.5195H50.9219V42.6094ZM80.1406 40.832V42.8242H63.8711V40.832H67.9141V37.4531H65.2188V35.4414H67.6016V30.4414H65.1406V28.4492H78.7734V30.4414H76.2734V35.4414H78.6953V37.4531H76.0195V40.832H80.1406ZM70.1016 35.4414H73.8125V30.4414H70.1016V35.4414ZM70.4141 40.832H73.5195V37.4531H70.4141V40.832ZM96.1367 27.043V40.5781H93.6562V37.2188H91.2539V35.2461H93.6562V33.4688H91.2539V31.457H93.6562V27.043H96.1367ZM81.1953 30.8711V28.8984H85.0234V27.0039H87.5039V28.8984H91.0781V30.8711H81.1953ZM82.0742 34.9922C82.0547 32.9414 83.8223 31.4961 86.2344 31.4961C88.6758 31.4961 90.4336 32.9414 90.4531 34.9922C90.4336 37.043 88.6758 38.4688 86.2344 38.4688C83.8223 38.4688 82.0547 37.043 82.0742 34.9922ZM84.3008 44.4844V39.4258H86.8203V42.4922H96.5078V44.4844H84.3008ZM84.3984 34.9922C84.3887 36.0176 85.1504 36.5742 86.2344 36.5742C87.3086 36.5742 88.0996 36.0176 88.1094 34.9922C88.0996 33.9961 87.3086 33.4395 86.2344 33.4297C85.1504 33.4395 84.3887 33.9961 84.3984 34.9922ZM117.543 34.9727V36.9453H112.387V40.7344H119.32V42.7656H103.051V40.7344H109.906V36.9453H104.965V28.2734H117.406V30.2656H107.465V34.9727H117.543ZM126.879 30.8516C126.889 32.6875 128.158 34.6016 131.059 35.3633L129.906 37.3359C127.885 36.7891 126.479 35.6172 125.668 34.1523C124.887 35.7637 123.471 37.0332 121.391 37.6289L120.199 35.6758C123.08 34.8945 124.398 32.8438 124.398 30.8516H120.824V28.8789H124.398V26.9648H126.918V28.8789H130.473V30.8516H126.879ZM122.465 40.6367V38.6445H134.438V44.8164H131.938V40.6367H122.465ZM131.938 37.9219V27.0234H134.438V31.3984H136.84V33.4883H134.438V37.9219H131.938ZM141.664 28.8594L141.41 38.7617H138.91L138.656 28.8594H141.664ZM138.539 41.5352C138.52 40.6367 139.262 39.9043 140.18 39.9141C141.049 39.9043 141.801 40.6367 141.801 41.5352C141.801 42.4434 141.049 43.1758 140.18 43.1758C139.262 43.1758 138.52 42.4434 138.539 41.5352Z" fill="black"/>
<defs>
<filter id="filter0_d_2796_46898" x="0" y="0" width="172" height="62.8398" filterUnits="userSpaceOnUse" color-interpolation-filters="sRGB">
<feFlood flood-opacity="0" result="BackgroundImageFix"/>
<feColorMatrix in="SourceAlpha" type="matrix" values="0 0 0 0 0 0 0 0 0 0 0 0 0 0 0 0 0 0 127 0" result="hardAlpha"/>
<feOffset/>
<feGaussianBlur stdDeviation="4"/>
<feComposite in2="hardAlpha" operator="out"/>
<feColorMatrix type="matrix" values="0 0 0 0 1 0 0 0 0 1 0 0 0 0 1 0 0 0 0.17 0"/>
<feBlend mode="normal" in2="BackgroundImageFix" result="effect1_dropShadow_2796_46898"/>
<feBlend mode="normal" in="SourceGraphic" in2="effect1_dropShadow_2796_46898" result="shape"/>
</filter>
</defs>
</svg>
