<svg width="33" height="33" viewBox="0 0 33 33" fill="none" xmlns="http://www.w3.org/2000/svg">
<path d="M33 16.5C33 25.6127 25.6127 33 16.5 33C7.3873 33 0 25.6127 0 16.5C0 7.3873 7.3873 0 16.5 0C25.6127 0 33 7.3873 33 16.5Z" fill="#FFF6E5"/>
<path fill-rule="evenodd" clip-rule="evenodd" d="M24.1739 10.2976C24.8658 10.8907 24.9459 11.9323 24.3528 12.6242L17.1689 21.0055C15.8189 22.5804 13.3679 22.5341 12.0785 20.9094L8.60764 16.5362C8.04114 15.8224 8.16054 14.7845 8.87433 14.218C9.58812 13.6515 10.626 13.7709 11.1925 14.4847L14.0416 18.0745C14.364 18.4807 14.9767 18.4923 15.3142 18.0986L21.8473 10.4766C22.4403 9.78473 23.482 9.7046 24.1739 10.2976Z" fill="black"/>
</svg>
