<svg width="17" height="20" viewBox="0 0 17 20" fill="none" xmlns="http://www.w3.org/2000/svg">
<path fill-rule="evenodd" clip-rule="evenodd" d="M2.91992 5.00038C2.64378 5.00038 2.41992 5.22424 2.41992 5.50038V17.5001C2.41992 17.7762 2.64378 18.0001 2.91992 18.0001H11.0587C11.3349 18.0001 11.5587 17.7762 11.5587 17.5001L11.5587 5.50038C11.5587 5.22424 11.3349 5.00038 11.0587 5.00038L2.91992 5.00038ZM0.419922 18.0001C0.419922 19.1047 1.31535 20.0001 2.41992 20.0001H11.5587C12.6633 20.0001 13.5587 19.1047 13.5587 18.0001V5.00038C13.5587 3.89581 12.6633 3.00038 11.5587 3.00038H2.41992C1.31535 3.00038 0.419922 3.89581 0.419922 5.00038V18.0001Z" fill="black"/>
<path fill-rule="evenodd" clip-rule="evenodd" d="M1.44141 1.99998C1.44141 0.895421 2.33683 0 3.44139 0H14.5802C15.6848 0 16.5802 0.895431 16.5802 2V16.9997C16.5802 18.1043 15.672 18.9997 14.5674 18.9997C14.2913 18.9997 14.0642 18.7758 14.0642 18.4997V17.2577C14.0642 17.1152 14.1797 16.9997 14.3222 16.9997C14.4647 16.9997 14.5802 16.8842 14.5802 16.7417V2.5C14.5802 2.22386 14.3564 2 14.0802 2H3.69139C3.55333 2 3.44141 2.11192 3.44141 2.24999C3.44141 2.38805 3.32948 2.49997 3.19142 2.49997H1.9414C1.66526 2.49997 1.44141 2.27612 1.44141 1.99998Z" fill="black"/>
</svg>
