<svg width="154" height="94" viewBox="0 0 154 94" fill="none" xmlns="http://www.w3.org/2000/svg">
<g filter="url(#filter0_d_2681_27803)">
<path fill-rule="evenodd" clip-rule="evenodd" d="M14.5392 8C10.9277 8 8 10.9277 8 14.5392V69.8819C8 73.4934 10.9277 76.4211 14.5392 76.4211H68.9426L74.2742 84.0172C75.5761 85.8722 78.3246 85.8722 79.6265 84.0172L84.9581 76.4211H139.461C143.072 76.4211 146 73.4934 146 69.8819V14.5392C146 10.9277 143.072 8 139.461 8H14.5392Z" fill="#FFE9BE"/>
</g>
<path d="M44.7051 18.0234V35.8359H42.2441V26.3047H38.9434V31.6172H30.3691V19.3906H32.8496V23.707H36.502V19.3906H38.9434V24.293H42.2441V18.0234H44.7051ZM32.8496 29.625H36.502V25.6602H32.8496V29.625ZM63.2012 27.6328V29.5859H46.9512V27.6328H63.2012ZM48.9434 35.4844V30.4844H51.4043V33.4922H61.5605V35.4844H48.9434ZM48.9824 26.5195V18.6094H61.3066V20.5039H51.4824V21.6367H60.8965V23.4727H51.4824V24.6445H61.4629V26.5195H48.9824ZM72.3809 18.2773C76.4727 18.2773 78.8359 19.3516 78.8457 21.3047C78.8359 23.2871 76.4727 24.3516 72.3809 24.3516C68.2793 24.3516 65.8965 23.2871 65.8965 21.3047C65.8965 19.3516 68.2793 18.2773 72.3809 18.2773ZM64.2754 27.1641V25.1914H80.4863V27.1641H64.2754ZM66.1504 30.0156V28.1992H78.5137V32.7305H68.6113V33.8047H78.9824V35.6797H66.1699V30.9922H76.0527V30.0156H66.1504ZM68.5137 21.3047C68.5039 22.1738 69.7734 22.5156 72.3809 22.5156C75.0078 22.5156 76.2676 22.1738 76.2676 21.3047C76.2676 20.5137 75.0078 20.0938 72.3809 20.0938C69.7734 20.0938 68.5039 20.5137 68.5137 21.3047ZM100.545 21.6172V23.5898H88.1816V18.2383H90.6621V21.6172H100.545ZM86.1504 26.6367V24.6445H102.42V26.6367H95.4668V28.0234H100.467V32.6523H90.5449V33.7656H101.014V35.6797H88.0449V30.9141H97.9863V29.8984H88.0059V28.0234H93.0254V26.6367H86.1504ZM118.436 18.0234V35.8359H115.955V26.4609H113.084V24.4297H115.955V18.0234H118.436ZM104.041 21.5195V19.5078H112.088V26.168H106.561V29.6445C109.012 29.625 111.082 29.5371 113.377 29.1367L113.572 31.168C110.936 31.6074 108.523 31.7051 105.545 31.6953H104.08V24.1953H109.666V21.5195H104.041ZM51.6094 48.0234V54.8398H54.1289V56.8906H51.6094V65.7578H49.1094V48.0234H51.6094ZM37.3906 60.7773C41.5996 58.668 43.8652 55.8359 44.334 51.8711H38.4062V49.8398H46.8633C46.8438 55.1523 44.7734 59.752 38.7969 62.6914L37.3906 60.7773ZM69.6172 48.668V50.6406H64.7539C65.1348 51.9395 66.9805 53.1895 70.3984 53.5117L69.5 55.4648C66.1602 55.123 63.9043 53.8535 62.957 52.1152C62.0195 53.8535 59.8027 55.123 56.4727 55.4648L55.5938 53.5117C58.9629 53.1895 60.7891 51.9297 61.1797 50.6406H56.3555V48.668H69.6172ZM54.8711 58.668V56.6758H61.7266V54.3516H64.1875V56.6758H71.082V58.668H54.8711ZM56.668 61.9297V59.9375H69.1094V65.7969H66.6289V61.9297H56.668ZM92.9766 58.668V60.6992H86.082V65.8164H83.6211V60.6992H76.7656V58.668H92.9766ZM77.5859 55.7578C81.2773 55.3477 83.2793 53.6094 83.582 52.0273H78.2305V50.0742H83.6211V48.043H86.082V50.0742H91.4922V52.0273H86.1602C86.4336 53.5898 88.4355 55.3477 92.1172 55.7578L91.2188 57.7109C88.2012 57.3691 86.0234 56.1289 84.8711 54.5176C83.709 56.1484 81.5215 57.3691 78.4844 57.7109L77.5859 55.7578ZM108.074 48.0234V54.8398H110.594V56.8906H108.074V65.7578H105.574V48.0234H108.074ZM93.8555 60.7773C98.0645 58.668 100.33 55.8359 100.799 51.8711H94.8711V49.8398H103.328C103.309 55.1523 101.238 59.752 95.2617 62.6914L93.8555 60.7773ZM115.379 49.8594L115.125 59.7617H112.625L112.371 49.8594H115.379ZM112.254 62.5352C112.234 61.6367 112.977 60.9043 113.895 60.9141C114.764 60.9043 115.516 61.6367 115.516 62.5352C115.516 63.4434 114.764 64.1758 113.895 64.1758C112.977 64.1758 112.234 63.4434 112.254 62.5352Z" fill="black"/>
<defs>
<filter id="filter0_d_2681_27803" x="0" y="0" width="154" height="93.4082" filterUnits="userSpaceOnUse" color-interpolation-filters="sRGB">
<feFlood flood-opacity="0" result="BackgroundImageFix"/>
<feColorMatrix in="SourceAlpha" type="matrix" values="0 0 0 0 0 0 0 0 0 0 0 0 0 0 0 0 0 0 127 0" result="hardAlpha"/>
<feOffset/>
<feGaussianBlur stdDeviation="4"/>
<feComposite in2="hardAlpha" operator="out"/>
<feColorMatrix type="matrix" values="0 0 0 0 1 0 0 0 0 1 0 0 0 0 1 0 0 0 0.17 0"/>
<feBlend mode="normal" in2="BackgroundImageFix" result="effect1_dropShadow_2681_27803"/>
<feBlend mode="normal" in="SourceGraphic" in2="effect1_dropShadow_2681_27803" result="shape"/>
</filter>
</defs>
</svg>
