<svg width="50" height="50" viewBox="0 0 50 50" fill="none" xmlns="http://www.w3.org/2000/svg">
<g clip-path="url(#clip0_3063_21720)">
<path d="M50 25C50 11.1929 38.8071 0 25 0C11.1929 0 0 11.1929 0 25C0 38.8071 11.1929 50 25 50C38.8071 50 50 38.8071 50 25Z" fill="#F2F2F2"/>
<mask id="mask0_3063_21720" style="mask-type:luminance" maskUnits="userSpaceOnUse" x="13" y="13" width="24" height="24">
<path d="M36.364 13.6364H13.6367V36.3636H36.364V13.6364Z" fill="white"/>
</mask>
<g mask="url(#mask0_3063_21720)">
<path d="M35.9091 25.2583C35.9091 24.4525 35.8368 23.6777 35.7025 22.9338H25V27.3295H31.1157C30.8523 28.75 30.0517 29.9535 28.8482 30.7593V33.6105H32.5207C34.6694 31.6322 35.9091 28.719 35.9091 25.2583Z" fill="#4285F4"/>
<path d="M25.0007 36.3636C28.0689 36.3636 30.6412 35.346 32.5213 33.6105L28.8488 30.7593C27.8313 31.4411 26.5296 31.8439 25.0007 31.8439C22.0409 31.8439 19.5358 29.845 18.6422 27.1591H14.8457V30.1033C16.7156 33.8171 20.5585 36.3636 25.0007 36.3636Z" fill="#34A853"/>
<path d="M18.6418 27.1591C18.4146 26.4772 18.2855 25.7489 18.2855 25C18.2855 24.251 18.4146 23.5227 18.6418 22.8409V19.8967H14.8454C14.0758 21.4308 13.6367 23.1663 13.6367 25C13.6367 26.8336 14.0758 28.5692 14.8454 30.1033L18.6418 27.1591Z" fill="#FBBC04"/>
<path d="M25.0007 18.156C26.669 18.156 28.167 18.7293 29.3447 19.8553L32.604 16.596C30.636 14.7624 28.0637 13.6364 25.0007 13.6364C20.5585 13.6364 16.7156 16.1828 14.8457 19.8967L18.6422 22.8409C19.5358 20.155 22.0409 18.156 25.0007 18.156Z" fill="#E94235"/>
</g>
</g>
<defs>
<clipPath id="clip0_3063_21720">
<rect width="50" height="50" fill="white"/>
</clipPath>
</defs>
</svg>
