<svg width="50" height="50" viewBox="0 0 50 50" fill="none" xmlns="http://www.w3.org/2000/svg">
<g clip-path="url(#clip0_3063_21682)">
<path d="M25.0029 50.0057C38.8115 50.0057 50.0057 38.8115 50.0057 25.0029C50.0057 11.1942 38.8115 0 25.0029 0C11.1942 0 0 11.1942 0 25.0029C0 38.8115 11.1942 50.0057 25.0029 50.0057Z" fill="#F8E049"/>
<path d="M25.0025 11.2795C16.1548 11.2795 8.97852 16.9498 8.97852 23.9492C8.97852 28.5014 12.019 32.4946 16.5826 34.725C16.2461 35.9743 15.3676 39.2601 15.1907 39.9618C14.974 40.8346 15.5102 40.8231 15.8639 40.5893C16.1377 40.4067 20.2563 37.6058 22.0304 36.3965C22.9945 36.5391 23.9871 36.6132 25.0025 36.6132C33.8502 36.6132 41.0264 30.9429 41.0264 23.9435C41.0264 16.9441 33.8502 11.2738 25.0025 11.2738" fill="#371C1D"/>
<path d="M13.8217 21.6161H15.4703C15.4703 21.6161 15.4817 26.1455 15.4703 27.2008C15.4703 27.9709 17.1874 27.9823 17.1817 27.2122V21.6731C17.1817 21.6731 17.7407 21.6731 18.8303 21.6731C19.8571 21.6731 19.8571 20.0588 18.8303 20.0588C17.6723 20.0588 13.816 20.0245 13.816 20.0245C12.8462 20.0245 12.8519 21.6047 13.816 21.6047" fill="#F8E049"/>
<mask id="mask0_3063_21682" style="mask-type:luminance" maskUnits="userSpaceOnUse" x="13" y="20" width="7" height="8">
<path d="M13.8217 21.6161H15.4703C15.4703 21.6161 15.4817 26.1455 15.4703 27.2008C15.4703 27.9709 17.1874 27.9823 17.1817 27.2122V21.6731C17.1817 21.6731 17.7407 21.6731 18.8303 21.6731C19.8571 21.6731 19.8571 20.0588 18.8303 20.0588C17.6723 20.0588 13.816 20.0245 13.816 20.0245C12.8462 20.0245 12.8519 21.6047 13.816 21.6047" fill="white"/>
</mask>
<g mask="url(#mask0_3063_21682)">
<path d="M19.8624 20.0359H12.8516V27.9823H19.8624V20.0359Z" fill="#F8E049"/>
</g>
<path d="M21.7169 21.907L22.6353 24.7821H20.7243L21.7169 21.907ZM20.6844 20.5608C20.2794 21.4564 18.8133 25.6777 18.3284 26.7958C17.9748 27.6058 19.4922 28.2676 19.8458 27.4575L20.1767 26.3052H23.1944C23.1944 26.3052 23.0917 26.3509 23.491 27.4119C23.8162 28.2676 25.3849 27.6743 25.0598 26.8186C24.5977 25.5922 22.9947 21.1883 22.7038 20.5665C22.5669 20.2756 22.0877 20.0702 21.6199 20.0702C21.232 20.0702 20.8555 20.2128 20.6958 20.5665" fill="#F8E049"/>
<mask id="mask1_3063_21682" style="mask-type:luminance" maskUnits="userSpaceOnUse" x="18" y="20" width="8" height="8">
<path d="M21.7169 21.907L22.6353 24.7821H20.7243L21.7169 21.907ZM20.6844 20.5608C20.2794 21.4564 18.8133 25.6777 18.3284 26.7958C17.9748 27.6058 19.4922 28.2676 19.8458 27.4575L20.1767 26.3052H23.1944C23.1944 26.3052 23.0917 26.3509 23.491 27.4119C23.8162 28.2676 25.3849 27.6743 25.0598 26.8186C24.5977 25.5922 22.9947 21.1883 22.7038 20.5665C22.5669 20.2756 22.0877 20.0702 21.6199 20.0702C21.232 20.0702 20.8555 20.2128 20.6958 20.5665" fill="white"/>
</mask>
<g mask="url(#mask1_3063_21682)">
<path d="M25.3791 20.0645H17.9746V28.2619H25.3791V20.0645Z" fill="#F8E049"/>
</g>
<path d="M25.6353 20.8232C25.6353 22.255 25.641 26.8813 25.641 26.8813C25.641 26.8813 25.5098 27.7998 26.297 27.7998C27.0843 27.7998 28.8355 27.7884 29.6113 27.7884C30.3872 27.7884 30.3815 26.1398 29.6113 26.1398C28.8412 26.1398 27.4208 26.134 27.4208 26.134C27.4208 26.134 27.4265 21.8557 27.4208 20.8174C27.4208 20.3155 26.9759 20.0645 26.5309 20.0645C26.086 20.0645 25.6353 20.3155 25.6353 20.8232Z" fill="#F8E049"/>
<mask id="mask2_3063_21682" style="mask-type:luminance" maskUnits="userSpaceOnUse" x="25" y="20" width="6" height="8">
<path d="M25.6353 20.8232C25.6353 22.255 25.641 26.8813 25.641 26.8813C25.641 26.8813 25.5098 27.7998 26.297 27.7998C27.0843 27.7998 28.8355 27.7884 29.6113 27.7884C30.3872 27.7884 30.3815 26.1398 29.6113 26.1398C28.8412 26.1398 27.4208 26.134 27.4208 26.134C27.4208 26.134 27.4265 21.8557 27.4208 20.8174C27.4208 20.3155 26.9759 20.0645 26.5309 20.0645C26.086 20.0645 25.6353 20.3155 25.6353 20.8232Z" fill="white"/>
</mask>
<g mask="url(#mask2_3063_21682)">
<path d="M30.3814 20.0701H25.5098V27.8054H30.3814V20.0701Z" fill="#F8E049"/>
</g>
<path d="M30.5929 20.595C30.61 21.2225 30.5701 26.9099 30.5758 27.332C30.5758 27.9995 32.27 27.9938 32.27 27.332C32.27 26.5619 32.27 25.0959 32.27 25.0959L32.7663 24.6966L34.9397 27.6629C35.379 28.2448 36.7651 27.1951 36.3259 26.6133L34.0156 23.5728C34.0156 23.5728 35.5843 21.8785 36.2004 21.2624C36.5598 20.9031 35.4474 19.7793 35.0823 20.1387C34.7343 20.4866 32.2757 22.9453 32.2757 22.9453C32.2757 22.9453 32.2985 21.3993 32.2757 20.5494C32.2643 20.2242 31.8707 20.0702 31.4657 20.0702C31.0321 20.0702 30.5872 20.247 30.5929 20.595Z" fill="#F8E049"/>
<mask id="mask3_3063_21682" style="mask-type:luminance" maskUnits="userSpaceOnUse" x="30" y="20" width="7" height="8">
<path d="M30.5929 20.595C30.61 21.2225 30.5701 26.9099 30.5758 27.332C30.5758 27.9995 32.27 27.9938 32.27 27.332C32.27 26.5619 32.27 25.0959 32.27 25.0959L32.7663 24.6966L34.9397 27.6629C35.379 28.2448 36.7651 27.1951 36.3259 26.6133L34.0156 23.5728C34.0156 23.5728 35.5843 21.8785 36.2004 21.2624C36.5598 20.9031 35.4474 19.7793 35.0823 20.1387C34.7343 20.4866 32.2757 22.9453 32.2757 22.9453C32.2757 22.9453 32.2985 21.3993 32.2757 20.5494C32.2643 20.2242 31.8707 20.0702 31.4657 20.0702C31.0321 20.0702 30.5872 20.247 30.5929 20.595Z" fill="white"/>
</mask>
<g mask="url(#mask3_3063_21682)">
<path d="M36.7597 19.785H30.5703V28.2448H36.7597V19.785Z" fill="#F8E049"/>
</g>
</g>
<defs>
<clipPath id="clip0_3063_21682">
<rect width="50" height="50" fill="white"/>
</clipPath>
</defs>
</svg>
