<svg width="154" height="137" viewBox="0 0 154 137" fill="none" xmlns="http://www.w3.org/2000/svg">
<path d="M94.6813 54.8015C89.7544 62.0024 69.5729 81.0337 58.6768 89.3847C43.9141 100.699 32.3623 107.304 23.6198 110.607C-1.96232 123.02 22.1986 157.13 64.3617 118.283C76.2053 107.371 97.9975 80.6679 101.787 64.7501L94.6813 54.8015Z" fill="#FFA16B"/>
<path d="M92.2453 43.4317C60.9465 69.4398 34.6665 81.4033 16.0399 85.2375C-3.3574 94.9672 4.68106 117.763 23.6198 110.607C32.3623 107.304 43.9141 100.699 58.6768 89.3847C69.5729 81.0337 89.7544 62.0024 94.6813 54.8015L92.2453 43.4317Z" fill="#F1BDCF"/>
<path d="M88.9291 39.168C51.0368 50.5378 116.946 33.0384 26.876 56.2227C-10.0951 65.7391 -4.10657 89.3847 16.0399 85.2375C34.6665 81.4033 60.9465 69.4398 92.2453 43.4317L88.9291 39.168Z" fill="#D09FE4"/>
<path d="M93.614 17.1779C81.1604 17.4252 70.0483 23.4395 65.4553 33.6764C58.8514 48.3953 68.2258 66.2703 86.3936 73.6013C96.7554 77.7824 107.74 77.6307 116.491 73.9978C125.318 70.5532 133.343 63.0516 137.916 52.8573C145.936 34.9828 140.31 15.5989 125.349 9.56219C114.944 5.36368 102.765 8.72703 93.614 17.1779Z" fill="#F84C37"/>
</svg>
