<svg width="85" height="31" viewBox="0 0 85 31" fill="none" xmlns="http://www.w3.org/2000/svg">
<path d="M19.0818 2.76341C19.0818 1.47341 20.2518 0.933407 21.0918 0.933407C21.9318 0.933407 23.1018 1.47341 23.1018 2.76341V10.4734H25.5918C26.6718 10.4734 27.2718 11.1934 27.2718 12.2134C27.2718 13.2334 26.6718 13.9534 25.5918 13.9534H23.1018V28.9534C23.1018 30.2434 21.9318 30.7834 21.0918 30.7834C20.2518 30.7834 19.0818 30.2434 19.0818 28.9534V2.76341ZM0.901758 4.86341C0.901758 3.69341 1.86176 2.97341 3.15176 2.97341H12.9918C14.2818 2.97341 15.2418 3.69341 15.2418 4.86341V19.2634C15.2418 20.6734 14.8818 21.3034 13.8018 21.8134C12.6618 22.3534 10.6518 22.7134 8.07176 22.7134C5.49176 22.7134 3.48176 22.3534 2.40176 21.8434C1.26176 21.3034 0.901758 20.6734 0.901758 19.2634V4.86341ZM4.86176 18.6334C4.86176 18.7834 4.95176 18.9034 5.10176 18.9334C5.82176 19.1434 6.84176 19.2334 8.07176 19.2334C9.30176 19.2334 10.3218 19.1434 11.0418 18.9334C11.1918 18.9034 11.2818 18.7834 11.2818 18.6334V6.45341H4.86176V18.6334ZM47.6706 24.0034H36.3306V27.1534H47.6706V24.0034ZM28.5606 16.8634C28.5606 15.9934 29.1006 15.1534 30.1806 15.1534H53.8206C54.9006 15.1534 55.4406 15.9934 55.4406 16.8634C55.4406 17.7034 54.9006 18.5734 53.8206 18.5734H30.1806C29.1006 18.5734 28.5606 17.7034 28.5606 16.8634ZM32.2506 22.5334C32.2506 21.3634 33.2106 20.6434 34.5006 20.6434H49.5006C50.7906 20.6434 51.7506 21.3634 51.7506 22.5334V28.6234C51.7506 29.7934 50.7906 30.5134 49.5006 30.5134H34.5006C33.2106 30.5134 32.2506 29.7934 32.2506 28.6234V22.5334ZM32.8206 7.59341C32.8206 3.81341 36.4206 1.38341 42.0006 1.38341C47.5806 1.38341 51.1806 3.81341 51.1806 7.59341C51.1806 11.3734 47.5806 13.8034 42.0006 13.8034C36.4206 13.8034 32.8206 11.3734 32.8206 7.59341ZM36.7806 7.59341C36.7806 9.24341 38.6106 10.4434 42.0006 10.4434C45.3906 10.4434 47.2206 9.24341 47.2206 7.59341C47.2206 5.94341 45.3906 4.74341 42.0006 4.74341C38.6106 4.74341 36.7806 5.94341 36.7806 7.59341ZM79.2294 24.9934C79.2294 28.4434 75.7494 30.8434 70.7994 30.8434C65.8494 30.8434 62.3694 28.4434 62.3694 24.9934C62.3694 23.3434 63.1194 21.9634 64.4394 20.9134V17.4034H58.9794C57.8994 17.4034 57.3594 16.5334 57.3594 15.6934C57.3594 14.8234 57.8994 13.9834 58.9794 13.9834H82.6194C83.6994 13.9834 84.2394 14.8234 84.2394 15.6934C84.2394 16.5334 83.6994 17.4034 82.6194 17.4034H77.1594V20.9134C78.4794 21.9634 79.2294 23.3434 79.2294 24.9934ZM60.5094 11.1634C60.4194 10.1434 61.0494 9.45341 62.0994 9.18341C64.7094 8.49341 68.8194 6.90341 68.8194 4.14341V3.57341C68.8194 2.46341 69.6594 1.77341 70.8294 1.77341C72.0294 1.77341 72.8394 2.46341 72.8394 3.57341V4.14341C72.8394 6.90341 76.9494 8.49341 79.5594 9.18341C80.6094 9.45341 81.2394 10.1734 81.1494 11.1934C81.0294 12.3934 79.9794 12.9634 78.5694 12.6034C74.7894 11.6734 72.2094 10.1434 70.8294 8.34341C69.4494 10.1434 67.1994 11.6434 63.2394 12.6034C61.8294 12.9334 60.6294 12.3634 60.5094 11.1634ZM66.3894 24.9934C66.3894 26.5234 68.1294 27.4834 70.8294 27.4834C73.4694 27.4834 75.2094 26.5234 75.2094 24.9934C75.2094 23.4334 73.4394 22.4134 70.8294 22.4134C68.1594 22.4134 66.3894 23.4334 66.3894 24.9934ZM68.4594 19.2634C69.1794 19.1134 69.9894 19.0534 70.7994 19.0534C71.6094 19.0534 72.4194 19.1134 73.1394 19.2634V17.4034H68.4594V19.2634Z" fill="black"/>
</svg>
