<svg width="21" height="20" viewBox="0 0 21 20" fill="none" xmlns="http://www.w3.org/2000/svg">
<path fill-rule="evenodd" clip-rule="evenodd" d="M0.038208 1C0.038208 0.447715 0.485923 0 1.03821 0H19.0382C19.5905 0 20.0382 0.447715 20.0382 1C20.0382 1.55228 19.5905 2 19.0382 2H1.03821C0.485923 2 0.038208 1.55228 0.038208 1Z" fill="black"/>
<path fill-rule="evenodd" clip-rule="evenodd" d="M0.038208 10C0.038208 9.44772 0.485923 9 1.03821 9H19.0382C19.5905 9 20.0382 9.44772 20.0382 10C20.0382 10.5523 19.5905 11 19.0382 11H1.03821C0.485923 11 0.038208 10.5523 0.038208 10Z" fill="black"/>
<path fill-rule="evenodd" clip-rule="evenodd" d="M0.038208 19C0.038208 18.4477 0.485923 18 1.03821 18H19.0382C19.5905 18 20.0382 18.4477 20.0382 19C20.0382 19.5523 19.5905 20 19.0382 20H1.03821C0.485923 20 0.038208 19.5523 0.038208 19Z" fill="black"/>
</svg>
