<svg width="280" height="204" viewBox="0 0 280 204" fill="none" xmlns="http://www.w3.org/2000/svg">
<g filter="url(#filter0_d_2681_27113)">
<path fill-rule="evenodd" clip-rule="evenodd" d="M8.60195 2.33398C4.99045 2.33398 2.06274 5.26169 2.06274 8.8732V45.7948C2.06274 49.4063 4.99045 52.334 8.60196 52.334H131.372L137.588 60.657C138.896 62.4077 141.52 62.4077 142.828 60.657L149.044 52.334H271.149C274.76 52.334 277.688 49.4063 277.688 45.7948V8.8732C277.688 5.26169 274.76 2.33398 271.149 2.33398H8.60195Z" fill="white"/>
</g>
<path d="M45.2385 17.7471V32.2002H34.7893V17.7471H45.2385ZM37.4504 30.0273H42.5286V19.8711H37.4504V30.0273ZM48.5833 37.6689V15.5986H51.2932V24.0703H54.6868V26.3652H51.2932V37.6689H48.5833ZM65.6487 16.0381C70.5315 16.0381 73.5955 17.6372 73.6077 20.335C73.5955 22.9717 70.5315 24.5464 65.6487 24.5342C60.8147 24.5464 57.6897 22.9717 57.6897 20.335C57.6897 17.6372 60.8147 16.0381 65.6487 16.0381ZM55.6145 28.2207V26.0234H75.7317V28.2207H55.6145ZM57.9827 37.4004V29.9785H73.2903V37.4004H57.9827ZM60.5217 20.335C60.4973 21.6655 62.426 22.4224 65.6487 22.4346C68.8713 22.4224 70.8 21.6655 70.8 20.335C70.8 18.9312 68.8713 18.1621 65.6487 18.1621C62.426 18.1621 60.4973 18.9312 60.5217 20.335ZM60.6682 35.2031H70.6536V32.127H60.6682V35.2031ZM97.387 32.9326V35.1299H77.2209V32.9326H82.4456V28.3916H78.9543V26.1943H82.0549V19.6514H78.8811V17.4785H95.6292V19.6514H92.4065V26.1943H95.5559V28.3916H92.0647V32.9326H97.387ZM84.7649 26.1943H89.7209V19.6514H84.7649V26.1943ZM85.1555 32.9326H89.3547V28.3916H85.1555V32.9326ZM117.309 15.623V32.4199H114.599V28.0742H111.327V25.9014H114.599V23.4355H111.327V21.2383H114.599V15.623H117.309ZM98.8762 20.2373V18.0645H103.808V15.5986H106.518V18.0645H111.205V20.2373H98.8762ZM100.024 25.4375C100.011 22.9106 102.148 21.1406 105.126 21.1406C108.129 21.1406 110.29 22.9106 110.302 25.4375C110.29 27.9766 108.129 29.7222 105.126 29.7344C102.148 29.7222 100.011 27.9766 100.024 25.4375ZM102.563 25.4375C102.551 26.8169 103.613 27.6348 105.126 27.6348C106.652 27.6348 107.726 26.8169 107.739 25.4375C107.726 24.0947 106.652 23.2769 105.126 23.2646C103.613 23.2769 102.551 24.0947 102.563 25.4375ZM102.758 37.2295V30.9795H105.517V35.0322H117.797V37.2295H102.758ZM135.717 17.9912V23.7285H138.281V15.9893H140.868V36.5947H138.281V25.9258H135.717V31.9805H127.05V17.9912H135.717ZM129.589 29.832H133.178V20.1396H129.589V29.832ZM142.797 37.6689V15.5986H145.409V37.6689H142.797ZM156.323 20.8965C156.298 24.9492 158.434 29.002 162.011 30.54L160.4 32.7129C157.861 31.541 156.005 29.2095 154.98 26.3286C153.967 29.4292 152.062 31.9683 149.389 33.2256L147.729 30.9551C151.403 29.3682 153.552 25.1567 153.564 20.8965V17.3809H156.323V20.8965ZM163.598 37.6934V15.5986H166.332V37.6934H163.598ZM177.905 21.873C177.905 25.4863 180.029 29.2949 183.593 30.7842L182.104 32.9326C179.491 31.7974 177.587 29.4902 176.574 26.6826C175.561 29.71 173.62 32.249 171.044 33.4697L169.482 31.3457C172.961 29.7344 175.134 25.6206 175.146 21.873V20.0176H170.287V17.7715H182.739V20.0176H177.905V21.873ZM185.204 37.6689V15.5986H187.939V37.6689H185.204ZM215.038 25.6328V27.7812H208.495V32.835H217.284V35.0566H197.118V32.835H205.81V27.7812H199.56V17.2344H214.867V19.4072H202.27V25.6328H215.038ZM226.659 20.3838C226.647 22.8008 228.442 25.2178 231.933 26.1699L230.663 28.3428C228.136 27.6104 226.33 26.0845 225.329 24.1558C224.365 26.2676 222.533 27.9277 219.946 28.709L218.627 26.585C222.106 25.584 223.949 23.0205 223.949 20.3838V20.2129H219.335V18.0645H223.949V15.5254H226.684V18.0645H231.274V20.2129H226.659V20.3838ZM221.435 32.2734V30.1006H236.132V37.6934H233.422V32.2734H221.435ZM233.422 29.0996V15.5986H236.132V21.1895H239.208V23.4844H236.132V29.0996H233.422ZM244.872 17.8203L244.604 30.2959H241.845L241.552 17.8203H244.872ZM241.332 33.7871C241.32 32.7617 242.187 31.9194 243.237 31.9072C244.25 31.9194 245.116 32.7617 245.116 33.7871C245.116 34.8369 244.25 35.6914 243.237 35.6914C242.187 35.6914 241.32 34.8369 241.332 33.7871Z" fill="black"/>
<path d="M154 199.166C168.968 194.984 183.593 184.384 194.031 168.795C213.553 139.639 211.692 102.628 188.082 86.5862C174.034 77.0406 155.905 77.5117 139.565 85.5363C123.39 77.8023 105.539 77.4626 91.6681 86.8871L93.0731 88.9549L91.6681 86.8871C68.0587 102.929 66.1969 139.94 85.7193 169.096C102.765 194.554 131.255 206.94 154 199.166Z" fill="#F84C37" stroke="white" stroke-width="5"/>
<path d="M154 199.166C168.968 194.984 183.593 184.384 194.031 168.795C213.553 139.639 211.692 102.628 188.082 86.5862C174.034 77.0406 155.905 77.5117 139.565 85.5363C123.39 77.8023 105.539 77.4626 91.6681 86.8871L93.0731 88.9549L91.6681 86.8871C68.0587 102.929 66.1969 139.94 85.7193 169.096C102.765 194.554 131.255 206.94 154 199.166Z" fill="#F84C37" stroke="white" stroke-width="5"/>
<ellipse cx="120.376" cy="126.168" rx="5.19955" ry="9.09921" fill="white"/>
<ellipse cx="118.427" cy="128.117" rx="3.24972" ry="5.84949" fill="black"/>
<ellipse cx="145.074" cy="126.168" rx="5.19955" ry="9.09921" fill="white"/>
<ellipse cx="132.076" cy="140.466" rx="5.2" ry="3.9" fill="black"/>
<ellipse cx="143.124" cy="128.117" rx="3.24972" ry="5.84949" fill="black"/>
<path d="M125.627 152.164C128.176 161.913 141.175 160.613 144.068 152.401" stroke="black" stroke-width="2.59978" stroke-linecap="round"/>
<defs>
<filter id="filter0_d_2681_27113" x="0.0627441" y="0.333984" width="279.625" height="63.6367" filterUnits="userSpaceOnUse" color-interpolation-filters="sRGB">
<feFlood flood-opacity="0" result="BackgroundImageFix"/>
<feColorMatrix in="SourceAlpha" type="matrix" values="0 0 0 0 0 0 0 0 0 0 0 0 0 0 0 0 0 0 127 0" result="hardAlpha"/>
<feOffset/>
<feGaussianBlur stdDeviation="1"/>
<feComposite in2="hardAlpha" operator="out"/>
<feColorMatrix type="matrix" values="0 0 0 0 0 0 0 0 0 0 0 0 0 0 0 0 0 0 0.3 0"/>
<feBlend mode="normal" in2="BackgroundImageFix" result="effect1_dropShadow_2681_27113"/>
<feBlend mode="normal" in="SourceGraphic" in2="effect1_dropShadow_2681_27113" result="shape"/>
</filter>
</defs>
</svg>
