<svg width="263" height="199" viewBox="0 0 263 199" fill="none" xmlns="http://www.w3.org/2000/svg">
<g filter="url(#filter0_d_2796_46531)">
<path fill-rule="evenodd" clip-rule="evenodd" d="M8.53921 2C4.9277 2 2 4.9277 2 8.53921V45.4608C2 49.0723 4.92771 52 8.53921 52H123.509L129.137 60.0172C130.439 61.8722 133.187 61.8722 134.489 60.0172L140.116 52H254.461C258.072 52 261 49.0723 261 45.4608V8.53921C261 4.9277 258.072 2 254.461 2H8.53921Z" fill="#FFF6E5"/>
</g>
<path d="M46.979 19.251V33.7041H36.5298V19.251H46.979ZM39.1909 31.5312H44.269V21.375H39.1909V31.5312ZM50.3237 39.1729V17.1025H53.0337V25.5742H56.4272V27.8691H53.0337V39.1729H50.3237ZM67.3892 17.542C72.272 17.542 75.3359 19.1411 75.3481 21.8389C75.3359 24.4756 72.272 26.0503 67.3892 26.0381C62.5552 26.0503 59.4302 24.4756 59.4302 21.8389C59.4302 19.1411 62.5552 17.542 67.3892 17.542ZM57.355 29.7246V27.5273H77.4722V29.7246H57.355ZM59.7231 38.9043V31.4824H75.0308V38.9043H59.7231ZM62.2622 21.8389C62.2378 23.1694 64.1665 23.9263 67.3892 23.9385C70.6118 23.9263 72.5405 23.1694 72.5405 21.8389C72.5405 20.4351 70.6118 19.666 67.3892 19.666C64.1665 19.666 62.2378 20.4351 62.2622 21.8389ZM62.4087 36.707H72.394V33.6309H62.4087V36.707ZM99.1274 34.4365V36.6338H78.9614V34.4365H84.186V29.8955H80.6948V27.6982H83.7954V21.1553H80.6216V18.9824H97.3696V21.1553H94.147V27.6982H97.2964V29.8955H93.8052V34.4365H99.1274ZM86.5054 27.6982H91.4614V21.1553H86.5054V27.6982ZM86.896 34.4365H91.0952V29.8955H86.896V34.4365ZM119.049 17.127V33.9238H116.339V29.5781H113.068V27.4053H116.339V24.9395H113.068V22.7422H116.339V17.127H119.049ZM100.617 21.7412V19.5684H105.548V17.1025H108.258V19.5684H112.946V21.7412H100.617ZM101.764 26.9414C101.752 24.4146 103.888 22.6445 106.867 22.6445C109.87 22.6445 112.03 24.4146 112.042 26.9414C112.03 29.4805 109.87 31.2261 106.867 31.2383C103.888 31.2261 101.752 29.4805 101.764 26.9414ZM104.303 26.9414C104.291 28.3208 105.353 29.1387 106.867 29.1387C108.393 29.1387 109.467 28.3208 109.479 26.9414C109.467 25.5986 108.393 24.7808 106.867 24.7686C105.353 24.7808 104.291 25.5986 104.303 26.9414ZM104.499 38.7334V32.4834H107.257V36.5361H119.538V38.7334H104.499ZM146.588 17.127V33.2402H143.878V25.1592H139.972V22.9619H143.878V17.127H146.588ZM128.058 28.4795C131.574 27.3198 133.454 24.439 133.454 21.4971V20.9111H128.864V18.7139H140.778V20.9111H136.212V21.5215C136.212 24.1704 137.995 26.917 141.413 28.04L140.045 30.2129C137.58 29.3706 135.834 27.686 134.87 25.5986C133.905 27.918 132.062 29.7734 129.45 30.6768L128.058 28.4795ZM132.111 38.7334V31.8242H134.821V36.5361H147.15V38.7334H132.111ZM161.09 24.8906V27.7715H169.831V29.9443H149.713V27.7715H158.405V24.8906H161.09ZM150.812 24.0117C155.365 23.438 158.356 20.9355 158.356 18.2988V17.4688H161.115V18.2988C161.115 20.9966 164.081 23.438 168.683 24.0117L167.633 26.1357C164.02 25.5864 161.127 23.9507 159.723 21.6313C158.307 23.9385 155.426 25.5864 151.789 26.1357L150.812 24.0117ZM152.057 35.2666C152.057 32.7886 154.926 31.3726 159.748 31.3848C164.533 31.3726 167.377 32.7886 167.389 35.2666C167.377 37.769 164.533 39.1484 159.748 39.1484C154.926 39.1484 152.057 37.769 152.057 35.2666ZM154.816 35.2666C154.804 36.4751 156.5 37.0977 159.748 37.0977C162.934 37.0977 164.655 36.4751 164.679 35.2666C164.655 34.0581 162.934 33.46 159.748 33.46C156.5 33.46 154.804 34.0581 154.816 35.2666ZM183.917 18.0547C187.14 18.0547 189.435 19.8491 189.459 22.498C189.435 24.6953 187.787 26.3433 185.333 26.7949V28.5771C187.177 28.4673 189.02 28.3086 190.729 28.0645L190.949 30.042C186.359 30.8599 181.232 30.9575 177.497 30.9453L177.204 28.7725C178.791 28.7725 180.646 28.7603 182.599 28.6992V26.8071C180.072 26.3799 178.388 24.7319 178.4 22.498C178.388 19.8491 180.683 18.0547 183.917 18.0547ZM180.231 38.709V32.4834H182.941V36.5117H195.514V38.709H180.231ZM180.939 22.498C180.915 23.9507 182.16 24.854 183.917 24.8662C185.688 24.854 186.884 23.9507 186.896 22.498C186.884 21.0088 185.688 20.1299 183.917 20.1299C182.16 20.1299 180.915 21.0088 180.939 22.498ZM192.023 33.9727V17.127H194.733V24.2559H197.711V26.502H194.733V33.9727H192.023ZM219.025 34.3633V36.6094H198.859V34.3633H204.206V30.7256H201.251V23.5234H213.947V20.8135H201.203V18.6162H216.632V25.6963H203.961V28.5283H217.145V30.7256H213.922V34.3633H219.025ZM206.842 34.3633H211.261V30.7256H206.842V34.3633ZM225.006 19.3242L224.738 31.7998H221.979L221.686 19.3242H225.006ZM221.466 35.291C221.454 34.2656 222.321 33.4233 223.371 33.4111C224.384 33.4233 225.25 34.2656 225.25 35.291C225.25 36.3408 224.384 37.1953 223.371 37.1953C222.321 37.1953 221.454 36.3408 221.466 35.291Z" fill="black"/>
<path d="M144.213 193.807L144.141 193.827L144.07 193.851C124.114 200.712 97.7321 189.995 81.4989 165.752L79.4216 167.143L81.4989 165.752C62.8123 137.844 65.6753 104.34 86.1031 90.4602C98.4228 82.0894 114.779 82.3158 130.083 89.9991L131.219 90.5696L132.349 89.9873C147.813 82.0219 164.425 81.685 176.897 90.1593L178.279 88.1259L176.897 90.1593C197.325 104.039 200.188 137.543 181.502 165.451C171.644 180.172 157.943 189.99 144.213 193.807Z" fill="#F84C37" stroke="white" stroke-width="5"/>
<ellipse cx="112.001" cy="125.605" rx="5.19955" ry="9.09921" fill="white"/>
<ellipse cx="110.051" cy="127.555" rx="3.24972" ry="5.84949" fill="black"/>
<ellipse cx="136.699" cy="125.605" rx="5.19955" ry="9.09921" fill="white"/>
<ellipse cx="123.7" cy="139.904" rx="5.2" ry="3.9" fill="black"/>
<ellipse cx="134.749" cy="127.555" rx="3.24972" ry="5.84949" fill="black"/>
<path d="M117.252 151.602C119.801 161.351 132.8 160.051 135.693 151.838" stroke="black" stroke-width="2.59978" stroke-linecap="round"/>
<defs>
<filter id="filter0_d_2796_46531" x="0" y="0" width="263" height="63.4082" filterUnits="userSpaceOnUse" color-interpolation-filters="sRGB">
<feFlood flood-opacity="0" result="BackgroundImageFix"/>
<feColorMatrix in="SourceAlpha" type="matrix" values="0 0 0 0 0 0 0 0 0 0 0 0 0 0 0 0 0 0 127 0" result="hardAlpha"/>
<feOffset/>
<feGaussianBlur stdDeviation="1"/>
<feComposite in2="hardAlpha" operator="out"/>
<feColorMatrix type="matrix" values="0 0 0 0 0 0 0 0 0 0 0 0 0 0 0 0 0 0 0.3 0"/>
<feBlend mode="normal" in2="BackgroundImageFix" result="effect1_dropShadow_2796_46531"/>
<feBlend mode="normal" in="SourceGraphic" in2="effect1_dropShadow_2796_46531" result="shape"/>
</filter>
</defs>
</svg>
