<svg width="68" height="68" viewBox="0 0 68 68" fill="none" xmlns="http://www.w3.org/2000/svg">
<path fill-rule="evenodd" clip-rule="evenodd" d="M55.8722 24.891C56.3237 26.1253 55.6763 27.6129 54.2936 28.9477C54.4462 29.1341 54.5657 29.3402 54.648 29.5653C55.0869 30.765 54.3704 32.2311 52.9118 33.5017C53.1976 35.196 51.1432 37.3524 48.0933 38.468C44.8453 39.656 41.6981 39.2137 41.064 37.48C40.7991 36.7557 41.0147 35.9205 41.5925 35.1069C41.4342 34.9167 41.3106 34.7058 41.2261 34.4747C40.9058 33.5991 41.2009 32.5817 41.9507 31.6019C41.4699 31.2752 41.1192 30.8577 40.9352 30.3546C40.1299 28.1529 42.8208 25.1451 46.9456 23.6364C51.0703 22.1277 55.0669 22.6894 55.8722 24.891Z" fill="#BDE1E9"/>
<path d="M53.8946 29.0742C53.8946 29.0742 52.5755 29.6394 51.9389 29.8667C51.5028 30.0225 51.0558 30.158 50.6018 30.2523" stroke="#ECFCFF" stroke-width="0.356697" stroke-linecap="round"/>
<path d="M52.7832 33.6321C52.4417 33.7682 52.108 33.9225 51.7767 34.0819C51.5204 34.2052 51.2188 34.3433 51.0129 34.4151C50.6573 34.5393 49.8687 34.6516 49.8687 34.6516" stroke="#ECFCFF" stroke-width="0.356697" stroke-linecap="round"/>
<path fill-rule="evenodd" clip-rule="evenodd" d="M11.567 24.891C11.1155 26.1253 11.7629 27.6129 13.1456 28.9477C12.993 29.1341 12.8735 29.3402 12.7912 29.5653C12.3524 30.765 13.0689 32.2311 14.5274 33.5017C14.2416 35.196 16.296 37.3524 19.3459 38.468C22.594 39.656 25.7411 39.2137 26.3752 37.48C26.6401 36.7557 26.4245 35.9205 25.8467 35.1069C26.005 34.9167 26.1287 34.7058 26.2132 34.4747C26.5334 33.5991 26.2383 32.5817 25.4885 31.6019C25.9693 31.2752 26.32 30.8577 26.5041 30.3546C27.3093 28.1529 24.6184 25.1451 20.4936 23.6364C16.3689 22.1277 12.3723 22.6894 11.567 24.891Z" fill="#BDE1E9"/>
<path d="M13.5647 29.0916C13.5647 29.0916 14.8838 29.6568 15.5203 29.8842C15.9565 30.04 16.4034 30.1754 16.8574 30.2697" stroke="#ECFCFF" stroke-width="0.356697" stroke-linecap="round"/>
<path d="M14.676 33.6494C15.0175 33.7855 15.3512 33.9399 15.6825 34.0992C15.9388 34.2225 16.2405 34.3606 16.4463 34.4325C16.8019 34.5566 17.5906 34.6689 17.5906 34.6689" stroke="#ECFCFF" stroke-width="0.356697" stroke-linecap="round"/>
<path d="M33.7777 24.3605C29.1896 22.62 24.2432 23.1824 21.0581 26.2451C16.4785 30.6488 17.2744 38.554 22.8358 43.9018C26.0077 46.9518 30.0447 48.5112 33.7778 48.4713C37.5109 48.5112 41.5477 46.9517 44.7195 43.9018C50.281 38.554 51.0769 30.6488 46.4972 26.2451C43.3122 23.1824 38.3657 22.62 33.7777 24.3605Z" fill="#FFB979"/>
<path d="M33.622 36.7324C33.3188 36.638 32.9919 36.6685 32.7814 36.8346C32.4787 37.0734 32.5313 37.502 32.8988 37.792C33.1085 37.9574 33.3753 38.042 33.622 38.0398C33.8688 38.0419 34.1356 37.9574 34.3452 37.792C34.7128 37.502 34.7654 37.0734 34.4627 36.8346C34.2522 36.6685 33.9253 36.638 33.622 36.7324Z" fill="black"/>
<path d="M30.4171 34.8125C30.755 34.8125 31.0289 34.4367 31.0289 33.9733C31.0289 33.5098 30.755 33.134 30.4171 33.134C30.0791 33.134 29.8052 33.5098 29.8052 33.9733C29.8052 34.4367 30.0791 34.8125 30.4171 34.8125Z" fill="black"/>
<path d="M36.827 34.8125C37.1649 34.8125 37.4389 34.4367 37.4389 33.9733C37.4389 33.5098 37.1649 33.134 36.827 33.134C36.489 33.134 36.2151 33.5098 36.2151 33.9733C36.2151 34.4367 36.489 34.8125 36.827 34.8125Z" fill="black"/>
<path d="M26.8328 37.2958H26.8172C26.5173 37.2984 26.1806 37.1917 25.9245 36.9896C25.7006 36.813 25.6428 36.6503 25.6343 36.5809C25.6303 36.548 25.6354 36.5313 25.6385 36.5237C25.6412 36.5171 25.6507 36.4962 25.6884 36.4665C25.8117 36.3693 26.1359 36.2806 26.56 36.4126C26.7326 36.4663 26.9174 36.4663 27.09 36.4126C27.5141 36.2806 27.8383 36.3693 27.9615 36.4665C27.9992 36.4962 28.0087 36.5171 28.0114 36.5237C28.0145 36.5313 28.0197 36.548 28.0156 36.5809C28.0071 36.6503 27.9494 36.813 27.7255 36.9896C27.4694 37.1916 27.1326 37.2984 26.8328 37.2958Z" fill="#FE7512" stroke="#FE820F" stroke-width="1.78349" stroke-linejoin="round"/>
<path d="M40.5757 37.2958H40.56C40.2602 37.2984 39.9235 37.1917 39.6674 36.9896C39.4434 36.813 39.3857 36.6503 39.3772 36.5809C39.3732 36.548 39.3783 36.5313 39.3814 36.5237C39.3841 36.5171 39.3936 36.4962 39.4313 36.4665C39.5546 36.3693 39.8788 36.2806 40.3029 36.4126C40.4754 36.4663 40.6603 36.4663 40.8329 36.4126C41.2569 36.2806 41.5812 36.3693 41.7044 36.4665C41.7421 36.4962 41.7516 36.5171 41.7543 36.5237C41.7574 36.5313 41.7625 36.548 41.7585 36.5809C41.75 36.6503 41.6923 36.813 41.4684 36.9896C41.2123 37.1916 40.8755 37.2984 40.5757 37.2958Z" fill="#A549BB" stroke="#FE820F" stroke-width="1.78349" stroke-linejoin="round"/>
<path d="M32.1042 39.6152C32.5262 41.2291 34.6782 41.0139 35.1571 39.6543" stroke="black" stroke-width="0.594495" stroke-linecap="round"/>
<path d="M44.2132 29.6524C43.908 30.1023 43.3911 30.2843 43.0588 30.0589C42.7265 29.8335 42.7045 29.286 43.0097 28.836C43.315 28.386 43.8318 28.204 44.1641 28.4295C44.4965 28.6549 44.5184 29.2024 44.2132 29.6524ZM43.3808 29.0877C43.2638 29.2602 43.2722 29.4701 43.3996 29.5565C43.527 29.6429 43.7251 29.5731 43.8421 29.4007C43.9591 29.2282 43.9507 29.0183 43.8233 28.9319C43.6959 28.8455 43.4978 28.9152 43.3808 29.0877Z" fill="#B7EDE7" fill-opacity="0.95"/>
<path d="M41.166 27.7227C40.7976 27.7879 40.4855 28.0094 40.3786 28.3193C40.2249 28.765 40.5538 29.2248 41.1132 29.3463C41.4323 29.4156 41.7574 29.3599 42.0064 29.2166C42.2581 29.0782 42.4745 28.8293 42.581 28.5206C42.7676 27.9795 42.5455 27.4596 42.0848 27.3596C41.7644 27.29 41.4131 27.4417 41.166 27.7227Z" fill="#F5E890"/>
<mask id="mask0_851_32718" style="mask-type:luminance" maskUnits="userSpaceOnUse" x="40" y="27" width="3" height="3">
<path d="M41.166 27.7227C40.7976 27.7879 40.4855 28.0094 40.3786 28.3193C40.2249 28.765 40.5538 29.2248 41.1132 29.3463C41.4323 29.4156 41.7574 29.3599 42.0064 29.2166C42.2581 29.0782 42.4745 28.8293 42.581 28.5206C42.7676 27.9795 42.5455 27.4596 42.0848 27.3596C41.7644 27.29 41.4131 27.4417 41.166 27.7227Z" fill="white"/>
</mask>
<g mask="url(#mask0_851_32718)">
<path d="M41.166 27.7227L41.4771 29.4788C41.8755 29.4083 42.2381 29.2043 42.5053 28.9005L41.166 27.7227ZM42.0064 29.2166L41.1474 27.6536C41.1371 27.6593 41.1268 27.665 41.1166 27.6709L42.0064 29.2166ZM42.0646 28.9008C41.984 29.1346 41.8441 29.2818 41.7389 29.3601C41.6355 29.437 41.5425 29.4672 41.4771 29.4788L40.8549 25.9665C40.0423 26.1105 39.0676 26.6504 38.6925 27.7379L42.0646 28.9008ZM41.4918 27.6034C41.5887 27.6245 41.7731 27.6987 41.9291 27.9167C42.099 28.1542 42.1939 28.5258 42.0646 28.9008L38.6925 27.7379C38.0702 29.5426 39.5286 30.8271 40.7346 31.0891L41.4918 27.6034ZM41.1166 27.6709C41.1938 27.6265 41.2627 27.6064 41.3178 27.598C41.3743 27.5894 41.4327 27.5906 41.4918 27.6034L40.7346 31.0891C41.4783 31.2507 42.2564 31.1305 42.8961 30.7623L41.1166 27.6709ZM42.8654 30.7796C43.5121 30.4241 44.0189 29.8215 44.267 29.1021L40.8949 27.9392C40.9147 27.882 40.9439 27.8315 40.9806 27.7876C41.0164 27.7449 41.0694 27.6965 41.1474 27.6536L42.8654 30.7796ZM44.267 29.1021C44.6693 27.9354 44.3289 26.022 42.4634 25.6167L41.7062 29.1024C41.3186 29.0182 41.0504 28.7441 40.9356 28.4755C40.8303 28.2291 40.8626 28.0329 40.8949 27.9392L44.267 29.1021ZM42.4634 25.6167C41.3393 25.3725 40.3718 25.9251 39.8267 26.5449L42.5053 28.9005C42.4614 28.9504 42.3873 29.0141 42.2679 29.0625C42.1464 29.1118 41.9479 29.1549 41.7062 29.1024L42.4634 25.6167Z" fill="#F5E890"/>
</g>
</svg>
