<svg width="8" height="8" viewBox="0 0 8 8" fill="none" xmlns="http://www.w3.org/2000/svg">
<path d="M5.79166 3.984C6.29166 3.904 6.74166 4.024 7.14166 4.344C7.56166 4.664 7.77166 5.074 7.77166 5.574C7.77166 6.034 7.60166 6.434 7.26166 6.774C6.92166 7.114 6.52166 7.284 6.06166 7.284C5.60166 7.284 5.22166 7.114 4.92166 6.774C4.62166 6.414 4.45166 5.994 4.41166 5.514C4.33166 4.654 4.36166 3.934 4.50166 3.354C4.64166 2.754 4.86166 2.204 5.16166 1.704C5.38166 1.364 5.67166 1.034 6.03166 0.714C6.41166 0.394 6.81166 0.174 7.23166 0.0539993C7.45166 -0.00599992 7.57166 -0.0159998 7.59166 0.0239997C7.63166 0.0640004 7.65166 0.194 7.65166 0.414V0.743999C7.65166 0.984 7.63166 1.134 7.59166 1.194C7.57166 1.234 7.45166 1.294 7.23166 1.374C6.79166 1.534 6.44166 1.834 6.18166 2.274C5.92166 2.714 5.79166 3.284 5.79166 3.984ZM1.65166 3.984C2.15166 3.904 2.60166 4.024 3.00166 4.344C3.42166 4.664 3.63166 5.074 3.63166 5.574C3.63166 6.034 3.46166 6.434 3.12166 6.774C2.78166 7.114 2.38166 7.284 1.92166 7.284C1.46166 7.284 1.08166 7.114 0.781664 6.774C0.481664 6.414 0.311664 5.994 0.271664 5.514C0.191664 4.654 0.221664 3.934 0.361664 3.354C0.501664 2.754 0.721664 2.204 1.02166 1.704C1.24166 1.364 1.53166 1.034 1.89166 0.714C2.27166 0.394 2.67166 0.174 3.09166 0.0539993C3.31166 -0.00599992 3.43166 -0.0159998 3.45166 0.0239997C3.49166 0.0640004 3.51166 0.194 3.51166 0.414V0.743999C3.51166 0.984 3.49166 1.134 3.45166 1.194C3.43166 1.234 3.31166 1.294 3.09166 1.374C2.65166 1.534 2.30166 1.834 2.04166 2.274C1.78166 2.714 1.65166 3.284 1.65166 3.984Z" fill="black"/>
</svg>
