<svg width="8" height="8" viewBox="0 0 8 8" fill="none" xmlns="http://www.w3.org/2000/svg">
<path d="M2.20803 3.58394C1.70803 3.66394 1.24803 3.54394 0.828027 3.22394C0.428027 2.90394 0.228027 2.49394 0.228027 1.99394C0.228027 1.53394 0.398027 1.13394 0.738027 0.793936C1.07803 0.453936 1.47803 0.283936 1.93803 0.283936C2.39803 0.283936 2.77803 0.463936 3.07803 0.823936C3.37803 1.16394 3.54803 1.57394 3.58803 2.05394C3.66803 2.91394 3.63803 3.64394 3.49803 4.24394C3.35803 4.82394 3.13803 5.36394 2.83803 5.86394C2.61803 6.20394 2.31803 6.53394 1.93803 6.85394C1.57803 7.17394 1.18803 7.39394 0.768027 7.51394C0.548027 7.57394 0.418027 7.58394 0.378027 7.54394C0.358027 7.50394 0.348027 7.37394 0.348027 7.15394V6.82394C0.348027 6.58394 0.358027 6.44394 0.378027 6.40394C0.418027 6.34394 0.548027 6.27394 0.768027 6.19394C1.20803 6.03394 1.55803 5.73394 1.81803 5.29394C2.07803 4.85394 2.20803 4.28394 2.20803 3.58394ZM6.34803 3.58394C5.84803 3.66394 5.38803 3.54394 4.96803 3.22394C4.56803 2.90394 4.36803 2.49394 4.36803 1.99394C4.36803 1.53394 4.53803 1.13394 4.87803 0.793936C5.21803 0.453936 5.61803 0.283936 6.07803 0.283936C6.53803 0.283936 6.91803 0.463936 7.21803 0.823936C7.51803 1.16394 7.68803 1.57394 7.72803 2.05394C7.80803 2.91394 7.77803 3.64394 7.63803 4.24394C7.49803 4.82394 7.27803 5.36394 6.97803 5.86394C6.75803 6.20394 6.45803 6.53394 6.07803 6.85394C5.71803 7.17394 5.32803 7.39394 4.90803 7.51394C4.68803 7.57394 4.55803 7.58394 4.51803 7.54394C4.49803 7.50394 4.48803 7.37394 4.48803 7.15394V6.82394C4.48803 6.58394 4.49803 6.44394 4.51803 6.40394C4.55803 6.34394 4.68803 6.27394 4.90803 6.19394C5.34803 6.03394 5.69803 5.73394 5.95803 5.29394C6.21803 4.85394 6.34803 4.28394 6.34803 3.58394Z" fill="black"/>
</svg>
