<svg width="101" height="100" viewBox="0 0 101 100" fill="none" xmlns="http://www.w3.org/2000/svg">
<g filter="url(#filter0_d_2727_33240)">
<path fill-rule="evenodd" clip-rule="evenodd" d="M5.55452 1.92773C3.03913 1.92773 1 3.96686 1 6.48225V32.1979C1 34.7133 3.03912 36.7524 5.55451 36.7524H47.3934L48.4384 39.4682C49.1872 41.4142 51.9404 41.4142 52.6891 39.4682L53.7341 36.7524H95.3343C97.8497 36.7524 99.8888 34.7133 99.8888 32.1979V6.48225C99.8888 3.96686 97.8497 1.92773 95.3343 1.92773H5.55452Z" fill="white"/>
</g>
<path d="M27.9243 15.1475C27.916 16.7827 29.1362 18.3599 31.4937 19.0156L30.647 20.4434C28.9204 19.9702 27.7002 18.9658 27.0195 17.6792C26.3638 19.0986 25.1104 20.1943 23.3257 20.709L22.4458 19.2812C24.8115 18.6172 26.0815 16.9404 26.0815 15.1475V15.1143H22.9438V13.6533H26.0815V11.9932H27.9409V13.6533H31.062V15.1143H27.9243V15.1475ZM24.6704 26.8848V21.5225H34.3657V26.8848H24.6704ZM26.4966 25.3906H32.5396V22.9834H26.4966V25.3906ZM32.5229 20.8916V12.0596H34.3657V15.6787H36.4575V17.2061H34.3657V20.8916H32.5229ZM49.4731 13.4375V14.8818C49.4565 16.7495 49.4565 18.833 48.8755 21.9707L47.0161 21.7715C47.6055 18.8496 47.6055 16.7163 47.6138 14.915H38.6489V13.4375H49.4731ZM37.2212 25.125V23.6143H42.2681V18.4014H44.0942V23.6143H50.9009V25.125H37.2212ZM59.2349 14.4502V15.9277H51.8804V14.4502H54.6694V12.4912H56.4956V14.4502H59.2349ZM52.312 20.2109C52.2954 18.1689 53.6816 16.7163 55.5825 16.7246C57.4917 16.7163 58.853 18.1689 58.853 20.2109C58.853 22.2944 57.4917 23.7471 55.5825 23.7471C53.6816 23.7471 52.2954 22.2944 52.312 20.2109ZM53.939 20.2109C53.9307 21.4229 54.6113 22.1782 55.5825 22.1699C56.5454 22.1782 57.2261 21.4229 57.2261 20.2109C57.2261 19.0322 56.5454 18.252 55.5825 18.252C54.6113 18.252 53.9307 19.0322 53.939 20.2109ZM59.8657 26.3867V12.375H61.5923V18.2354H63.0532V12.0596H64.813V27.0674H63.0532V19.7295H61.5923V26.3867H59.8657ZM80.3188 23.7305V25.2412H66.606V23.7305H69.7769V19.937C68.5815 19.248 67.8594 18.1689 67.8677 16.8408C67.8594 14.4502 70.2002 12.873 73.4292 12.873C76.6748 12.873 79.0322 14.4502 79.0239 16.8408C79.0322 18.1523 78.3267 19.2065 77.1646 19.8955V23.7305H80.3188ZM69.6772 16.8408C69.6689 18.3765 71.188 19.356 73.4292 19.3477C75.6621 19.356 77.2144 18.3765 77.2144 16.8408C77.2144 15.2803 75.6621 14.3257 73.4292 14.334C71.188 14.3257 69.6689 15.2803 69.6772 16.8408ZM71.603 23.7305H75.2886V20.6011C74.7158 20.7256 74.0933 20.792 73.4292 20.792C72.7817 20.792 72.1675 20.7256 71.603 20.6094V23.7305Z" fill="black"/>
<path d="M56.2097 98.3874C62.3968 96.6674 68.5049 92.2673 72.8801 85.7331C81.1105 73.4414 80.0928 58.2522 70.607 51.8069C64.8244 47.8779 57.2298 48.1053 50.3169 51.6662C43.4726 48.2299 35.9932 48.0557 30.2817 51.9366C20.7959 58.3818 19.7782 73.5711 28.0085 85.8627C35.1808 96.5742 47.0094 101.55 56.2097 98.3874Z" fill="#F84C37"/>
<ellipse cx="42.0442" cy="67.9669" rx="2.24" ry="3.92" fill="white"/>
<ellipse cx="41.2042" cy="68.8071" rx="1.4" ry="2.52" fill="black"/>
<ellipse cx="52.6843" cy="67.9669" rx="2.24" ry="3.92" fill="white"/>
<ellipse cx="47.0845" cy="74.1273" rx="2.24" ry="1.68" fill="black"/>
<ellipse cx="51.8443" cy="68.8071" rx="1.4" ry="2.52" fill="black"/>
<path d="M44.3064 79.168C45.4045 83.368 51.0045 82.808 52.2507 79.2699" stroke="black" stroke-width="1.12" stroke-linecap="round"/>
<defs>
<filter id="filter0_d_2727_33240" x="0" y="0.927734" width="100.889" height="41" filterUnits="userSpaceOnUse" color-interpolation-filters="sRGB">
<feFlood flood-opacity="0" result="BackgroundImageFix"/>
<feColorMatrix in="SourceAlpha" type="matrix" values="0 0 0 0 0 0 0 0 0 0 0 0 0 0 0 0 0 0 127 0" result="hardAlpha"/>
<feOffset/>
<feGaussianBlur stdDeviation="0.5"/>
<feComposite in2="hardAlpha" operator="out"/>
<feColorMatrix type="matrix" values="0 0 0 0 0 0 0 0 0 0 0 0 0 0 0 0 0 0 0.3 0"/>
<feBlend mode="normal" in2="BackgroundImageFix" result="effect1_dropShadow_2727_33240"/>
<feBlend mode="normal" in="SourceGraphic" in2="effect1_dropShadow_2727_33240" result="shape"/>
</filter>
</defs>
</svg>
