<svg width="20" height="21" viewBox="0 0 20 21" fill="none" xmlns="http://www.w3.org/2000/svg">
<path d="M9 10.39C9 9.83773 9.44772 9.39001 10 9.39001C10.5523 9.39001 11 9.83773 11 10.39C11 10.9423 10.5523 11.39 10 11.39C9.44772 11.39 9 10.9423 9 10.39Z" fill="black"/>
<path d="M13 10.39C13 9.83773 13.4477 9.39001 14 9.39001C14.5523 9.39001 15 9.83773 15 10.39C15 10.9423 14.5523 11.39 14 11.39C13.4477 11.39 13 10.9423 13 10.39Z" fill="black"/>
<path d="M5 10.39C5 9.83773 5.44772 9.39001 6 9.39001C6.55228 9.39001 7 9.83773 7 10.39C7 10.9423 6.55228 11.39 6 11.39C5.44772 11.39 5 10.9423 5 10.39Z" fill="black"/>
<path fill-rule="evenodd" clip-rule="evenodd" d="M3 1.57092C3 0.918725 3.52871 0.390015 4.18091 0.390015C4.83311 0.390015 5.36182 0.918725 5.36182 1.57092V1.99001C5.36182 2.21093 5.5409 2.39001 5.76182 2.39001H13.9618C14.1827 2.39001 14.3618 2.21093 14.3618 1.99001V1.70911C14.3618 0.980592 14.9524 0.390015 15.6809 0.390015C16.4094 0.390015 17 0.980592 17 1.70911V1.99001C17 2.21093 17.1791 2.39001 17.4 2.39001H18C19.1046 2.39001 20 3.28544 20 4.39001V18.39C20 19.4946 19.1046 20.39 18 20.39H2C0.895431 20.39 0 19.4946 0 18.39V4.39001C0 3.28545 0.895431 2.39001 2 2.39001H2.6C2.82091 2.39001 3 2.21093 3 1.99001V1.57092ZM2 7.89001C2 7.61387 2.22386 7.39001 2.5 7.39001H17.5C17.7761 7.39001 18 7.61387 18 7.89001V17.89C18 18.1662 17.7761 18.39 17.5 18.39H2.5C2.22386 18.39 2 18.1662 2 17.89V7.89001Z" fill="black"/>
</svg>
