<svg width="249" height="199" viewBox="0 0 249 199" fill="none" xmlns="http://www.w3.org/2000/svg">
<g filter="url(#filter0_d_2796_46594)">
<path fill-rule="evenodd" clip-rule="evenodd" d="M9.03921 2C5.4277 2 2.5 4.9277 2.5 8.53921V45.4608C2.5 49.0723 5.4277 52 9.03921 52H116.972L122.067 59.7055C123.36 61.6605 126.229 61.6605 127.522 59.7055L132.617 52H239.961C243.572 52 246.5 49.0723 246.5 45.4608V8.53921C246.5 4.9277 243.572 2 239.961 2H9.03921Z" fill="#FFF6E5"/>
</g>
<path d="M72.7051 17.2119V39.2822H69.9951V17.2119H72.7051ZM54.4189 33.1543C56.1768 33.1421 58.1665 33.1421 60.2539 33.0811V31.0547C57.7759 30.6641 56.1523 29.1504 56.1523 27.0508C56.1523 24.5605 58.3618 22.9126 61.5723 22.9004C64.8193 22.9126 67.0654 24.5605 67.0654 27.0508C67.0654 29.1382 65.4419 30.6396 62.9639 31.0425V32.9834C64.9048 32.8979 66.8579 32.7393 68.7012 32.4951L68.8965 34.5215C64.0503 35.3394 58.7769 35.4004 54.8096 35.4004L54.4189 33.1543ZM54.8828 21.8994V19.751H60.2539V17.2852H62.9639V19.751H68.3105V21.8994H54.8828ZM58.7402 27.0508C58.7158 28.3203 59.8999 29.0649 61.5723 29.0527C63.2935 29.0649 64.4653 28.3203 64.4531 27.0508C64.4653 25.769 63.2935 24.9878 61.5723 24.9756C59.8999 24.9878 58.7158 25.769 58.7402 27.0508ZM94.4336 17.2363V33.9355H91.6992V32.0068H87.3779V30.1025H91.6992V17.2363H94.4336ZM75.8301 27.1484C79.895 27.124 85.376 27.0874 90.0635 26.4893L90.21 28.4424C88.3911 28.7476 86.5112 28.9429 84.6436 29.0771V33.3252H81.9336V29.2236C79.8706 29.3091 77.9053 29.3213 76.1719 29.3213L75.8301 27.1484ZM77.5146 21.9482C77.5146 19.6167 79.7607 18.0298 83.0322 18.042C86.2427 18.0298 88.501 19.6167 88.5254 21.9482C88.501 24.3164 86.2427 25.8179 83.0322 25.8301C79.7607 25.8179 77.5146 24.3164 77.5146 21.9482ZM78.7598 38.8428V32.3242H81.4697V36.6455H94.9463V38.8428H78.7598ZM80.0781 21.9482C80.0781 23.1445 81.2622 23.8403 83.0322 23.8525C84.7168 23.8403 85.9253 23.1445 85.9375 21.9482C85.9253 20.752 84.7168 20.0317 83.0322 20.0439C81.2622 20.0317 80.0781 20.752 80.0781 21.9482ZM114.819 17.2119V25.8301H118.091V28.1006H114.819V39.2334H112.109V17.2119H114.819ZM97.4121 33.2031C102.783 30.5176 105.688 26.7822 106.226 21.7529H98.6084V19.5068H108.984C108.972 25.9888 106.287 31.6895 98.9502 35.3027L97.4121 33.2031ZM137.524 17.2119V29.0527H134.79V17.2119H137.524ZM119.531 23.3643C119.531 20.3003 122.07 18.1763 125.488 18.1885C128.894 18.1763 131.433 20.3003 131.421 23.3643C131.433 26.3794 128.894 28.5034 125.488 28.4912C122.07 28.5034 119.531 26.3794 119.531 23.3643ZM122.192 23.3643C122.18 25.1343 123.56 26.2573 125.488 26.2695C127.38 26.2573 128.76 25.1343 128.76 23.3643C128.76 21.5942 127.38 20.4468 125.488 20.459C123.56 20.4468 122.18 21.5942 122.192 23.3643ZM122.925 39.0137V30.0781H125.61V32.3486H134.814V30.0781H137.524V39.0137H122.925ZM125.61 36.8164H134.814V34.4727H125.61V36.8164ZM153.345 18.1641C156.567 18.1641 158.862 19.9585 158.887 22.6074C158.862 24.8047 157.214 26.4526 154.761 26.9043V28.6865C156.604 28.5767 158.447 28.418 160.156 28.1738L160.376 30.1514C155.786 30.9692 150.659 31.0669 146.924 31.0547L146.631 28.8818C148.218 28.8818 150.073 28.8696 152.026 28.8086V26.9165C149.5 26.4893 147.815 24.8413 147.827 22.6074C147.815 19.9585 150.11 18.1641 153.345 18.1641ZM149.658 38.8184V32.5928H152.368V36.6211H164.941V38.8184H149.658ZM150.366 22.6074C150.342 24.0601 151.587 24.9634 153.345 24.9756C155.115 24.9634 156.311 24.0601 156.323 22.6074C156.311 21.1182 155.115 20.2393 153.345 20.2393C151.587 20.2393 150.342 21.1182 150.366 22.6074ZM161.45 34.082V17.2363H164.16V24.3652H167.139V26.6113H164.16V34.082H161.45ZM188.452 34.4727V36.7188H168.286V34.4727H173.633V30.835H170.679V23.6328H183.374V20.9229H170.63V18.7256H186.06V25.8057H173.389V28.6377H186.572V30.835H183.35V34.4727H188.452ZM176.27 34.4727H180.688V30.835H176.27V34.4727ZM194.434 19.4336L194.165 31.9092H191.406L191.113 19.4336H194.434ZM190.894 35.4004C190.881 34.375 191.748 33.5327 192.798 33.5205C193.811 33.5327 194.678 34.375 194.678 35.4004C194.678 36.4502 193.811 37.3047 192.798 37.3047C191.748 37.3047 190.881 36.4502 190.894 35.4004Z" fill="black"/>
<path d="M137.213 193.57L137.141 193.59L137.07 193.615C117.114 200.476 90.7319 189.759 74.4987 165.515L72.4214 166.906L74.4987 165.515C55.8121 137.608 58.6751 104.104 79.1029 90.2239C91.4226 81.8531 107.779 82.0795 123.082 89.7627L124.219 90.3332L125.349 89.751C140.813 81.7855 157.425 81.4487 169.897 89.923L171.279 87.8896L169.897 89.923C190.325 103.803 193.188 137.307 174.501 165.214C164.644 179.936 150.943 189.753 137.213 193.57Z" fill="#F84C37" stroke="white" stroke-width="5"/>
<ellipse cx="105.001" cy="125.369" rx="5.19955" ry="9.09921" fill="white"/>
<ellipse cx="103.051" cy="127.318" rx="3.24972" ry="5.84949" fill="black"/>
<ellipse cx="129.699" cy="125.369" rx="5.19955" ry="9.09921" fill="white"/>
<ellipse cx="116.7" cy="139.668" rx="5.2" ry="3.9" fill="black"/>
<ellipse cx="127.749" cy="127.318" rx="3.24972" ry="5.84949" fill="black"/>
<path d="M110.252 151.365C112.801 161.114 125.8 159.815 128.692 151.602" stroke="black" stroke-width="2.59978" stroke-linecap="round"/>
<defs>
<filter id="filter0_d_2796_46594" x="0.5" y="0" width="248" height="63.1719" filterUnits="userSpaceOnUse" color-interpolation-filters="sRGB">
<feFlood flood-opacity="0" result="BackgroundImageFix"/>
<feColorMatrix in="SourceAlpha" type="matrix" values="0 0 0 0 0 0 0 0 0 0 0 0 0 0 0 0 0 0 127 0" result="hardAlpha"/>
<feOffset/>
<feGaussianBlur stdDeviation="1"/>
<feComposite in2="hardAlpha" operator="out"/>
<feColorMatrix type="matrix" values="0 0 0 0 0 0 0 0 0 0 0 0 0 0 0 0 0 0 0.3 0"/>
<feBlend mode="normal" in2="BackgroundImageFix" result="effect1_dropShadow_2796_46594"/>
<feBlend mode="normal" in="SourceGraphic" in2="effect1_dropShadow_2796_46594" result="shape"/>
</filter>
</defs>
</svg>
