<svg width="21" height="19" viewBox="0 0 21 19" fill="none" xmlns="http://www.w3.org/2000/svg">
<path fill-rule="evenodd" clip-rule="evenodd" d="M11.8999 10.4361C11.167 11.0276 10.1206 11.0276 9.38769 10.4361L3.45783 5.65011C3.1308 5.38617 2.6438 5.61894 2.6438 6.0392V15.7424C2.6438 16.0185 2.86766 16.2424 3.1438 16.2424H18.1438C18.4199 16.2424 18.6438 16.0185 18.6438 15.7424V6.0392C18.6438 5.61894 18.1568 5.38617 17.8298 5.65012L11.8999 10.4361ZM17.4002 3.42671C17.7671 3.13055 17.5577 2.53763 17.0861 2.53763H4.20146C3.7299 2.53763 3.52048 3.13055 3.88744 3.42671L10.3298 8.62628C10.513 8.77416 10.7746 8.77416 10.9578 8.62628L17.4002 3.42671ZM20.6438 16.2424C20.6438 17.347 19.7484 18.2424 18.6438 18.2424H2.6438C1.53923 18.2424 0.643799 17.347 0.643799 16.2424V2.53763C0.643799 1.43306 1.53923 0.537628 2.6438 0.537628H18.6438C19.7484 0.537628 20.6438 1.43306 20.6438 2.53763V16.2424Z" fill="black"/>
</svg>
