<svg width="101" height="99" viewBox="0 0 101 99" fill="none" xmlns="http://www.w3.org/2000/svg">
<g filter="url(#filter0_d_2869_47767)">
<path fill-rule="evenodd" clip-rule="evenodd" d="M5.55452 1C3.03913 1 1 3.03912 1 5.55451V31.2701C1 33.7855 3.03912 35.8247 5.55451 35.8247H47.3934L48.4384 38.5405C49.1872 40.4865 51.9404 40.4865 52.6891 38.5405L53.7341 35.8247H95.3343C97.8497 35.8247 99.8888 33.7855 99.8888 31.2701V5.55452C99.8888 3.03913 97.8497 1 95.3343 1H5.55452Z" fill="white"/>
</g>
<path d="M36.2084 20.1465V21.6572H30.2651V26.1562H28.4389V21.6572H22.5287V20.1465H36.2084ZM23.2758 17.7725C26.2724 17.4072 28.2397 15.8716 28.4223 14.3691H23.7905V12.9082H28.4389V11.1484H30.2651V12.9082H34.9301V14.3691H30.2983C30.4726 15.855 32.4316 17.4072 35.4282 17.7725L34.7475 19.2334C32.2656 18.918 30.3398 17.8306 29.3686 16.3862C28.3891 17.8472 26.4384 18.918 23.9399 19.2334L23.2758 17.7725ZM42.6166 14.6846C42.6083 16.4692 43.8618 18.2041 46.2358 18.9346L45.3393 20.3789C43.6376 19.8726 42.4008 18.7852 41.7202 17.4072C41.0561 18.8931 39.8193 20.0635 38.0678 20.6279L37.1713 19.1836C39.537 18.4448 40.7739 16.6104 40.7739 14.6846V14.4521H37.6362V12.9912H40.7739V11.2314H42.6332V12.9912H45.7543V14.4521H42.6166V14.6846ZM39.9438 25.8408V21.3252H41.7866V24.3467H50.1703V25.8408H39.9438ZM45.2563 17.0918V15.6143H47.9457V11.1484H49.7885V22.2881H47.9457V17.0918H45.2563ZM59.2348 13.5225V15H51.8803V13.5225H54.6694V11.5635H56.4955V13.5225H59.2348ZM52.312 19.2832C52.2953 17.2412 53.6816 15.7886 55.5825 15.7969C57.4916 15.7886 58.853 17.2412 58.853 19.2832C58.853 21.3667 57.4916 22.8193 55.5825 22.8193C53.6816 22.8193 52.2953 21.3667 52.312 19.2832ZM53.9389 19.2832C53.9306 20.4951 54.6113 21.2505 55.5825 21.2422C56.5453 21.2505 57.226 20.4951 57.226 19.2832C57.226 18.1045 56.5453 17.3242 55.5825 17.3242C54.6113 17.3242 53.9306 18.1045 53.9389 19.2832ZM59.8657 25.459V11.4473H61.5922V17.3076H63.0532V11.1318H64.8129V26.1396H63.0532V18.8018H61.5922V25.459H59.8657ZM80.3188 22.8027V24.3135H66.6059V22.8027H69.7768V19.0093C68.5815 18.3203 67.8593 17.2412 67.8676 15.9131C67.8593 13.5225 70.2001 11.9453 73.4291 11.9453C76.6747 11.9453 79.0322 13.5225 79.0239 15.9131C79.0322 17.2246 78.3266 18.2788 77.1645 18.9678V22.8027H80.3188ZM69.6772 15.9131C69.6689 17.4487 71.1879 18.4282 73.4291 18.4199C75.662 18.4282 77.2143 17.4487 77.2143 15.9131C77.2143 14.3525 75.662 13.3979 73.4291 13.4062C71.1879 13.3979 69.6689 14.3525 69.6772 15.9131ZM71.603 22.8027H75.2885V19.6733C74.7158 19.7979 74.0932 19.8643 73.4291 19.8643C72.7817 19.8643 72.1674 19.7979 71.603 19.6816V22.8027Z" fill="black"/>
<path d="M56.2098 97.4596C62.3969 95.7396 68.5049 91.3396 72.8802 84.8053C81.1105 72.5137 80.0928 57.3244 70.6071 50.8792C64.8245 46.9501 57.2299 47.1775 50.3169 50.7385C43.4727 47.3022 35.9933 47.128 30.2817 51.0088C20.796 57.4541 19.7783 72.6433 28.0086 84.9349C35.1809 95.6465 47.0095 100.623 56.2098 97.4596Z" fill="#F84C37"/>
<ellipse cx="42.0443" cy="67.0391" rx="2.24" ry="3.92" fill="white"/>
<ellipse cx="41.2043" cy="67.8794" rx="1.4" ry="2.52" fill="black"/>
<ellipse cx="52.6844" cy="67.0391" rx="2.24" ry="3.92" fill="white"/>
<ellipse cx="47.0845" cy="73.1995" rx="2.24" ry="1.68" fill="black"/>
<ellipse cx="51.8444" cy="67.8794" rx="1.4" ry="2.52" fill="black"/>
<path d="M44.3063 78.2402C45.4045 82.4402 51.0045 81.8802 52.2507 78.3422" stroke="black" stroke-width="1.12" stroke-linecap="round"/>
<defs>
<filter id="filter0_d_2869_47767" x="0" y="0" width="100.889" height="41" filterUnits="userSpaceOnUse" color-interpolation-filters="sRGB">
<feFlood flood-opacity="0" result="BackgroundImageFix"/>
<feColorMatrix in="SourceAlpha" type="matrix" values="0 0 0 0 0 0 0 0 0 0 0 0 0 0 0 0 0 0 127 0" result="hardAlpha"/>
<feOffset/>
<feGaussianBlur stdDeviation="0.5"/>
<feComposite in2="hardAlpha" operator="out"/>
<feColorMatrix type="matrix" values="0 0 0 0 0 0 0 0 0 0 0 0 0 0 0 0 0 0 0.3 0"/>
<feBlend mode="normal" in2="BackgroundImageFix" result="effect1_dropShadow_2869_47767"/>
<feBlend mode="normal" in="SourceGraphic" in2="effect1_dropShadow_2869_47767" result="shape"/>
</filter>
</defs>
</svg>
