<svg width="20" height="18" viewBox="0 0 20 18" fill="none" xmlns="http://www.w3.org/2000/svg">
<path fill-rule="evenodd" clip-rule="evenodd" d="M9.70875 1.59917C7.57568 -0.533216 4.11784 -0.533007 1.98503 1.59981L1.59977 1.98506C-0.533257 4.11809 -0.533255 7.57641 1.59977 9.70943L8.57835 16.6879C9.3594 17.469 10.6257 17.469 11.4068 16.6879L18.3853 9.70939C20.5183 7.57637 20.5183 4.11805 18.3853 1.98502L18 1.59977C15.8671 -0.53321 12.4088 -0.533255 10.2758 1.59963C10.1194 1.75609 9.86521 1.75563 9.70875 1.59917ZM9.639 14.9202C9.83427 15.1154 10.1508 15.1154 10.3461 14.9201L16.9711 8.29518C18.3231 6.9432 18.3231 4.75121 16.9711 3.39924L16.5858 3.01398C15.2338 1.66201 13.0419 1.66201 11.6899 3.01398L11.4067 3.29714C10.6257 4.07819 9.35935 4.07819 8.5783 3.29715L8.29518 3.01402C6.9432 1.66204 4.75121 1.66204 3.39924 3.01402L3.01398 3.39928C1.66201 4.75125 1.66201 6.94323 3.01397 8.29521L9.639 14.9202Z" fill="black"/>
</svg>
