<svg width="20" height="20" viewBox="0 0 20 20" fill="none" xmlns="http://www.w3.org/2000/svg">
<path d="M18.3927 2.91276C20.5258 5.04578 20.5258 8.5041 18.3927 10.6371L11.4142 17.6156C10.6332 18.3967 9.36685 18.3967 8.5858 17.6157L1.60722 10.6372C-0.525809 8.50414 -0.525811 5.04582 1.60721 2.9128L1.99247 2.52754C4.1255 0.394515 7.58381 0.394518 9.71684 2.52754C9.8732 2.68391 10.1268 2.68387 10.2831 2.5275C12.4161 0.39448 15.8745 0.394477 18.0075 2.5275L18.3927 2.91276Z" fill="#F84C37"/>
<path fill-rule="evenodd" clip-rule="evenodd" d="M9.7162 2.5269C7.58312 0.394518 4.12528 0.394728 1.99247 2.52754L1.60721 2.9128C-0.525811 5.04582 -0.525809 8.50414 1.60722 10.6372L8.5858 17.6157C9.36685 18.3967 10.6332 18.3967 11.4142 17.6156L18.3927 10.6371C20.5258 8.5041 20.5258 5.04578 18.3927 2.91276L18.0075 2.5275C15.8745 0.394524 12.4163 0.39448 10.2833 2.52736C10.1268 2.68383 9.87266 2.68337 9.7162 2.5269ZM10 16.2014L16.9785 9.22291C18.3305 7.87094 18.3305 5.67895 16.9785 4.32697L16.5933 3.94171C15.2413 2.58974 13.0493 2.58974 11.6973 3.94172L9.99996 5.63909L8.30262 3.94176C6.95064 2.58978 4.75866 2.58978 3.40669 3.94175L3.02143 4.32701C1.66945 5.67898 1.66945 7.87097 3.02142 9.22294L10 16.2014Z" fill="#F84C37"/>
</svg>
