<svg width="92" height="98" viewBox="0 0 92 98" fill="none" xmlns="http://www.w3.org/2000/svg">
<g filter="url(#filter0_d_2846_47075)">
<rect x="1" y="1" width="90.2014" height="95.5761" rx="2.33682" fill="white"/>
</g>
<path d="M11.1301 38.369C11.1301 38.9064 11.0834 39.3738 10.9899 39.7711H9.23731C9.14383 39.3738 9.0971 38.9064 9.0971 38.369C9.0971 37.8081 9.14383 37.3408 9.23731 36.9669H10.9899C11.0834 37.3408 11.1301 37.8081 11.1301 38.369ZM9.23731 56.5962C9.33078 56.9701 9.37752 57.4375 9.37752 57.9983C9.37752 58.5358 9.33078 59.0031 9.23731 59.4004H7.48469C7.39122 59.0031 7.34448 58.5358 7.34448 57.9983C7.34448 57.4375 7.39122 56.9701 7.48469 56.5962H6.60838C6.51491 56.1989 6.46817 55.7316 6.46817 55.1941C6.46817 54.6333 6.51491 54.1659 6.60838 53.792H5.55681C5.46334 53.3948 5.4166 52.9274 5.4166 52.3899C5.4166 51.8291 5.46334 51.3617 5.55681 50.9878C5.46334 50.5906 5.4166 50.1232 5.4166 49.5857C5.4166 49.0249 5.46334 48.5575 5.55681 48.1836C5.46334 47.7864 5.4166 47.319 5.4166 46.7815C5.4166 46.2207 5.46334 45.7533 5.55681 45.3794H6.60838C6.51491 44.9822 6.46817 44.5148 6.46817 43.9773C6.46817 43.4165 6.51491 42.9491 6.60838 42.5753H7.48469C7.39122 42.178 7.34448 41.7106 7.34448 41.1732C7.34448 40.6123 7.39122 40.145 7.48469 39.7711H9.23731C9.33078 40.145 9.37752 40.6123 9.37752 41.1732C9.37752 41.7106 9.33078 42.178 9.23731 42.5753H8.361C8.45447 42.9491 8.50121 43.4165 8.50121 43.9773C8.50121 44.5148 8.45447 44.9822 8.361 45.3794C8.45447 45.7533 8.50121 46.2207 8.50121 46.7815C8.50121 47.319 8.45447 47.7864 8.361 48.1836C8.45447 48.5575 8.50121 49.0249 8.50121 49.5857C8.50121 50.1232 8.45447 50.5906 8.361 50.9878C8.45447 51.3617 8.50121 51.8291 8.50121 52.3899C8.50121 52.9274 8.45447 53.3948 8.361 53.792C8.45447 54.1659 8.50121 54.6333 8.50121 55.1941C8.50121 55.7316 8.45447 56.1989 8.361 56.5962H9.23731ZM10.9899 59.4004C11.0834 59.7743 11.1301 60.2416 11.1301 60.8025C11.1301 61.34 11.0834 61.8073 10.9899 62.2046H9.23731C9.14383 61.8073 9.0971 61.34 9.0971 60.8025C9.0971 60.2416 9.14383 59.7743 9.23731 59.4004H10.9899Z" fill="#D09FE4" fill-opacity="0.7"/>
<path d="M82.7301 36.9669C82.8235 37.3408 82.8703 37.8081 82.8703 38.369C82.8703 38.9064 82.8235 39.3738 82.7301 39.7711H80.9774C80.884 39.3738 80.8372 38.9064 80.8372 38.369C80.8372 37.8081 80.884 37.3408 80.9774 36.9669H82.7301ZM86.4106 48.1836C86.504 48.5575 86.5508 49.0249 86.5508 49.5857C86.5508 50.1232 86.504 50.5906 86.4106 50.9878C86.504 51.3617 86.5508 51.8291 86.5508 52.3899C86.5508 52.9274 86.504 53.3948 86.4106 53.792H85.359C85.4525 54.1659 85.4992 54.6333 85.4992 55.1941C85.4992 55.7316 85.4525 56.1989 85.359 56.5962H84.4827C84.5761 56.9701 84.6229 57.4375 84.6229 57.9983C84.6229 58.5358 84.5761 59.0031 84.4827 59.4004H82.7301C82.6366 59.0031 82.5898 58.5358 82.5898 57.9983C82.5898 57.4375 82.6366 56.9701 82.7301 56.5962H83.6064C83.5129 56.1989 83.4662 55.7316 83.4662 55.1941C83.4662 54.6333 83.5129 54.1659 83.6064 53.792C83.5129 53.3948 83.4662 52.9274 83.4662 52.3899C83.4662 51.8291 83.5129 51.3617 83.6064 50.9878C83.5129 50.5906 83.4662 50.1232 83.4662 49.5857C83.4662 49.0249 83.5129 48.5575 83.6064 48.1836C83.5129 47.7864 83.4662 47.319 83.4662 46.7815C83.4662 46.2207 83.5129 45.7533 83.6064 45.3794C83.5129 44.9822 83.4662 44.5148 83.4662 43.9773C83.4662 43.4165 83.5129 42.9491 83.6064 42.5753H82.7301C82.6366 42.178 82.5898 41.7106 82.5898 41.1732C82.5898 40.6123 82.6366 40.145 82.7301 39.7711H84.4827C84.5761 40.145 84.6229 40.6123 84.6229 41.1732C84.6229 41.7106 84.5761 42.178 84.4827 42.5753H85.359C85.4525 42.9491 85.4992 43.4165 85.4992 43.9773C85.4992 44.5148 85.4525 44.9822 85.359 45.3794H86.4106C86.504 45.7533 86.5508 46.2207 86.5508 46.7815C86.5508 47.319 86.504 47.7864 86.4106 48.1836ZM80.8372 60.8025C80.8372 60.2416 80.884 59.7743 80.9774 59.4004H82.7301C82.8235 59.7743 82.8703 60.2416 82.8703 60.8025C82.8703 61.34 82.8235 61.8073 82.7301 62.2046H80.9774C80.884 61.8073 80.8372 61.34 80.8372 60.8025Z" fill="#D09FE4" fill-opacity="0.7"/>
<path d="M13.2249 10.1065C13.2471 9.98714 13.2587 9.86395 13.2587 9.73798C13.2587 8.65515 12.4015 7.77734 11.344 7.77734C10.697 7.77734 10.1249 8.10597 9.7783 8.60912C9.44554 8.32308 9.01637 8.1508 8.54792 8.1508C7.50059 8.1508 6.64967 9.01183 6.63343 10.0803H6.63319C5.45822 10.0803 4.50574 11.0556 4.50574 12.2588C4.50574 13.462 5.45822 14.4373 6.63319 14.4373H12.894C14.069 14.4373 15.0214 13.462 15.0214 12.2588C15.0214 11.1709 14.2427 10.2693 13.2249 10.1065Z" fill="#BDE1E9" fill-opacity="0.6"/>
<path d="M86.5394 88.1064C86.5567 88.0134 86.5657 87.9175 86.5657 87.8194C86.5657 86.9764 85.8983 86.293 85.075 86.293C84.5713 86.293 84.1259 86.5488 83.8561 86.9406C83.597 86.7178 83.2629 86.5837 82.8981 86.5837C82.0827 86.5837 81.4203 87.2541 81.4076 88.0859H81.4074C80.4927 88.0859 79.7511 88.8453 79.7511 89.782C79.7511 90.7187 80.4927 91.4781 81.4074 91.4781H86.2818C87.1965 91.4781 87.9381 90.7187 87.9381 89.782C87.9381 88.935 87.3318 88.2331 86.5394 88.1064Z" fill="#F1BDCF" fill-opacity="0.6"/>
<g filter="url(#filter1_d_2846_47075)">
<circle cx="87.3454" cy="91.3172" r="1.05157" fill="#BDE1E9"/>
</g>
<g filter="url(#filter2_d_2846_47075)">
<circle cx="17.0076" cy="6.0241" r="1.75262" fill="#F7D7E2"/>
</g>
<defs>
<filter id="filter0_d_2846_47075" x="0.532635" y="0.532635" width="91.1361" height="96.5109" filterUnits="userSpaceOnUse" color-interpolation-filters="sRGB">
<feFlood flood-opacity="0" result="BackgroundImageFix"/>
<feColorMatrix in="SourceAlpha" type="matrix" values="0 0 0 0 0 0 0 0 0 0 0 0 0 0 0 0 0 0 127 0" result="hardAlpha"/>
<feOffset/>
<feGaussianBlur stdDeviation="0.233682"/>
<feComposite in2="hardAlpha" operator="out"/>
<feColorMatrix type="matrix" values="0 0 0 0 0 0 0 0 0 0 0 0 0 0 0 0 0 0 0.3 0"/>
<feBlend mode="normal" in2="BackgroundImageFix" result="effect1_dropShadow_2846_47075"/>
<feBlend mode="normal" in="SourceGraphic" in2="effect1_dropShadow_2846_47075" result="shape"/>
</filter>
<filter id="filter1_d_2846_47075" x="83.957" y="87.9288" width="6.7768" height="6.77716" filterUnits="userSpaceOnUse" color-interpolation-filters="sRGB">
<feFlood flood-opacity="0" result="BackgroundImageFix"/>
<feColorMatrix in="SourceAlpha" type="matrix" values="0 0 0 0 0 0 0 0 0 0 0 0 0 0 0 0 0 0 127 0" result="hardAlpha"/>
<feOffset/>
<feGaussianBlur stdDeviation="1.16841"/>
<feComposite in2="hardAlpha" operator="out"/>
<feColorMatrix type="matrix" values="0 0 0 0 1 0 0 0 0 1 0 0 0 0 1 0 0 0 1 0"/>
<feBlend mode="normal" in2="BackgroundImageFix" result="effect1_dropShadow_2846_47075"/>
<feBlend mode="normal" in="SourceGraphic" in2="effect1_dropShadow_2846_47075" result="shape"/>
</filter>
<filter id="filter2_d_2846_47075" x="12.9182" y="1.93466" width="8.1789" height="8.17951" filterUnits="userSpaceOnUse" color-interpolation-filters="sRGB">
<feFlood flood-opacity="0" result="BackgroundImageFix"/>
<feColorMatrix in="SourceAlpha" type="matrix" values="0 0 0 0 0 0 0 0 0 0 0 0 0 0 0 0 0 0 127 0" result="hardAlpha"/>
<feOffset/>
<feGaussianBlur stdDeviation="1.16841"/>
<feComposite in2="hardAlpha" operator="out"/>
<feColorMatrix type="matrix" values="0 0 0 0 1 0 0 0 0 1 0 0 0 0 1 0 0 0 1 0"/>
<feBlend mode="normal" in2="BackgroundImageFix" result="effect1_dropShadow_2846_47075"/>
<feBlend mode="normal" in="SourceGraphic" in2="effect1_dropShadow_2846_47075" result="shape"/>
</filter>
</defs>
</svg>
