<svg width="92" height="98" viewBox="0 0 92 98" fill="none" xmlns="http://www.w3.org/2000/svg">
<g filter="url(#filter0_d_2846_47047)">
<rect x="1" y="1" width="90.2014" height="95.5761" rx="2.33682" fill="white"/>
</g>
<path d="M82.4805 33.4732L83.0411 32.9126L84.2571 34.1306L84.807 33.5806L85.0288 33.8023L83.9192 34.9119L82.4805 33.4732Z" fill="#F1BDCF" fill-opacity="0.5"/>
<path d="M85.7752 33.1828C85.6774 33.2806 85.5769 33.352 85.4738 33.397C85.372 33.4432 85.2689 33.4551 85.1645 33.4327C85.06 33.4102 84.9549 33.3461 84.8492 33.2403C84.7434 33.1346 84.6575 33.0143 84.5914 32.8794C84.5253 32.742 84.4797 32.5985 84.4546 32.4492C84.4295 32.2998 84.4255 32.1504 84.4427 32.001C84.4612 31.8503 84.5009 31.7076 84.5617 31.5727C84.6225 31.4379 84.7058 31.3176 84.8115 31.2119C84.9292 31.0942 85.0448 31.0182 85.1585 30.9838C85.2722 30.9495 85.3806 30.9495 85.4837 30.9838C85.5868 31.0156 85.6807 31.0737 85.7653 31.1583C85.8776 31.2707 85.9682 31.4154 86.0369 31.5926C86.107 31.7737 86.1473 31.9594 86.1579 32.1498C86.1685 32.3401 86.1427 32.5245 86.0805 32.703C86.0197 32.8801 85.918 33.0401 85.7752 33.1828ZM85.8505 32.8973C85.9074 32.7982 85.9451 32.6825 85.9636 32.5503C85.9821 32.4181 85.9821 32.2819 85.9636 32.1418C85.9451 32.0017 85.91 31.8702 85.8585 31.7472C85.7805 31.5582 85.6827 31.4049 85.565 31.2872C85.5465 31.2687 85.5273 31.2522 85.5075 31.2376C85.489 31.2218 85.4705 31.2072 85.452 31.194C85.3568 31.1279 85.2663 31.1048 85.1803 31.1246C85.0944 31.1444 85.0184 31.1874 84.9523 31.2535C84.8836 31.3222 84.8274 31.4062 84.7838 31.5053C84.7388 31.6031 84.7104 31.6977 84.6985 31.7889C84.6853 31.9026 84.684 32.0189 84.6945 32.1379C84.7051 32.2568 84.7282 32.3712 84.7639 32.4809C84.7957 32.5761 84.8393 32.6712 84.8948 32.7664C84.9503 32.859 85.0131 32.9403 85.0832 33.0103C85.1466 33.0738 85.214 33.1227 85.2854 33.157C85.3568 33.1914 85.4302 33.204 85.5055 33.1947C85.5795 33.1841 85.6516 33.1438 85.7217 33.0738C85.7666 33.0288 85.8096 32.97 85.8505 32.8973Z" fill="#F84C37" fill-opacity="0.5"/>
<path d="M85.2292 30.7245L85.842 30.1116L87.1036 30.6993L86.4907 29.4629L86.7425 29.2092L87.6777 31.1534L87.2208 31.6084L85.2292 30.7245Z" fill="#D09FE4" fill-opacity="0.5"/>
<path d="M88.2374 30.4621C88.2167 30.4621 88.1967 30.4576 88.1773 30.4485C88.1593 30.4382 88.1373 30.4369 88.1115 30.4447C88.0895 30.4279 88.0637 30.4098 88.034 30.3904C88.0043 30.3685 87.974 30.3472 87.943 30.3265C87.912 30.3033 87.8824 30.2801 87.854 30.2568C87.8256 30.231 87.8023 30.2052 87.7842 30.1794C87.7752 30.1652 87.7681 30.1503 87.7629 30.1348C87.7591 30.118 87.7552 30.1026 87.7513 30.0884C87.7475 30.0716 87.7416 30.0567 87.7339 30.0438C87.7274 30.0296 87.7178 30.0186 87.7049 30.0109C87.7113 30.0019 87.712 29.9935 87.7068 29.9857C87.7016 29.9754 87.7055 29.9664 87.7184 29.9586C87.699 29.9212 87.6823 29.885 87.6681 29.8502C87.6539 29.8153 87.641 29.7805 87.6293 29.7456C87.6177 29.7108 87.6061 29.6759 87.5945 29.641C87.5829 29.6036 87.5674 29.5649 87.548 29.5249C87.5054 29.5262 87.4673 29.5203 87.4338 29.5074C87.4002 29.4919 87.3686 29.4745 87.3389 29.4552C87.3092 29.4358 87.2808 29.4151 87.2537 29.3932C87.2253 29.37 87.1943 29.3493 87.1607 29.3312C87.153 29.2925 87.153 29.2551 87.1607 29.2189C87.1672 29.1815 87.1788 29.1453 87.1956 29.1105C87.2124 29.073 87.2337 29.0363 87.2595 29.0001C87.284 28.9627 87.3098 28.9226 87.3369 28.88C87.3795 28.7987 87.4202 28.7284 87.4589 28.669C87.4964 28.6083 87.5351 28.5515 87.5751 28.4986C87.6138 28.4444 87.6558 28.3895 87.701 28.334C87.7449 28.2772 87.7939 28.2101 87.8481 28.1326C87.8533 28.1352 87.8572 28.1352 87.8598 28.1326C87.8636 28.1287 87.8682 28.1242 87.8733 28.119C87.8862 28.1242 87.8978 28.1216 87.9082 28.1113C87.9043 28.1074 87.9004 28.1048 87.8966 28.1036C87.8927 28.0997 87.8895 28.0965 87.8869 28.0939C87.8895 28.0913 87.8933 28.0887 87.8985 28.0861C87.9049 28.0823 87.9101 28.0797 87.914 28.0784C87.9191 28.0758 87.9224 28.0726 87.9237 28.0687C87.9237 28.0635 87.9198 28.0584 87.912 28.0532C87.9546 28.0648 87.9972 28.0674 88.0398 28.061C88.0812 28.0532 88.1231 28.0409 88.1657 28.0242C88.1786 28.0345 88.187 28.0429 88.1909 28.0493C88.1961 28.0545 88.2006 28.0603 88.2044 28.0668C88.207 28.0719 88.2115 28.0777 88.218 28.0842C88.2232 28.0894 88.2322 28.0958 88.2451 28.1036C88.2593 28.1591 88.2625 28.2101 88.2548 28.2565C88.2483 28.3017 88.2354 28.3443 88.2161 28.3843C88.1967 28.4244 88.1728 28.4637 88.1444 28.5025C88.1173 28.5399 88.0895 28.5793 88.0611 28.6206C88.0327 28.6593 88.0063 28.7013 87.9818 28.7464C87.9572 28.7916 87.9385 28.8413 87.9256 28.8955C87.9114 28.902 87.9004 28.9104 87.8927 28.9207C87.8849 28.9285 87.8778 28.9381 87.8714 28.9498C87.8649 28.9614 87.8572 28.9743 87.8481 28.9885C87.8404 29.0014 87.8275 29.0143 87.8094 29.0272C87.8081 29.0466 87.8023 29.0653 87.792 29.0834C87.783 29.1002 87.7733 29.1176 87.7629 29.1357C87.7836 29.1434 87.8004 29.155 87.8133 29.1705C87.8275 29.1847 87.8417 29.195 87.8559 29.2015C87.9153 29.1524 87.9753 29.0924 88.036 29.0214C88.0954 28.9491 88.1554 28.88 88.2161 28.8142C88.2238 28.8194 88.2277 28.8245 88.2277 28.8297C88.2277 28.8349 88.2309 28.8407 88.2374 28.8471C88.2567 28.8433 88.2774 28.842 88.2993 28.8433C88.3213 28.8445 88.3432 28.8458 88.3652 28.8471C88.3871 28.8458 88.4078 28.8433 88.4271 28.8394C88.4452 28.8342 88.4613 28.8232 88.4755 28.8065C88.4949 28.8129 88.513 28.822 88.5298 28.8336C88.5465 28.8452 88.5594 28.862 88.5685 28.8839C88.5594 28.9265 88.5517 28.9691 88.5452 29.0117C88.5375 29.053 88.5272 29.0943 88.5143 29.1357C88.5026 29.1757 88.4859 29.2157 88.4639 29.2557C88.442 29.2957 88.4123 29.3332 88.3748 29.368C88.3684 29.3745 88.3626 29.3803 88.3574 29.3854C88.3535 29.3893 88.3458 29.3919 88.3342 29.3932C88.3277 29.4126 88.3129 29.4326 88.2896 29.4532C88.2664 29.4713 88.2509 29.4907 88.2432 29.5113C88.2186 29.5229 88.1941 29.541 88.1696 29.5655C88.1464 29.5888 88.1225 29.6062 88.0979 29.6178C88.1083 29.6746 88.1218 29.7321 88.1386 29.7902C88.1541 29.847 88.1748 29.9038 88.2006 29.9606C88.2612 29.9154 88.3084 29.8747 88.3419 29.8386C88.3755 29.8024 88.4058 29.7669 88.4329 29.7321C88.46 29.6972 88.4878 29.6617 88.5162 29.6256C88.5459 29.5881 88.5853 29.5462 88.6343 29.4997C88.6511 29.4519 88.6776 29.4048 88.7137 29.3583C88.7499 29.3093 88.7802 29.2609 88.8047 29.2131C88.8215 29.2041 88.8402 29.2008 88.8609 29.2034C88.8802 29.2047 88.8996 29.2073 88.919 29.2112C88.9383 29.2125 88.9564 29.2125 88.9732 29.2112C88.99 29.2099 89.0042 29.2008 89.0158 29.1841C89.0287 29.1841 89.0403 29.1879 89.0506 29.1957C89.0623 29.2021 89.0726 29.2086 89.0816 29.215C89.092 29.2202 89.1016 29.2234 89.1107 29.2247C89.1184 29.2247 89.1268 29.2189 89.1358 29.2073C89.1617 29.2822 89.1726 29.3487 89.1688 29.4067C89.1662 29.4635 89.1533 29.5191 89.13 29.5733C89.1068 29.6249 89.0752 29.6785 89.0352 29.734C88.9951 29.7869 88.9512 29.8476 88.9035 29.916C88.8919 29.9328 88.8796 29.9451 88.8667 29.9528C88.8538 29.958 88.8422 29.9657 88.8318 29.976C88.8021 30.0186 88.7653 30.0683 88.7215 30.1251C88.6789 30.1807 88.6317 30.2329 88.5801 30.282C88.5285 30.331 88.4736 30.373 88.4155 30.4079C88.3574 30.4427 88.298 30.4608 88.2374 30.4621Z" fill="#FFA16B" fill-opacity="0.5"/>
<path d="M84.0174 16.5833L84.578 17.1438L83.36 18.3599L83.91 18.9098L83.6883 19.1315L82.5787 18.022L84.0174 16.5833Z" fill="#F1BDCF" fill-opacity="0.5"/>
<path d="M84.3078 19.878C84.21 19.7802 84.1386 19.6797 84.0936 19.5766C84.0474 19.4748 84.0355 19.3717 84.0579 19.2673C84.0804 19.1628 84.1445 19.0577 84.2503 18.952C84.356 18.8462 84.4763 18.7603 84.6112 18.6942C84.7486 18.6281 84.8921 18.5825 85.0414 18.5574C85.1908 18.5323 85.3402 18.5283 85.4896 18.5455C85.6403 18.564 85.783 18.6037 85.9179 18.6645C86.0527 18.7253 86.173 18.8085 86.2787 18.9143C86.3964 19.032 86.4724 19.1476 86.5068 19.2613C86.5411 19.375 86.5411 19.4834 86.5068 19.5865C86.475 19.6896 86.4169 19.7835 86.3323 19.8681C86.2199 19.9804 86.0752 20.071 85.898 20.1397C85.7169 20.2098 85.5312 20.2501 85.3408 20.2607C85.1505 20.2712 84.9661 20.2455 84.7876 20.1833C84.6105 20.1225 84.4505 20.0207 84.3078 19.878ZM84.5933 19.9533C84.6924 20.0102 84.8081 20.0478 84.9403 20.0663C85.0725 20.0849 85.2087 20.0849 85.3488 20.0663C85.4889 20.0478 85.6204 20.0128 85.7434 19.9613C85.9324 19.8833 86.0857 19.7854 86.2034 19.6678C86.2219 19.6493 86.2384 19.6301 86.253 19.6103C86.2688 19.5918 86.2834 19.5733 86.2966 19.5548C86.3627 19.4596 86.3858 19.369 86.366 19.2831C86.3462 19.1972 86.3032 19.1212 86.2371 19.0551C86.1684 18.9863 86.0844 18.9302 85.9853 18.8865C85.8875 18.8416 85.7929 18.8132 85.7017 18.8013C85.588 18.7881 85.4717 18.7867 85.3527 18.7973C85.2338 18.8079 85.1194 18.831 85.0097 18.8667C84.9145 18.8984 84.8194 18.9421 84.7242 18.9976C84.6316 19.0531 84.5503 19.1159 84.4803 19.186C84.4168 19.2494 84.3679 19.3168 84.3336 19.3882C84.2992 19.4596 84.2866 19.533 84.2959 19.6083C84.3065 19.6823 84.3468 19.7544 84.4168 19.8244C84.4618 19.8694 84.5206 19.9123 84.5933 19.9533Z" fill="#F84C37" fill-opacity="0.5"/>
<path d="M86.7661 19.332L87.379 19.9448L86.7913 21.2064L88.0277 20.5935L88.2814 20.8453L86.3372 21.7805L85.8822 21.3235L86.7661 19.332Z" fill="#D09FE4" fill-opacity="0.5"/>
<path d="M87.0285 22.3401C87.0285 22.3195 87.033 22.2995 87.0421 22.2801C87.0524 22.262 87.0537 22.2401 87.046 22.2143C87.0627 22.1923 87.0808 22.1665 87.1002 22.1368C87.1221 22.1071 87.1434 22.0768 87.1641 22.0458C87.1873 22.0148 87.2105 21.9851 87.2338 21.9567C87.2596 21.9283 87.2854 21.9051 87.3112 21.887C87.3254 21.878 87.3403 21.8709 87.3558 21.8657C87.3726 21.8619 87.388 21.858 87.4022 21.8541C87.419 21.8502 87.4339 21.8444 87.4468 21.8367C87.461 21.8302 87.472 21.8205 87.4797 21.8076C87.4887 21.8141 87.4971 21.8147 87.5049 21.8096C87.5152 21.8044 87.5242 21.8083 87.532 21.8212C87.5694 21.8018 87.6056 21.785 87.6404 21.7708C87.6753 21.7566 87.7101 21.7437 87.745 21.7321C87.7798 21.7205 87.8147 21.7089 87.8496 21.6973C87.887 21.6856 87.9257 21.6702 87.9657 21.6508C87.9644 21.6082 87.9703 21.5701 87.9832 21.5365C87.9987 21.503 88.0161 21.4714 88.0354 21.4417C88.0548 21.412 88.0755 21.3836 88.0974 21.3565C88.1206 21.3281 88.1413 21.2971 88.1594 21.2635C88.1981 21.2558 88.2355 21.2558 88.2717 21.2635C88.3091 21.27 88.3453 21.2816 88.3801 21.2984C88.4176 21.3151 88.4544 21.3364 88.4905 21.3623C88.5279 21.3868 88.568 21.4126 88.6106 21.4397C88.6919 21.4823 88.7622 21.523 88.8216 21.5617C88.8823 21.5992 88.9391 21.6379 88.992 21.6779C89.0462 21.7166 89.1011 21.7586 89.1566 21.8038C89.2134 21.8477 89.2805 21.8967 89.358 21.9509C89.3554 21.9561 89.3554 21.96 89.358 21.9625C89.3619 21.9664 89.3664 21.9709 89.3716 21.9761C89.3664 21.989 89.369 22.0006 89.3793 22.011C89.3832 22.0071 89.3858 22.0032 89.387 21.9993C89.3909 21.9955 89.3941 21.9922 89.3967 21.9897C89.3993 21.9922 89.4019 21.9961 89.4045 22.0013C89.4083 22.0077 89.4109 22.0129 89.4122 22.0168C89.4148 22.0219 89.418 22.0252 89.4219 22.0264C89.4271 22.0264 89.4322 22.0226 89.4374 22.0148C89.4258 22.0574 89.4232 22.1 89.4296 22.1426C89.4374 22.1839 89.4497 22.2259 89.4664 22.2685C89.4561 22.2814 89.4477 22.2898 89.4413 22.2937C89.4361 22.2988 89.4303 22.3034 89.4238 22.3072C89.4187 22.3098 89.4129 22.3143 89.4064 22.3208C89.4012 22.3259 89.3948 22.335 89.387 22.3479C89.3315 22.3621 89.2805 22.3653 89.2341 22.3576C89.1889 22.3511 89.1463 22.3382 89.1063 22.3188C89.0662 22.2995 89.0269 22.2756 88.9881 22.2472C88.9507 22.2201 88.9113 22.1923 88.87 22.1639C88.8313 22.1355 88.7893 22.1091 88.7442 22.0845C88.699 22.06 88.6493 22.0413 88.5951 22.0284C88.5886 22.0142 88.5802 22.0032 88.5699 21.9955C88.5621 21.9877 88.5525 21.9806 88.5408 21.9742C88.5292 21.9677 88.5163 21.96 88.5021 21.9509C88.4892 21.9432 88.4763 21.9303 88.4634 21.9122C88.444 21.9109 88.4253 21.9051 88.4072 21.8948C88.3904 21.8857 88.373 21.8761 88.3549 21.8657C88.3472 21.8864 88.3356 21.9032 88.3201 21.9161C88.3059 21.9303 88.2956 21.9445 88.2891 21.9587C88.3382 22.0181 88.3982 22.0781 88.4692 22.1388C88.5415 22.1981 88.6106 22.2582 88.6764 22.3188C88.6712 22.3266 88.6661 22.3305 88.6609 22.3305C88.6557 22.3305 88.6499 22.3337 88.6435 22.3401C88.6473 22.3595 88.6486 22.3802 88.6473 22.4021C88.6461 22.4241 88.6448 22.446 88.6435 22.4679C88.6448 22.4899 88.6473 22.5105 88.6512 22.5299C88.6564 22.548 88.6674 22.5641 88.6841 22.5783C88.6777 22.5977 88.6686 22.6158 88.657 22.6325C88.6454 22.6493 88.6286 22.6622 88.6067 22.6713C88.5641 22.6622 88.5215 22.6545 88.4789 22.648C88.4376 22.6403 88.3963 22.63 88.3549 22.617C88.3149 22.6054 88.2749 22.5886 88.2349 22.5667C88.1949 22.5448 88.1574 22.5151 88.1226 22.4776C88.1161 22.4712 88.1103 22.4654 88.1052 22.4602C88.1013 22.4563 88.0987 22.4486 88.0974 22.437C88.078 22.4305 88.058 22.4157 88.0374 22.3924C88.0193 22.3692 87.9999 22.3537 87.9793 22.346C87.9677 22.3214 87.9496 22.2969 87.9251 22.2724C87.9018 22.2491 87.8844 22.2253 87.8728 22.2007C87.816 22.2111 87.7585 22.2246 87.7004 22.2414C87.6436 22.2569 87.5868 22.2775 87.53 22.3034C87.5752 22.364 87.6159 22.4111 87.652 22.4447C87.6882 22.4783 87.7237 22.5086 87.7585 22.5357C87.7934 22.5628 87.8289 22.5906 87.865 22.619C87.9025 22.6487 87.9444 22.688 87.9909 22.7371C88.0387 22.7539 88.0858 22.7803 88.1323 22.8165C88.1813 22.8526 88.2297 22.883 88.2775 22.9075C88.2865 22.9243 88.2898 22.943 88.2872 22.9637C88.2859 22.983 88.2833 23.0024 88.2794 23.0218C88.2781 23.0411 88.2781 23.0592 88.2794 23.076C88.2807 23.0928 88.2898 23.107 88.3065 23.1186C88.3065 23.1315 88.3027 23.1431 88.2949 23.1534C88.2885 23.165 88.282 23.1754 88.2756 23.1844C88.2704 23.1947 88.2672 23.2044 88.2659 23.2135C88.2659 23.2212 88.2717 23.2296 88.2833 23.2386C88.2084 23.2644 88.1419 23.2754 88.0839 23.2715C88.0271 23.269 87.9715 23.2561 87.9173 23.2328C87.8657 23.2096 87.8121 23.178 87.7566 23.1379C87.7037 23.0979 87.643 23.054 87.5746 23.0063C87.5578 22.9946 87.5455 22.9824 87.5378 22.9695C87.5326 22.9566 87.5249 22.9449 87.5146 22.9346C87.472 22.9049 87.4223 22.8681 87.3655 22.8242C87.3099 22.7816 87.2577 22.7345 87.2086 22.6829C87.1596 22.6312 87.1176 22.5764 87.0827 22.5183C87.0479 22.4602 87.0298 22.4008 87.0285 22.3401Z" fill="#FFA16B" fill-opacity="0.5"/>
<path d="M82.4805 56.4282L83.0411 55.8677L84.2571 57.0856L84.807 56.5357L85.0288 56.7574L83.9192 57.867L82.4805 56.4282Z" fill="#F1BDCF" fill-opacity="0.5"/>
<path d="M85.7752 56.1379C85.6774 56.2357 85.5769 56.3071 85.4738 56.3521C85.372 56.3983 85.2689 56.4102 85.1645 56.3877C85.06 56.3653 84.9549 56.3012 84.8492 56.1954C84.7434 56.0897 84.6575 55.9694 84.5914 55.8345C84.5253 55.697 84.4797 55.5536 84.4546 55.4042C84.4295 55.2549 84.4255 55.1055 84.4427 54.9561C84.4612 54.8054 84.5009 54.6627 84.5617 54.5278C84.6225 54.393 84.7058 54.2727 84.8115 54.1669C84.9292 54.0493 85.0448 53.9733 85.1585 53.9389C85.2722 53.9045 85.3806 53.9045 85.4837 53.9389C85.5868 53.9706 85.6807 54.0288 85.7653 54.1134C85.8776 54.2258 85.9682 54.3705 86.0369 54.5476C86.107 54.7288 86.1473 54.9145 86.1579 55.1048C86.1685 55.2952 86.1427 55.4796 86.0805 55.6581C86.0197 55.8352 85.918 55.9951 85.7752 56.1379ZM85.8505 55.8524C85.9074 55.7532 85.9451 55.6376 85.9636 55.5054C85.9821 55.3732 85.9821 55.237 85.9636 55.0969C85.9451 54.9568 85.91 54.8253 85.8585 54.7023C85.7805 54.5133 85.6827 54.3599 85.565 54.2423C85.5465 54.2238 85.5273 54.2073 85.5075 54.1927C85.489 54.1769 85.4705 54.1623 85.452 54.1491C85.3568 54.083 85.2663 54.0599 85.1803 54.0797C85.0944 54.0995 85.0184 54.1425 84.9523 54.2086C84.8836 54.2773 84.8274 54.3613 84.7838 54.4604C84.7388 54.5582 84.7104 54.6527 84.6985 54.744C84.6853 54.8576 84.684 54.974 84.6945 55.0929C84.7051 55.2119 84.7282 55.3263 84.7639 55.436C84.7957 55.5311 84.8393 55.6263 84.8948 55.7215C84.9503 55.814 85.0131 55.8953 85.0832 55.9654C85.1466 56.0288 85.214 56.0778 85.2854 56.1121C85.3568 56.1465 85.4302 56.1591 85.5055 56.1498C85.5795 56.1392 85.6516 56.0989 85.7217 56.0288C85.7666 55.9839 85.8096 55.9251 85.8505 55.8524Z" fill="#F84C37" fill-opacity="0.5"/>
<path d="M85.2292 53.6795L85.842 53.0667L87.1036 53.6544L86.4907 52.418L86.7425 52.1643L87.6777 54.1084L87.2208 54.5635L85.2292 53.6795Z" fill="#D09FE4" fill-opacity="0.5"/>
<path d="M88.2374 53.4172C88.2167 53.4172 88.1967 53.4126 88.1773 53.4036C88.1593 53.3933 88.1373 53.392 88.1115 53.3997C88.0895 53.3829 88.0637 53.3649 88.034 53.3455C88.0043 53.3236 87.974 53.3023 87.943 53.2816C87.912 53.2584 87.8824 53.2351 87.854 53.2119C87.8256 53.1861 87.8023 53.1603 87.7842 53.1344C87.7752 53.1202 87.7681 53.1054 87.7629 53.0899C87.7591 53.0731 87.7552 53.0576 87.7513 53.0434C87.7475 53.0267 87.7416 53.0118 87.7339 52.9989C87.7274 52.9847 87.7178 52.9737 87.7049 52.966C87.7113 52.9569 87.712 52.9485 87.7068 52.9408C87.7016 52.9305 87.7055 52.9214 87.7184 52.9137C87.699 52.8763 87.6823 52.8401 87.6681 52.8053C87.6539 52.7704 87.641 52.7355 87.6293 52.7007C87.6177 52.6658 87.6061 52.631 87.5945 52.5961C87.5829 52.5587 87.5674 52.52 87.548 52.4799C87.5054 52.4812 87.4673 52.4754 87.4338 52.4625C87.4002 52.447 87.3686 52.4296 87.3389 52.4102C87.3092 52.3909 87.2808 52.3702 87.2537 52.3483C87.2253 52.325 87.1943 52.3044 87.1607 52.2863C87.153 52.2476 87.153 52.2101 87.1607 52.174C87.1672 52.1366 87.1788 52.1004 87.1956 52.0656C87.2124 52.0281 87.2337 51.9913 87.2595 51.9552C87.284 51.9177 87.3098 51.8777 87.3369 51.8351C87.3795 51.7538 87.4202 51.6834 87.4589 51.6241C87.4964 51.5634 87.5351 51.5066 87.5751 51.4537C87.6138 51.3994 87.6558 51.3446 87.701 51.2891C87.7449 51.2323 87.7939 51.1651 87.8481 51.0877C87.8533 51.0903 87.8572 51.0903 87.8598 51.0877C87.8636 51.0838 87.8682 51.0793 87.8733 51.0741C87.8862 51.0793 87.8978 51.0767 87.9082 51.0664C87.9043 51.0625 87.9004 51.0599 87.8966 51.0586C87.8927 51.0548 87.8895 51.0515 87.8869 51.049C87.8895 51.0464 87.8933 51.0438 87.8985 51.0412C87.9049 51.0373 87.9101 51.0348 87.914 51.0335C87.9191 51.0309 87.9224 51.0277 87.9237 51.0238C87.9237 51.0186 87.9198 51.0135 87.912 51.0083C87.9546 51.0199 87.9972 51.0225 88.0398 51.016C88.0812 51.0083 88.1231 50.996 88.1657 50.9792C88.1786 50.9896 88.187 50.998 88.1909 51.0044C88.1961 51.0096 88.2006 51.0154 88.2044 51.0218C88.207 51.027 88.2115 51.0328 88.218 51.0393C88.2232 51.0444 88.2322 51.0509 88.2451 51.0586C88.2593 51.1141 88.2625 51.1651 88.2548 51.2116C88.2483 51.2568 88.2354 51.2994 88.2161 51.3394C88.1967 51.3794 88.1728 51.4188 88.1444 51.4575C88.1173 51.495 88.0895 51.5343 88.0611 51.5757C88.0327 51.6144 88.0063 51.6563 87.9818 51.7015C87.9572 51.7467 87.9385 51.7964 87.9256 51.8506C87.9114 51.8571 87.9004 51.8655 87.8927 51.8758C87.8849 51.8835 87.8778 51.8932 87.8714 51.9048C87.8649 51.9165 87.8572 51.9294 87.8481 51.9436C87.8404 51.9565 87.8275 51.9694 87.8094 51.9823C87.8081 52.0017 87.8023 52.0204 87.792 52.0384C87.783 52.0552 87.7733 52.0727 87.7629 52.0907C87.7836 52.0985 87.8004 52.1101 87.8133 52.1256C87.8275 52.1398 87.8417 52.1501 87.8559 52.1566C87.9153 52.1075 87.9753 52.0475 88.036 51.9765C88.0954 51.9042 88.1554 51.8351 88.2161 51.7693C88.2238 51.7745 88.2277 51.7796 88.2277 51.7848C88.2277 51.7899 88.2309 51.7958 88.2374 51.8022C88.2567 51.7983 88.2774 51.797 88.2993 51.7983C88.3213 51.7996 88.3432 51.8009 88.3652 51.8022C88.3871 51.8009 88.4078 51.7983 88.4271 51.7945C88.4452 51.7893 88.4613 51.7783 88.4755 51.7615C88.4949 51.768 88.513 51.777 88.5298 51.7887C88.5465 51.8003 88.5594 51.8171 88.5685 51.839C88.5594 51.8816 88.5517 51.9242 88.5452 51.9668C88.5375 52.0081 88.5272 52.0494 88.5143 52.0907C88.5026 52.1307 88.4859 52.1708 88.4639 52.2108C88.442 52.2508 88.4123 52.2882 88.3748 52.3231C88.3684 52.3296 88.3626 52.3354 88.3574 52.3405C88.3535 52.3444 88.3458 52.347 88.3342 52.3483C88.3277 52.3676 88.3129 52.3876 88.2896 52.4083C88.2664 52.4264 88.2509 52.4457 88.2432 52.4664C88.2186 52.478 88.1941 52.4961 88.1696 52.5206C88.1464 52.5438 88.1225 52.5613 88.0979 52.5729C88.1083 52.6297 88.1218 52.6871 88.1386 52.7452C88.1541 52.802 88.1748 52.8588 88.2006 52.9156C88.2612 52.8704 88.3084 52.8298 88.3419 52.7936C88.3755 52.7575 88.4058 52.722 88.4329 52.6871C88.46 52.6523 88.4878 52.6168 88.5162 52.5806C88.5459 52.5432 88.5853 52.5012 88.6343 52.4548C88.6511 52.407 88.6776 52.3599 88.7137 52.3134C88.7499 52.2644 88.7802 52.2159 88.8047 52.1682C88.8215 52.1591 88.8402 52.1559 88.8609 52.1585C88.8802 52.1598 88.8996 52.1624 88.919 52.1662C88.9383 52.1675 88.9564 52.1675 88.9732 52.1662C88.99 52.165 89.0042 52.1559 89.0158 52.1391C89.0287 52.1391 89.0403 52.143 89.0506 52.1508C89.0623 52.1572 89.0726 52.1637 89.0816 52.1701C89.092 52.1753 89.1016 52.1785 89.1107 52.1798C89.1184 52.1798 89.1268 52.174 89.1358 52.1624C89.1617 52.2372 89.1726 52.3037 89.1688 52.3618C89.1662 52.4186 89.1533 52.4741 89.13 52.5284C89.1068 52.58 89.0752 52.6336 89.0352 52.6891C88.9951 52.742 88.9512 52.8027 88.9035 52.8711C88.8919 52.8879 88.8796 52.9001 88.8667 52.9079C88.8538 52.913 88.8422 52.9208 88.8318 52.9311C88.8021 52.9737 88.7653 53.0234 88.7215 53.0802C88.6789 53.1357 88.6317 53.188 88.5801 53.2371C88.5285 53.2861 88.4736 53.3281 88.4155 53.3629C88.3574 53.3978 88.298 53.4159 88.2374 53.4172Z" fill="#FFA16B" fill-opacity="0.5"/>
<path d="M84.0174 39.5364L84.578 40.097L83.36 41.313L83.91 41.863L83.6883 42.0847L82.5787 40.9751L84.0174 39.5364Z" fill="#F1BDCF" fill-opacity="0.5"/>
<path d="M84.3078 42.8311C84.21 42.7333 84.1386 42.6328 84.0936 42.5297C84.0474 42.4279 84.0355 42.3248 84.0579 42.2204C84.0804 42.1159 84.1445 42.0109 84.2503 41.9051C84.356 41.7993 84.4763 41.7134 84.6112 41.6473C84.7486 41.5812 84.8921 41.5356 85.0414 41.5105C85.1908 41.4854 85.3402 41.4814 85.4896 41.4986C85.6403 41.5171 85.783 41.5568 85.9179 41.6176C86.0527 41.6784 86.173 41.7617 86.2787 41.8674C86.3964 41.9851 86.4724 42.1007 86.5068 42.2144C86.5411 42.3281 86.5411 42.4365 86.5068 42.5396C86.475 42.6427 86.4169 42.7366 86.3323 42.8212C86.2199 42.9335 86.0752 43.0241 85.898 43.0928C85.7169 43.1629 85.5312 43.2032 85.3408 43.2138C85.1505 43.2244 84.9661 43.1986 84.7876 43.1365C84.6105 43.0757 84.4505 42.9739 84.3078 42.8311ZM84.5933 42.9064C84.6924 42.9633 84.8081 43.001 84.9403 43.0195C85.0725 43.038 85.2087 43.038 85.3488 43.0195C85.4889 43.001 85.6204 42.9659 85.7434 42.9144C85.9324 42.8364 86.0857 42.7386 86.2034 42.6209C86.2219 42.6024 86.2384 42.5832 86.253 42.5634C86.2688 42.5449 86.2834 42.5264 86.2966 42.5079C86.3627 42.4127 86.3858 42.3222 86.366 42.2362C86.3462 42.1503 86.3032 42.0743 86.2371 42.0082C86.1684 41.9395 86.0844 41.8833 85.9853 41.8397C85.8875 41.7947 85.7929 41.7663 85.7017 41.7544C85.588 41.7412 85.4717 41.7399 85.3527 41.7504C85.2338 41.761 85.1194 41.7841 85.0097 41.8198C84.9145 41.8516 84.8194 41.8952 84.7242 41.9507C84.6316 42.0062 84.5503 42.069 84.4803 42.1391C84.4168 42.2025 84.3679 42.2699 84.3336 42.3413C84.2992 42.4127 84.2866 42.4861 84.2959 42.5614C84.3065 42.6355 84.3468 42.7075 84.4168 42.7776C84.4618 42.8225 84.5206 42.8655 84.5933 42.9064Z" fill="#F84C37" fill-opacity="0.5"/>
<path d="M86.7661 42.2851L87.379 42.898L86.7913 44.1595L88.0277 43.5466L88.2814 43.7984L86.3372 44.7337L85.8822 44.2767L86.7661 42.2851Z" fill="#D09FE4" fill-opacity="0.5"/>
<path d="M87.0285 45.2933C87.0285 45.2726 87.033 45.2526 87.0421 45.2332C87.0524 45.2152 87.0537 45.1932 87.046 45.1674C87.0627 45.1455 87.0808 45.1196 87.1002 45.0899C87.1221 45.0603 87.1434 45.0299 87.1641 44.9989C87.1873 44.968 87.2105 44.9383 87.2338 44.9099C87.2596 44.8815 87.2854 44.8582 87.3112 44.8402C87.3254 44.8311 87.3403 44.824 87.3558 44.8189C87.3726 44.815 87.388 44.8111 87.4022 44.8072C87.419 44.8034 87.4339 44.7976 87.4468 44.7898C87.461 44.7834 87.472 44.7737 87.4797 44.7608C87.4887 44.7672 87.4971 44.7679 87.5049 44.7627C87.5152 44.7575 87.5242 44.7614 87.532 44.7743C87.5694 44.755 87.6056 44.7382 87.6404 44.724C87.6753 44.7098 87.7101 44.6969 87.745 44.6852C87.7798 44.6736 87.8147 44.662 87.8496 44.6504C87.887 44.6388 87.9257 44.6233 87.9657 44.6039C87.9644 44.5613 87.9703 44.5232 87.9832 44.4897C87.9987 44.4561 88.0161 44.4245 88.0354 44.3948C88.0548 44.3651 88.0755 44.3367 88.0974 44.3096C88.1206 44.2812 88.1413 44.2502 88.1594 44.2166C88.1981 44.2089 88.2355 44.2089 88.2717 44.2166C88.3091 44.2231 88.3453 44.2347 88.3801 44.2515C88.4176 44.2683 88.4544 44.2896 88.4905 44.3154C88.5279 44.3399 88.568 44.3657 88.6106 44.3928C88.6919 44.4354 88.7622 44.4761 88.8216 44.5148C88.8823 44.5523 88.9391 44.591 88.992 44.631C89.0462 44.6698 89.1011 44.7117 89.1566 44.7569C89.2134 44.8008 89.2805 44.8498 89.358 44.9041C89.3554 44.9092 89.3554 44.9131 89.358 44.9157C89.3619 44.9195 89.3664 44.9241 89.3716 44.9292C89.3664 44.9421 89.369 44.9538 89.3793 44.9641C89.3832 44.9602 89.3858 44.9563 89.387 44.9525C89.3909 44.9486 89.3941 44.9454 89.3967 44.9428C89.3993 44.9454 89.4019 44.9492 89.4045 44.9544C89.4083 44.9609 89.4109 44.966 89.4122 44.9699C89.4148 44.9751 89.418 44.9783 89.4219 44.9796C89.4271 44.9796 89.4322 44.9757 89.4374 44.968C89.4258 45.0106 89.4232 45.0532 89.4296 45.0958C89.4374 45.1371 89.4497 45.179 89.4664 45.2216C89.4561 45.2345 89.4477 45.2429 89.4413 45.2468C89.4361 45.252 89.4303 45.2565 89.4238 45.2604C89.4187 45.2629 89.4129 45.2675 89.4064 45.2739C89.4012 45.2791 89.3948 45.2881 89.387 45.301C89.3315 45.3152 89.2805 45.3184 89.2341 45.3107C89.1889 45.3042 89.1463 45.2913 89.1063 45.272C89.0662 45.2526 89.0269 45.2287 88.9881 45.2003C88.9507 45.1732 88.9113 45.1455 88.87 45.1171C88.8313 45.0887 88.7893 45.0622 88.7442 45.0377C88.699 45.0131 88.6493 44.9944 88.5951 44.9815C88.5886 44.9673 88.5802 44.9563 88.5699 44.9486C88.5621 44.9408 88.5525 44.9337 88.5408 44.9273C88.5292 44.9208 88.5163 44.9131 88.5021 44.9041C88.4892 44.8963 88.4763 44.8834 88.4634 44.8653C88.444 44.864 88.4253 44.8582 88.4072 44.8479C88.3904 44.8389 88.373 44.8292 88.3549 44.8189C88.3472 44.8395 88.3356 44.8563 88.3201 44.8692C88.3059 44.8834 88.2956 44.8976 88.2891 44.9118C88.3382 44.9712 88.3982 45.0312 88.4692 45.0919C88.5415 45.1513 88.6106 45.2113 88.6764 45.272C88.6712 45.2797 88.6661 45.2836 88.6609 45.2836C88.6557 45.2836 88.6499 45.2868 88.6435 45.2933C88.6473 45.3126 88.6486 45.3333 88.6473 45.3552C88.6461 45.3772 88.6448 45.3991 88.6435 45.4211C88.6448 45.443 88.6473 45.4637 88.6512 45.483C88.6564 45.5011 88.6674 45.5172 88.6841 45.5314C88.6777 45.5508 88.6686 45.5689 88.657 45.5857C88.6454 45.6024 88.6286 45.6154 88.6067 45.6244C88.5641 45.6154 88.5215 45.6076 88.4789 45.6012C88.4376 45.5934 88.3963 45.5831 88.3549 45.5702C88.3149 45.5586 88.2749 45.5418 88.2349 45.5198C88.1949 45.4979 88.1574 45.4682 88.1226 45.4308C88.1161 45.4243 88.1103 45.4185 88.1052 45.4133C88.1013 45.4095 88.0987 45.4017 88.0974 45.3901C88.078 45.3836 88.058 45.3688 88.0374 45.3456C88.0193 45.3223 87.9999 45.3068 87.9793 45.2991C87.9677 45.2746 87.9496 45.25 87.9251 45.2255C87.9018 45.2023 87.8844 45.1784 87.8728 45.1538C87.816 45.1642 87.7585 45.1777 87.7004 45.1945C87.6436 45.21 87.5868 45.2307 87.53 45.2565C87.5752 45.3172 87.6159 45.3643 87.652 45.3978C87.6882 45.4314 87.7237 45.4617 87.7585 45.4888C87.7934 45.516 87.8289 45.5437 87.865 45.5721C87.9025 45.6018 87.9444 45.6412 87.9909 45.6902C88.0387 45.707 88.0858 45.7335 88.1323 45.7696C88.1813 45.8058 88.2297 45.8361 88.2775 45.8606C88.2865 45.8774 88.2898 45.8961 88.2872 45.9168C88.2859 45.9361 88.2833 45.9555 88.2794 45.9749C88.2781 45.9942 88.2781 46.0123 88.2794 46.0291C88.2807 46.0459 88.2898 46.0601 88.3065 46.0717C88.3065 46.0846 88.3027 46.0962 88.2949 46.1066C88.2885 46.1182 88.282 46.1285 88.2756 46.1375C88.2704 46.1479 88.2672 46.1575 88.2659 46.1666C88.2659 46.1743 88.2717 46.1827 88.2833 46.1918C88.2084 46.2176 88.1419 46.2285 88.0839 46.2247C88.0271 46.2221 87.9715 46.2092 87.9173 46.1859C87.8657 46.1627 87.8121 46.1311 87.7566 46.0911C87.7037 46.051 87.643 46.0072 87.5746 45.9594C87.5578 45.9478 87.5455 45.9355 87.5378 45.9226C87.5326 45.9097 87.5249 45.8981 87.5146 45.8877C87.472 45.858 87.4223 45.8213 87.3655 45.7774C87.3099 45.7348 87.2577 45.6876 87.2086 45.636C87.1596 45.5844 87.1176 45.5295 87.0827 45.4714C87.0479 45.4133 87.0298 45.3539 87.0285 45.2933Z" fill="#FFA16B" fill-opacity="0.5"/>
<path d="M82.4805 79.3814L83.0411 78.8208L84.2571 80.0388L84.807 79.4888L85.0288 79.7106L83.9192 80.8201L82.4805 79.3814Z" fill="#F1BDCF" fill-opacity="0.5"/>
<path d="M85.7752 79.091C85.6774 79.1889 85.5769 79.2602 85.4738 79.3052C85.372 79.3514 85.2689 79.3633 85.1645 79.3409C85.06 79.3184 84.9549 79.2543 84.8492 79.1485C84.7434 79.0428 84.6575 78.9225 84.5914 78.7877C84.5253 78.6502 84.4797 78.5067 84.4546 78.3574C84.4295 78.208 84.4255 78.0586 84.4427 77.9092C84.4612 77.7585 84.5009 77.6158 84.5617 77.4809C84.6225 77.3461 84.7058 77.2258 84.8115 77.1201C84.9292 77.0024 85.0448 76.9264 85.1585 76.892C85.2722 76.8577 85.3806 76.8577 85.4837 76.892C85.5868 76.9238 85.6807 76.9819 85.7653 77.0665C85.8776 77.1789 85.9682 77.3236 86.0369 77.5008C86.107 77.6819 86.1473 77.8676 86.1579 78.058C86.1685 78.2483 86.1427 78.4327 86.0805 78.6112C86.0197 78.7883 85.918 78.9483 85.7752 79.091ZM85.8505 78.8055C85.9074 78.7064 85.9451 78.5907 85.9636 78.4585C85.9821 78.3263 85.9821 78.1901 85.9636 78.05C85.9451 77.9099 85.91 77.7784 85.8585 77.6554C85.7805 77.4664 85.6827 77.3131 85.565 77.1954C85.5465 77.1769 85.5273 77.1604 85.5075 77.1458C85.489 77.13 85.4705 77.1154 85.452 77.1022C85.3568 77.0361 85.2663 77.013 85.1803 77.0328C85.0944 77.0526 85.0184 77.0956 84.9523 77.1617C84.8836 77.2304 84.8274 77.3144 84.7838 77.4135C84.7388 77.5114 84.7104 77.6059 84.6985 77.6971C84.6853 77.8108 84.684 77.9271 84.6945 78.0461C84.7051 78.165 84.7282 78.2794 84.7639 78.3891C84.7957 78.4843 84.8393 78.5795 84.8948 78.6746C84.9503 78.7672 85.0131 78.8485 85.0832 78.9185C85.1466 78.982 85.214 79.0309 85.2854 79.0653C85.3568 79.0996 85.4302 79.1122 85.5055 79.1029C85.5795 79.0924 85.6516 79.052 85.7217 78.982C85.7666 78.937 85.8096 78.8782 85.8505 78.8055Z" fill="#F84C37" fill-opacity="0.5"/>
<path d="M85.2292 76.6327L85.842 76.0198L87.1036 76.6075L86.4907 75.3711L86.7425 75.1174L87.6777 77.0616L87.2208 77.5166L85.2292 76.6327Z" fill="#D09FE4" fill-opacity="0.5"/>
<path d="M88.2374 76.3703C88.2167 76.3703 88.1967 76.3658 88.1773 76.3567C88.1593 76.3464 88.1373 76.3451 88.1115 76.3529C88.0895 76.3361 88.0637 76.318 88.034 76.2986C88.0043 76.2767 87.974 76.2554 87.943 76.2347C87.912 76.2115 87.8824 76.1883 87.854 76.165C87.8256 76.1392 87.8023 76.1134 87.7842 76.0876C87.7752 76.0734 87.7681 76.0585 87.7629 76.043C87.7591 76.0262 87.7552 76.0108 87.7513 75.9966C87.7475 75.9798 87.7416 75.9649 87.7339 75.952C87.7274 75.9378 87.7178 75.9268 87.7049 75.9191C87.7113 75.9101 87.712 75.9017 87.7068 75.8939C87.7016 75.8836 87.7055 75.8746 87.7184 75.8668C87.699 75.8294 87.6823 75.7932 87.6681 75.7584C87.6539 75.7235 87.641 75.6887 87.6293 75.6538C87.6177 75.619 87.6061 75.5841 87.5945 75.5493C87.5829 75.5118 87.5674 75.4731 87.548 75.4331C87.5054 75.4344 87.4673 75.4286 87.4338 75.4156C87.4002 75.4002 87.3686 75.3827 87.3389 75.3634C87.3092 75.344 87.2808 75.3233 87.2537 75.3014C87.2253 75.2782 87.1943 75.2575 87.1607 75.2394C87.153 75.2007 87.153 75.1633 87.1607 75.1271C87.1672 75.0897 87.1788 75.0535 87.1956 75.0187C87.2124 74.9812 87.2337 74.9445 87.2595 74.9083C87.284 74.8709 87.3098 74.8309 87.3369 74.7883C87.3795 74.7069 87.4202 74.6366 87.4589 74.5772C87.4964 74.5165 87.5351 74.4597 87.5751 74.4068C87.6138 74.3526 87.6558 74.2977 87.701 74.2422C87.7449 74.1854 87.7939 74.1183 87.8481 74.0408C87.8533 74.0434 87.8572 74.0434 87.8598 74.0408C87.8636 74.0369 87.8682 74.0324 87.8733 74.0273C87.8862 74.0324 87.8978 74.0298 87.9082 74.0195C87.9043 74.0156 87.9004 74.0131 87.8966 74.0118C87.8927 74.0079 87.8895 74.0047 87.8869 74.0021C87.8895 73.9995 87.8933 73.9969 87.8985 73.9943C87.9049 73.9905 87.9101 73.9879 87.914 73.9866C87.9191 73.984 87.9224 73.9808 87.9237 73.9769C87.9237 73.9717 87.9198 73.9666 87.912 73.9614C87.9546 73.973 87.9972 73.9756 88.0398 73.9692C88.0812 73.9614 88.1231 73.9492 88.1657 73.9324C88.1786 73.9427 88.187 73.9511 88.1909 73.9575C88.1961 73.9627 88.2006 73.9685 88.2044 73.975C88.207 73.9801 88.2115 73.9859 88.218 73.9924C88.2232 73.9976 88.2322 74.004 88.2451 74.0118C88.2593 74.0673 88.2625 74.1183 88.2548 74.1647C88.2483 74.2099 88.2354 74.2525 88.2161 74.2925C88.1967 74.3326 88.1728 74.3719 88.1444 74.4107C88.1173 74.4481 88.0895 74.4875 88.0611 74.5288C88.0327 74.5675 88.0063 74.6095 87.9818 74.6546C87.9572 74.6998 87.9385 74.7495 87.9256 74.8037C87.9114 74.8102 87.9004 74.8186 87.8927 74.8289C87.8849 74.8367 87.8778 74.8463 87.8714 74.858C87.8649 74.8696 87.8572 74.8825 87.8481 74.8967C87.8404 74.9096 87.8275 74.9225 87.8094 74.9354C87.8081 74.9548 87.8023 74.9735 87.792 74.9916C87.783 75.0084 87.7733 75.0258 87.7629 75.0439C87.7836 75.0516 87.8004 75.0632 87.8133 75.0787C87.8275 75.0929 87.8417 75.1032 87.8559 75.1097C87.9153 75.0606 87.9753 75.0006 88.036 74.9296C88.0954 74.8573 88.1554 74.7883 88.2161 74.7224C88.2238 74.7276 88.2277 74.7327 88.2277 74.7379C88.2277 74.7431 88.2309 74.7489 88.2374 74.7553C88.2567 74.7515 88.2774 74.7502 88.2993 74.7515C88.3213 74.7528 88.3432 74.754 88.3652 74.7553C88.3871 74.754 88.4078 74.7515 88.4271 74.7476C88.4452 74.7424 88.4613 74.7315 88.4755 74.7147C88.4949 74.7211 88.513 74.7302 88.5298 74.7418C88.5465 74.7534 88.5594 74.7702 88.5685 74.7921C88.5594 74.8347 88.5517 74.8773 88.5452 74.9199C88.5375 74.9612 88.5272 75.0025 88.5143 75.0439C88.5026 75.0839 88.4859 75.1239 88.4639 75.1639C88.442 75.2039 88.4123 75.2414 88.3748 75.2762C88.3684 75.2827 88.3626 75.2885 88.3574 75.2936C88.3535 75.2975 88.3458 75.3001 88.3342 75.3014C88.3277 75.3208 88.3129 75.3408 88.2896 75.3614C88.2664 75.3795 88.2509 75.3989 88.2432 75.4195C88.2186 75.4311 88.1941 75.4492 88.1696 75.4737C88.1464 75.497 88.1225 75.5144 88.0979 75.526C88.1083 75.5828 88.1218 75.6403 88.1386 75.6984C88.1541 75.7552 88.1748 75.812 88.2006 75.8688C88.2612 75.8236 88.3084 75.7829 88.3419 75.7468C88.3755 75.7106 88.4058 75.6751 88.4329 75.6403C88.46 75.6054 88.4878 75.5699 88.5162 75.5338C88.5459 75.4963 88.5853 75.4544 88.6343 75.4079C88.6511 75.3601 88.6776 75.313 88.7137 75.2665C88.7499 75.2175 88.7802 75.1691 88.8047 75.1213C88.8215 75.1123 88.8402 75.109 88.8609 75.1116C88.8802 75.1129 88.8996 75.1155 88.919 75.1194C88.9383 75.1207 88.9564 75.1207 88.9732 75.1194C88.99 75.1181 89.0042 75.109 89.0158 75.0923C89.0287 75.0923 89.0403 75.0961 89.0506 75.1039C89.0623 75.1103 89.0726 75.1168 89.0816 75.1232C89.092 75.1284 89.1016 75.1316 89.1107 75.1329C89.1184 75.1329 89.1268 75.1271 89.1358 75.1155C89.1617 75.1904 89.1726 75.2569 89.1688 75.3149C89.1662 75.3717 89.1533 75.4273 89.13 75.4815C89.1068 75.5331 89.0752 75.5867 89.0352 75.6422C88.9951 75.6951 88.9512 75.7558 88.9035 75.8242C88.8919 75.841 88.8796 75.8533 88.8667 75.861C88.8538 75.8662 88.8422 75.8739 88.8318 75.8842C88.8021 75.9268 88.7653 75.9765 88.7215 76.0333C88.6789 76.0889 88.6317 76.1411 88.5801 76.1902C88.5285 76.2393 88.4736 76.2812 88.4155 76.3161C88.3574 76.3509 88.298 76.369 88.2374 76.3703Z" fill="#FFA16B" fill-opacity="0.5"/>
<path d="M84.0174 62.4895L84.578 63.0501L83.36 64.2661L83.91 64.8161L83.6883 65.0378L82.5787 63.9282L84.0174 62.4895Z" fill="#F1BDCF" fill-opacity="0.5"/>
<path d="M84.3078 65.7842C84.21 65.6864 84.1386 65.5859 84.0936 65.4828C84.0474 65.381 84.0355 65.2779 84.0579 65.1735C84.0804 65.0691 84.1445 64.964 84.2503 64.8582C84.356 64.7525 84.4763 64.6665 84.6112 64.6005C84.7486 64.5344 84.8921 64.4888 85.0414 64.4636C85.1908 64.4385 85.3402 64.4346 85.4896 64.4517C85.6403 64.4702 85.783 64.5099 85.9179 64.5707C86.0527 64.6315 86.173 64.7148 86.2787 64.8206C86.3964 64.9382 86.4724 65.0539 86.5068 65.1676C86.5411 65.2812 86.5411 65.3896 86.5068 65.4927C86.475 65.5959 86.4169 65.6897 86.3323 65.7743C86.2199 65.8867 86.0752 65.9772 85.898 66.046C85.7169 66.116 85.5312 66.1563 85.3408 66.1669C85.1505 66.1775 84.9661 66.1517 84.7876 66.0896C84.6105 66.0288 84.4505 65.927 84.3078 65.7842ZM84.5933 65.8596C84.6924 65.9164 84.8081 65.9541 84.9403 65.9726C85.0725 65.9911 85.2087 65.9911 85.3488 65.9726C85.4889 65.9541 85.6204 65.9191 85.7434 65.8675C85.9324 65.7895 86.0857 65.6917 86.2034 65.574C86.2219 65.5555 86.2384 65.5364 86.253 65.5165C86.2688 65.498 86.2834 65.4795 86.2966 65.461C86.3627 65.3658 86.3858 65.2753 86.366 65.1894C86.3462 65.1034 86.3032 65.0274 86.2371 64.9613C86.1684 64.8926 86.0844 64.8364 85.9853 64.7928C85.8875 64.7478 85.7929 64.7194 85.7017 64.7075C85.588 64.6943 85.4717 64.693 85.3527 64.7036C85.2338 64.7141 85.1194 64.7373 85.0097 64.773C84.9145 64.8047 84.8194 64.8483 84.7242 64.9038C84.6316 64.9594 84.5503 65.0221 84.4803 65.0922C84.4168 65.1557 84.3679 65.2231 84.3336 65.2945C84.2992 65.3658 84.2866 65.4392 84.2959 65.5146C84.3065 65.5886 84.3468 65.6606 84.4168 65.7307C84.4618 65.7756 84.5206 65.8186 84.5933 65.8596Z" fill="#F84C37" fill-opacity="0.5"/>
<path d="M86.7661 65.2382L87.379 65.8511L86.7913 67.1126L88.0277 66.4998L88.2814 66.7515L86.3372 67.6868L85.8822 67.2298L86.7661 65.2382Z" fill="#D09FE4" fill-opacity="0.5"/>
<path d="M87.0285 68.2464C87.0285 68.2257 87.033 68.2057 87.0421 68.1864C87.0524 68.1683 87.0537 68.1463 87.046 68.1205C87.0627 68.0986 87.0808 68.0728 87.1002 68.0431C87.1221 68.0134 87.1434 67.983 87.1641 67.9521C87.1873 67.9211 87.2105 67.8914 87.2338 67.863C87.2596 67.8346 87.2854 67.8114 87.3112 67.7933C87.3254 67.7842 87.3403 67.7771 87.3558 67.772C87.3726 67.7681 87.388 67.7642 87.4022 67.7604C87.419 67.7565 87.4339 67.7507 87.4468 67.7429C87.461 67.7365 87.472 67.7268 87.4797 67.7139C87.4887 67.7203 87.4971 67.721 87.5049 67.7158C87.5152 67.7107 87.5242 67.7145 87.532 67.7274C87.5694 67.7081 87.6056 67.6913 87.6404 67.6771C87.6753 67.6629 87.7101 67.65 87.745 67.6384C87.7798 67.6267 87.8147 67.6151 87.8496 67.6035C87.887 67.5919 87.9257 67.5764 87.9657 67.557C87.9644 67.5144 87.9703 67.4764 87.9832 67.4428C87.9987 67.4092 88.0161 67.3776 88.0354 67.3479C88.0548 67.3182 88.0755 67.2898 88.0974 67.2627C88.1206 67.2343 88.1413 67.2033 88.1594 67.1698C88.1981 67.162 88.2355 67.162 88.2717 67.1698C88.3091 67.1762 88.3453 67.1878 88.3801 67.2046C88.4176 67.2214 88.4544 67.2427 88.4905 67.2685C88.5279 67.293 88.568 67.3189 88.6106 67.346C88.6919 67.3886 88.7622 67.4292 88.8216 67.468C88.8823 67.5054 88.9391 67.5441 88.992 67.5841C89.0462 67.6229 89.1011 67.6648 89.1566 67.71C89.2134 67.7539 89.2805 67.803 89.358 67.8572C89.3554 67.8623 89.3554 67.8662 89.358 67.8688C89.3619 67.8727 89.3664 67.8772 89.3716 67.8824C89.3664 67.8953 89.369 67.9069 89.3793 67.9172C89.3832 67.9133 89.3858 67.9095 89.387 67.9056C89.3909 67.9017 89.3941 67.8985 89.3967 67.8959C89.3993 67.8985 89.4019 67.9024 89.4045 67.9075C89.4083 67.914 89.4109 67.9191 89.4122 67.923C89.4148 67.9282 89.418 67.9314 89.4219 67.9327C89.4271 67.9327 89.4322 67.9288 89.4374 67.9211C89.4258 67.9637 89.4232 68.0063 89.4296 68.0489C89.4374 68.0902 89.4497 68.1321 89.4664 68.1747C89.4561 68.1877 89.4477 68.196 89.4413 68.1999C89.4361 68.2051 89.4303 68.2096 89.4238 68.2135C89.4187 68.2161 89.4129 68.2206 89.4064 68.227C89.4012 68.2322 89.3948 68.2412 89.387 68.2541C89.3315 68.2683 89.2805 68.2716 89.2341 68.2638C89.1889 68.2574 89.1463 68.2445 89.1063 68.2251C89.0662 68.2057 89.0269 68.1818 88.9881 68.1534C88.9507 68.1263 88.9113 68.0986 88.87 68.0702C88.8313 68.0418 88.7893 68.0153 88.7442 67.9908C88.699 67.9663 88.6493 67.9475 88.5951 67.9346C88.5886 67.9204 88.5802 67.9095 88.5699 67.9017C88.5621 67.894 88.5525 67.8869 88.5408 67.8804C88.5292 67.874 88.5163 67.8662 88.5021 67.8572C88.4892 67.8494 88.4763 67.8365 88.4634 67.8185C88.444 67.8172 88.4253 67.8114 88.4072 67.801C88.3904 67.792 88.373 67.7823 88.3549 67.772C88.3472 67.7926 88.3356 67.8094 88.3201 67.8223C88.3059 67.8365 88.2956 67.8507 88.2891 67.8649C88.3382 67.9243 88.3982 67.9843 88.4692 68.045C88.5415 68.1044 88.6106 68.1644 88.6764 68.2251C88.6712 68.2328 88.6661 68.2367 88.6609 68.2367C88.6557 68.2367 88.6499 68.2399 88.6435 68.2464C88.6473 68.2658 88.6486 68.2864 88.6473 68.3084C88.6461 68.3303 88.6448 68.3522 88.6435 68.3742C88.6448 68.3961 88.6473 68.4168 88.6512 68.4362C88.6564 68.4542 88.6674 68.4704 88.6841 68.4846C88.6777 68.5039 88.6686 68.522 88.657 68.5388C88.6454 68.5556 88.6286 68.5685 88.6067 68.5775C88.5641 68.5685 88.5215 68.5607 88.4789 68.5543C88.4376 68.5465 88.3963 68.5362 88.3549 68.5233C88.3149 68.5117 88.2749 68.4949 88.2349 68.473C88.1949 68.451 88.1574 68.4213 88.1226 68.3839C88.1161 68.3774 88.1103 68.3716 88.1052 68.3664C88.1013 68.3626 88.0987 68.3548 88.0974 68.3432C88.078 68.3368 88.058 68.3219 88.0374 68.2987C88.0193 68.2754 87.9999 68.2599 87.9793 68.2522C87.9677 68.2277 87.9496 68.2031 87.9251 68.1786C87.9018 68.1554 87.8844 68.1315 87.8728 68.107C87.816 68.1173 87.7585 68.1309 87.7004 68.1476C87.6436 68.1631 87.5868 68.1838 87.53 68.2096C87.5752 68.2703 87.6159 68.3174 87.652 68.351C87.6882 68.3845 87.7237 68.4149 87.7585 68.442C87.7934 68.4691 87.8289 68.4968 87.865 68.5252C87.9025 68.5549 87.9444 68.5943 87.9909 68.6434C88.0387 68.6601 88.0858 68.6866 88.1323 68.7227C88.1813 68.7589 88.2297 68.7892 88.2775 68.8138C88.2865 68.8305 88.2898 68.8493 88.2872 68.8699C88.2859 68.8893 88.2833 68.9086 88.2794 68.928C88.2781 68.9474 88.2781 68.9654 88.2794 68.9822C88.2807 68.999 88.2898 69.0132 88.3065 69.0248C88.3065 69.0377 88.3027 69.0493 88.2949 69.0597C88.2885 69.0713 88.282 69.0816 88.2756 69.0907C88.2704 69.101 88.2672 69.1107 88.2659 69.1197C88.2659 69.1275 88.2717 69.1358 88.2833 69.1449C88.2084 69.1707 88.1419 69.1817 88.0839 69.1778C88.0271 69.1752 87.9715 69.1623 87.9173 69.1391C87.8657 69.1158 87.8121 69.0842 87.7566 69.0442C87.7037 69.0042 87.643 68.9603 87.5746 68.9125C87.5578 68.9009 87.5455 68.8886 87.5378 68.8757C87.5326 68.8628 87.5249 68.8512 87.5146 68.8409C87.472 68.8112 87.4223 68.7744 87.3655 68.7305C87.3099 68.6879 87.2577 68.6408 87.2086 68.5891C87.1596 68.5375 87.1176 68.4826 87.0827 68.4245C87.0479 68.3664 87.0298 68.3071 87.0285 68.2464Z" fill="#FFA16B" fill-opacity="0.5"/>
<path d="M2.7953 21.9986L3.35588 21.438L4.57193 22.656L5.12187 22.106L5.34358 22.3277L4.23403 23.4373L2.7953 21.9986Z" fill="#F1BDCF" fill-opacity="0.5"/>
<path d="M6.09001 21.7082C5.99219 21.806 5.89172 21.8774 5.78861 21.9224C5.68683 21.9686 5.58372 21.9805 5.47929 21.9581C5.37486 21.9356 5.26976 21.8715 5.16401 21.7657C5.05826 21.66 4.97234 21.5397 4.90624 21.4048C4.84014 21.2674 4.79454 21.1239 4.76942 20.9746C4.74431 20.8252 4.74034 20.6758 4.75753 20.5264C4.77603 20.3757 4.81569 20.233 4.8765 20.0981C4.93731 19.9633 5.02059 19.843 5.12634 19.7373C5.24399 19.6196 5.35965 19.5436 5.47334 19.5092C5.58702 19.4749 5.69542 19.4749 5.79853 19.5092C5.90164 19.5409 5.99549 19.5991 6.08009 19.6837C6.19246 19.7961 6.28301 19.9408 6.35175 20.118C6.42181 20.2991 6.46213 20.4848 6.4727 20.6751C6.48328 20.8655 6.4575 21.0499 6.39537 21.2284C6.33456 21.4055 6.23277 21.5655 6.09001 21.7082ZM6.16536 21.4227C6.2222 21.3235 6.25987 21.2079 6.27838 21.0757C6.29689 20.9435 6.29689 20.8073 6.27838 20.6672C6.25987 20.5271 6.22484 20.3956 6.17329 20.2726C6.0953 20.0836 5.99747 19.9303 5.87983 19.8126C5.86132 19.7941 5.84215 19.7776 5.82232 19.763C5.80382 19.7472 5.78531 19.7326 5.7668 19.7194C5.67162 19.6533 5.58107 19.6302 5.49515 19.65C5.40923 19.6698 5.33322 19.7128 5.26712 19.7789C5.19838 19.8476 5.1422 19.9316 5.09858 20.0307C5.05363 20.1285 5.02521 20.2231 5.01331 20.3143C5.0001 20.4279 4.99877 20.5443 5.00935 20.6632C5.01992 20.7822 5.04306 20.8966 5.07875 21.0063C5.11047 21.1015 5.1541 21.1966 5.20962 21.2918C5.26514 21.3843 5.32793 21.4656 5.39799 21.5357C5.46144 21.5992 5.52886 21.6481 5.60024 21.6824C5.67162 21.7168 5.74499 21.7294 5.82034 21.7201C5.89437 21.7095 5.96641 21.6692 6.03647 21.5992C6.08142 21.5542 6.12438 21.4954 6.16536 21.4227Z" fill="#F84C37" fill-opacity="0.5"/>
<path d="M5.544 19.2498L6.15687 18.637L7.41842 19.2247L6.80556 17.9883L7.05729 17.7346L7.99256 19.6788L7.53558 20.1338L5.544 19.2498Z" fill="#D09FE4" fill-opacity="0.5"/>
<path d="M8.55218 18.9875C8.53153 18.9875 8.51152 18.9829 8.49215 18.9739C8.47408 18.9636 8.45213 18.9623 8.42631 18.97C8.40437 18.9533 8.37855 18.9352 8.34886 18.9158C8.31917 18.8939 8.28883 18.8726 8.25785 18.8519C8.22687 18.8287 8.19718 18.8054 8.16878 18.7822C8.14037 18.7564 8.11714 18.7306 8.09907 18.7048C8.09003 18.6906 8.08293 18.6757 8.07776 18.6602C8.07389 18.6434 8.07002 18.6279 8.06615 18.6137C8.06227 18.597 8.05646 18.5821 8.04872 18.5692C8.04226 18.555 8.03258 18.544 8.01967 18.5363C8.02613 18.5273 8.02677 18.5189 8.02161 18.5111C8.01645 18.5008 8.02032 18.4918 8.03323 18.484C8.01386 18.4466 7.99708 18.4104 7.98288 18.3756C7.96868 18.3407 7.95577 18.3059 7.94415 18.271C7.93254 18.2361 7.92092 18.2013 7.9093 18.1664C7.89768 18.129 7.88219 18.0903 7.86283 18.0503C7.82023 18.0515 7.78214 18.0457 7.74858 18.0328C7.71501 18.0173 7.68339 17.9999 7.6537 17.9805C7.624 17.9612 7.5956 17.9405 7.56849 17.9186C7.54009 17.8953 7.50911 17.8747 7.47555 17.8566C7.4678 17.8179 7.4678 17.7805 7.47555 17.7443C7.482 17.7069 7.49362 17.6707 7.5104 17.6359C7.52719 17.5984 7.54849 17.5616 7.5743 17.5255C7.59883 17.4881 7.62465 17.448 7.65176 17.4054C7.69436 17.3241 7.73502 17.2538 7.77375 17.1944C7.81119 17.1337 7.84992 17.0769 7.88994 17.024C7.92866 16.9698 7.97062 16.9149 8.0158 16.8594C8.05969 16.8026 8.10875 16.7354 8.16297 16.658C8.16813 16.6606 8.172 16.6606 8.17458 16.658C8.17846 16.6541 8.18298 16.6496 8.18814 16.6444C8.20105 16.6496 8.21267 16.647 8.22299 16.6367C8.21912 16.6328 8.21525 16.6302 8.21138 16.6289C8.2075 16.6251 8.20428 16.6218 8.20169 16.6193C8.20428 16.6167 8.20815 16.6141 8.21331 16.6115C8.21977 16.6076 8.22493 16.6051 8.2288 16.6038C8.23397 16.6012 8.23719 16.598 8.23849 16.5941C8.23849 16.5889 8.23461 16.5838 8.22687 16.5786C8.26947 16.5902 8.31207 16.5928 8.35467 16.5863C8.39598 16.5786 8.43793 16.5663 8.48053 16.5496C8.49344 16.5599 8.50183 16.5683 8.50571 16.5747C8.51087 16.5799 8.51539 16.5857 8.51926 16.5922C8.52184 16.5973 8.52636 16.6031 8.53282 16.6096C8.53798 16.6147 8.54702 16.6212 8.55993 16.6289C8.57413 16.6845 8.57735 16.7354 8.56961 16.7819C8.56315 16.8271 8.55024 16.8697 8.53088 16.9097C8.51152 16.9497 8.48763 16.9891 8.45923 17.0278C8.43212 17.0653 8.40437 17.1047 8.37597 17.146C8.34757 17.1847 8.3211 17.2266 8.29658 17.2718C8.27205 17.317 8.25333 17.3667 8.24042 17.4209C8.22622 17.4274 8.21525 17.4358 8.2075 17.4461C8.19976 17.4538 8.19266 17.4635 8.1862 17.4751C8.17975 17.4868 8.172 17.4997 8.16297 17.5139C8.15522 17.5268 8.14231 17.5397 8.12424 17.5526C8.12295 17.572 8.11714 17.5907 8.10681 17.6088C8.09777 17.6255 8.08809 17.643 8.07776 17.661C8.09842 17.6688 8.1152 17.6804 8.12811 17.6959C8.14231 17.7101 8.15651 17.7204 8.17071 17.7269C8.23009 17.6778 8.29012 17.6178 8.3508 17.5468C8.41018 17.4745 8.47021 17.4054 8.53088 17.3396C8.53863 17.3448 8.5425 17.3499 8.5425 17.3551C8.5425 17.3603 8.54573 17.3661 8.55218 17.3725C8.57154 17.3686 8.5922 17.3674 8.61414 17.3686C8.63609 17.3699 8.65804 17.3712 8.67998 17.3725C8.70193 17.3712 8.72258 17.3686 8.74195 17.3648C8.76002 17.3596 8.77616 17.3486 8.79036 17.3319C8.80972 17.3383 8.82779 17.3473 8.84457 17.359C8.86136 17.3706 8.87427 17.3874 8.8833 17.4093C8.87427 17.4519 8.86652 17.4945 8.86007 17.5371C8.85232 17.5784 8.84199 17.6197 8.82908 17.661C8.81747 17.7011 8.80068 17.7411 8.77874 17.7811C8.75679 17.8211 8.7271 17.8586 8.68966 17.8934C8.68321 17.8999 8.6774 17.9057 8.67224 17.9108C8.66836 17.9147 8.66062 17.9173 8.649 17.9186C8.64254 17.9379 8.6277 17.958 8.60446 17.9786C8.58123 17.9967 8.56573 18.016 8.55799 18.0367C8.53346 18.0483 8.50893 18.0664 8.48441 18.0909C8.46117 18.1142 8.43729 18.1316 8.41276 18.1432C8.42309 18.2 8.43664 18.2574 8.45342 18.3155C8.46892 18.3723 8.48957 18.4291 8.51539 18.4859C8.57606 18.4408 8.62318 18.4001 8.65674 18.364C8.69031 18.3278 8.72065 18.2923 8.74776 18.2574C8.77486 18.2226 8.80262 18.1871 8.83102 18.1509C8.86071 18.1135 8.90008 18.0716 8.94914 18.0251C8.96592 17.9773 8.99239 17.9302 9.02853 17.8837C9.06468 17.8347 9.09501 17.7863 9.11954 17.7385C9.13632 17.7295 9.15504 17.7262 9.1757 17.7288C9.19506 17.7301 9.21442 17.7327 9.23379 17.7366C9.25315 17.7379 9.27123 17.7379 9.28801 17.7366C9.30479 17.7353 9.31899 17.7262 9.33061 17.7095C9.34352 17.7095 9.35514 17.7133 9.36546 17.7211C9.37708 17.7275 9.38741 17.734 9.39645 17.7404C9.40677 17.7456 9.41645 17.7488 9.42549 17.7501C9.43324 17.7501 9.44163 17.7443 9.45066 17.7327C9.47648 17.8076 9.48746 17.874 9.48358 17.9321C9.481 17.9889 9.46809 18.0444 9.44485 18.0987C9.42162 18.1503 9.38999 18.2039 9.34997 18.2594C9.30995 18.3123 9.26606 18.373 9.2183 18.4414C9.20668 18.4582 9.19442 18.4705 9.18151 18.4782C9.1686 18.4834 9.15698 18.4911 9.14665 18.5014C9.11696 18.544 9.08017 18.5937 9.03628 18.6505C8.99368 18.706 8.94656 18.7583 8.89492 18.8074C8.84328 18.8564 8.78842 18.8984 8.73033 18.9332C8.67224 18.9681 8.61285 18.9862 8.55218 18.9875Z" fill="#FFA16B" fill-opacity="0.5"/>
<path d="M4.3314 74.0422L4.89199 74.6028L3.674 75.8189L4.22393 76.3688L4.00222 76.5905L2.89267 75.481L4.3314 74.0422Z" fill="#F1BDCF" fill-opacity="0.5"/>
<path d="M4.62174 77.337C4.52392 77.2391 4.45253 77.1387 4.40759 77.0356C4.36132 76.9338 4.34943 76.8307 4.3719 76.7262C4.39437 76.6218 4.45848 76.5167 4.56424 76.411C4.66999 76.3052 4.79028 76.2193 4.92512 76.1532C5.06259 76.0871 5.20602 76.0415 5.3554 76.0164C5.50477 75.9913 5.65415 75.9873 5.80352 76.0045C5.95422 76.023 6.09699 76.0626 6.23182 76.1234C6.36666 76.1843 6.48695 76.2675 6.5927 76.3733C6.71035 76.4909 6.78636 76.6066 6.82073 76.7203C6.8551 76.834 6.8551 76.9424 6.82073 77.0455C6.78901 77.1486 6.73084 77.2424 6.64624 77.327C6.53388 77.4394 6.38913 77.53 6.21199 77.5987C6.03089 77.6688 5.84516 77.7091 5.65481 77.7196C5.46445 77.7302 5.28005 77.7044 5.10159 77.6423C4.92446 77.5815 4.7645 77.4797 4.62174 77.337ZM4.90727 77.4123C5.00641 77.4691 5.12208 77.5068 5.25427 77.5253C5.38646 77.5438 5.52262 77.5438 5.66274 77.5253C5.80286 77.5068 5.93439 77.4718 6.05733 77.4202C6.24636 77.3422 6.3997 77.2444 6.51735 77.1268C6.53586 77.1083 6.55238 77.0891 6.56693 77.0693C6.58279 77.0508 6.59733 77.0323 6.61055 77.0138C6.67664 76.9186 6.69978 76.828 6.67995 76.7421C6.66012 76.6562 6.61716 76.5802 6.55106 76.5141C6.48232 76.4453 6.39838 76.3891 6.29924 76.3455C6.20142 76.3006 6.1069 76.2722 6.01569 76.2603C5.90201 76.247 5.78568 76.2457 5.66671 76.2563C5.54774 76.2669 5.43339 76.29 5.32367 76.3257C5.22849 76.3574 5.13332 76.401 5.03814 76.4566C4.94561 76.5121 4.86431 76.5749 4.79425 76.6449C4.7308 76.7084 4.68189 76.7758 4.64752 76.8472C4.61315 76.9186 4.60059 76.9919 4.60984 77.0673C4.62042 77.1413 4.66074 77.2134 4.7308 77.2834C4.77574 77.3284 4.83457 77.3713 4.90727 77.4123Z" fill="#F84C37" fill-opacity="0.5"/>
<path d="M7.08011 76.7909L7.69297 77.4038L7.10528 78.6654L8.34166 78.0525L8.59533 78.3042L6.6512 79.2395L6.19615 78.7825L7.08011 76.7909Z" fill="#D09FE4" fill-opacity="0.5"/>
<path d="M7.34249 79.7991C7.34249 79.7785 7.34701 79.7585 7.35604 79.7391C7.36637 79.721 7.36766 79.6991 7.35992 79.6733C7.3767 79.6513 7.39477 79.6255 7.41413 79.5958C7.43608 79.5661 7.45738 79.5358 7.47804 79.5048C7.50127 79.4738 7.52451 79.4441 7.54774 79.4157C7.57356 79.3873 7.59938 79.3641 7.6252 79.346C7.6394 79.337 7.65425 79.3299 7.66974 79.3247C7.68652 79.3208 7.70201 79.317 7.71621 79.3131C7.73299 79.3092 7.74784 79.3034 7.76075 79.2957C7.77495 79.2892 7.78592 79.2795 7.79367 79.2666C7.8027 79.2731 7.81109 79.2737 7.81884 79.2686C7.82917 79.2634 7.8382 79.2673 7.84595 79.2802C7.88339 79.2608 7.91953 79.244 7.95439 79.2298C7.98924 79.2156 8.0241 79.2027 8.05895 79.1911C8.09381 79.1795 8.12866 79.1679 8.16352 79.1562C8.20095 79.1446 8.23968 79.1291 8.2797 79.1098C8.27841 79.0672 8.28422 79.0291 8.29713 78.9955C8.31262 78.962 8.33005 78.9303 8.34941 78.9006C8.36877 78.871 8.38943 78.8426 8.41137 78.8154C8.43461 78.787 8.45527 78.7561 8.47334 78.7225C8.51207 78.7148 8.5495 78.7148 8.58565 78.7225C8.62309 78.729 8.65923 78.7406 8.69409 78.7574C8.73152 78.7741 8.76831 78.7954 8.80446 78.8213C8.8419 78.8458 8.88192 78.8716 8.92452 78.8987C9.00585 78.9413 9.0762 78.982 9.13558 79.0207C9.19626 79.0581 9.25306 79.0969 9.30599 79.1369C9.3602 79.1756 9.41507 79.2176 9.47058 79.2627C9.52738 79.3066 9.59451 79.3557 9.67196 79.4099C9.66938 79.4151 9.66938 79.419 9.67196 79.4215C9.67584 79.4254 9.68035 79.4299 9.68552 79.4351C9.68035 79.448 9.68294 79.4596 9.69326 79.4699C9.69714 79.4661 9.69972 79.4622 9.70101 79.4583C9.70488 79.4545 9.70811 79.4512 9.71069 79.4486C9.71327 79.4512 9.71585 79.4551 9.71844 79.4603C9.72231 79.4667 9.72489 79.4719 9.72618 79.4758C9.72876 79.4809 9.73199 79.4841 9.73586 79.4854C9.74103 79.4854 9.74619 79.4816 9.75135 79.4738C9.73974 79.5164 9.73715 79.559 9.74361 79.6016C9.75135 79.6429 9.76362 79.6849 9.7804 79.7275C9.77007 79.7404 9.76168 79.7488 9.75523 79.7527C9.75006 79.7578 9.74425 79.7623 9.7378 79.7662C9.73264 79.7688 9.72683 79.7733 9.72037 79.7798C9.71521 79.7849 9.70875 79.794 9.70101 79.8069C9.6455 79.8211 9.59451 79.8243 9.54803 79.8166C9.50285 79.8101 9.46025 79.7972 9.42023 79.7778C9.38021 79.7585 9.34084 79.7346 9.30211 79.7062C9.26468 79.6791 9.2253 79.6513 9.18399 79.6229C9.14527 79.5945 9.10331 79.5681 9.05813 79.5435C9.01295 79.519 8.96324 79.5003 8.90903 79.4874C8.90257 79.4732 8.89418 79.4622 8.88385 79.4545C8.87611 79.4467 8.86643 79.4396 8.85481 79.4332C8.84319 79.4267 8.83028 79.419 8.81608 79.4099C8.80317 79.4022 8.79026 79.3893 8.77735 79.3712C8.75799 79.3699 8.73927 79.3641 8.7212 79.3538C8.70441 79.3447 8.68699 79.335 8.66891 79.3247C8.66117 79.3454 8.64955 79.3622 8.63406 79.3751C8.61986 79.3893 8.60953 79.4035 8.60308 79.4177C8.65213 79.477 8.71216 79.5371 8.78316 79.5977C8.85545 79.6571 8.92452 79.7172 8.99035 79.7778C8.98519 79.7856 8.98003 79.7894 8.97486 79.7894C8.9697 79.7894 8.96389 79.7927 8.95744 79.7991C8.96131 79.8185 8.9626 79.8391 8.96131 79.8611C8.96002 79.883 8.95873 79.905 8.95744 79.9269C8.95873 79.9489 8.96131 79.9695 8.96518 79.9889C8.97034 80.007 8.98132 80.0231 8.9981 80.0373C8.99164 80.0567 8.98261 80.0747 8.97099 80.0915C8.95937 80.1083 8.94259 80.1212 8.92064 80.1303C8.87804 80.1212 8.83544 80.1135 8.79284 80.107C8.75153 80.0993 8.71022 80.0889 8.66891 80.076C8.62889 80.0644 8.58888 80.0476 8.54886 80.0257C8.50884 80.0037 8.4714 79.974 8.43655 79.9366C8.43009 79.9302 8.42428 79.9243 8.41912 79.9192C8.41525 79.9153 8.41266 79.9076 8.41137 79.8959C8.39201 79.8895 8.372 79.8746 8.35135 79.8514C8.33327 79.8282 8.31391 79.8127 8.29325 79.8049C8.28164 79.7804 8.26356 79.7559 8.23904 79.7314C8.2158 79.7081 8.19837 79.6842 8.18675 79.6597C8.12995 79.67 8.07251 79.6836 8.01441 79.7004C7.95761 79.7159 7.90081 79.7365 7.84401 79.7623C7.88919 79.823 7.92986 79.8701 7.966 79.9037C8.00215 79.9373 8.03765 79.9676 8.07251 79.9947C8.10736 80.0218 8.14286 80.0496 8.17901 80.078C8.21644 80.1077 8.2584 80.147 8.30487 80.1961C8.35264 80.2129 8.39976 80.2393 8.44623 80.2755C8.49528 80.3116 8.54369 80.342 8.59146 80.3665C8.60049 80.3833 8.60372 80.402 8.60114 80.4226C8.59985 80.442 8.59727 80.4614 8.59339 80.4807C8.5921 80.5001 8.5921 80.5182 8.59339 80.535C8.59469 80.5517 8.60372 80.5659 8.6205 80.5776C8.6205 80.5905 8.61663 80.6021 8.60889 80.6124C8.60243 80.624 8.59598 80.6344 8.58952 80.6434C8.58436 80.6537 8.58113 80.6634 8.57984 80.6724C8.57984 80.6802 8.58565 80.6886 8.59727 80.6976C8.52239 80.7234 8.45591 80.7344 8.39782 80.7305C8.34102 80.7279 8.28551 80.715 8.23129 80.6918C8.17965 80.6686 8.12608 80.6369 8.07057 80.5969C8.01764 80.5569 7.95697 80.513 7.88855 80.4652C7.87177 80.4536 7.8595 80.4414 7.85176 80.4285C7.84659 80.4155 7.83885 80.4039 7.82852 80.3936C7.78592 80.3639 7.73622 80.3271 7.67942 80.2832C7.62391 80.2406 7.57163 80.1935 7.52257 80.1419C7.47352 80.0902 7.43156 80.0354 7.39671 79.9773C7.36185 79.9192 7.34378 79.8598 7.34249 79.7991Z" fill="#FFA16B" fill-opacity="0.5"/>
<path d="M2.7953 44.9517L3.35588 44.3911L4.57193 45.6091L5.12187 45.0591L5.34358 45.2809L4.23403 46.3904L2.7953 44.9517Z" fill="#F1BDCF" fill-opacity="0.5"/>
<path d="M6.09001 44.6613C5.99219 44.7592 5.89172 44.8305 5.78861 44.8755C5.68683 44.9218 5.58372 44.9337 5.47929 44.9112C5.37486 44.8887 5.26976 44.8246 5.16401 44.7188C5.05826 44.6131 4.97234 44.4928 4.90624 44.358C4.84014 44.2205 4.79454 44.0771 4.76942 43.9277C4.74431 43.7783 4.74034 43.6289 4.75753 43.4796C4.77603 43.3289 4.81569 43.1861 4.8765 43.0513C4.93731 42.9164 5.02059 42.7961 5.12634 42.6904C5.24399 42.5727 5.35965 42.4967 5.47334 42.4623C5.58702 42.428 5.69542 42.428 5.79853 42.4623C5.90164 42.4941 5.99549 42.5522 6.08009 42.6368C6.19246 42.7492 6.28301 42.894 6.35175 43.0711C6.42181 43.2522 6.46213 43.4379 6.4727 43.6283C6.48328 43.8186 6.4575 44.003 6.39537 44.1815C6.33456 44.3586 6.23277 44.5186 6.09001 44.6613ZM6.16536 44.3758C6.2222 44.2767 6.25987 44.161 6.27838 44.0288C6.29689 43.8966 6.29689 43.7605 6.27838 43.6203C6.25987 43.4802 6.22484 43.3487 6.17329 43.2258C6.0953 43.0367 5.99747 42.8834 5.87983 42.7657C5.86132 42.7472 5.84215 42.7307 5.82232 42.7162C5.80382 42.7003 5.78531 42.6858 5.7668 42.6725C5.67162 42.6064 5.58107 42.5833 5.49515 42.6031C5.40923 42.623 5.33322 42.6659 5.26712 42.732C5.19838 42.8008 5.1422 42.8847 5.09858 42.9838C5.05363 43.0817 5.02521 43.1762 5.01331 43.2674C5.0001 43.3811 4.99877 43.4974 5.00935 43.6164C5.01992 43.7353 5.04306 43.8497 5.07875 43.9594C5.11047 44.0546 5.1541 44.1498 5.20962 44.2449C5.26514 44.3375 5.32793 44.4188 5.39799 44.4888C5.46144 44.5523 5.52886 44.6012 5.60024 44.6356C5.67162 44.6699 5.74499 44.6825 5.82034 44.6732C5.89437 44.6627 5.96641 44.6223 6.03647 44.5523C6.08142 44.5073 6.12438 44.4485 6.16536 44.3758Z" fill="#F84C37" fill-opacity="0.5"/>
<path d="M5.544 42.203L6.15687 41.5901L7.41842 42.1778L6.80556 40.9414L7.05729 40.6878L7.99256 42.6319L7.53558 43.0869L5.544 42.203Z" fill="#D09FE4" fill-opacity="0.5"/>
<path d="M8.55218 41.9406C8.53153 41.9406 8.51152 41.9361 8.49215 41.927C8.47408 41.9167 8.45213 41.9154 8.42631 41.9232C8.40437 41.9064 8.37855 41.8883 8.34886 41.8689C8.31917 41.847 8.28883 41.8257 8.25785 41.805C8.22687 41.7818 8.19718 41.7586 8.16878 41.7353C8.14037 41.7095 8.11714 41.6837 8.09907 41.6579C8.09003 41.6437 8.08293 41.6288 8.07776 41.6133C8.07389 41.5966 8.07002 41.5811 8.06615 41.5669C8.06227 41.5501 8.05646 41.5352 8.04872 41.5223C8.04226 41.5081 8.03258 41.4972 8.01967 41.4894C8.02613 41.4804 8.02677 41.472 8.02161 41.4642C8.01645 41.4539 8.02032 41.4449 8.03323 41.4371C8.01386 41.3997 7.99708 41.3635 7.98288 41.3287C7.96868 41.2938 7.95577 41.259 7.94415 41.2241C7.93254 41.1893 7.92092 41.1544 7.9093 41.1196C7.89768 41.0821 7.88219 41.0434 7.86283 41.0034C7.82023 41.0047 7.78214 40.9989 7.74858 40.986C7.71501 40.9705 7.68339 40.953 7.6537 40.9337C7.624 40.9143 7.5956 40.8937 7.56849 40.8717C7.54009 40.8485 7.50911 40.8278 7.47555 40.8097C7.4678 40.771 7.4678 40.7336 7.47555 40.6974C7.482 40.66 7.49362 40.6238 7.5104 40.589C7.52719 40.5516 7.54849 40.5148 7.5743 40.4786C7.59883 40.4412 7.62465 40.4012 7.65176 40.3586C7.69436 40.2772 7.73502 40.2069 7.77375 40.1475C7.81119 40.0868 7.84992 40.03 7.88994 39.9771C7.92866 39.9229 7.97062 39.868 8.0158 39.8125C8.05969 39.7557 8.10875 39.6886 8.16297 39.6111C8.16813 39.6137 8.172 39.6137 8.17458 39.6111C8.17846 39.6072 8.18298 39.6027 8.18814 39.5976C8.20105 39.6027 8.21267 39.6001 8.22299 39.5898C8.21912 39.5859 8.21525 39.5834 8.21138 39.5821C8.2075 39.5782 8.20428 39.575 8.20169 39.5724C8.20428 39.5698 8.20815 39.5672 8.21331 39.5646C8.21977 39.5608 8.22493 39.5582 8.2288 39.5569C8.23397 39.5543 8.23719 39.5511 8.23849 39.5472C8.23849 39.5421 8.23461 39.5369 8.22687 39.5317C8.26947 39.5433 8.31207 39.5459 8.35467 39.5395C8.39598 39.5317 8.43793 39.5195 8.48053 39.5027C8.49344 39.513 8.50183 39.5214 8.50571 39.5279C8.51087 39.533 8.51539 39.5388 8.51926 39.5453C8.52184 39.5504 8.52636 39.5563 8.53282 39.5627C8.53798 39.5679 8.54702 39.5743 8.55993 39.5821C8.57413 39.6376 8.57735 39.6886 8.56961 39.735C8.56315 39.7802 8.55024 39.8228 8.53088 39.8628C8.51152 39.9029 8.48763 39.9422 8.45923 39.981C8.43212 40.0184 8.40437 40.0578 8.37597 40.0991C8.34757 40.1378 8.3211 40.1798 8.29658 40.225C8.27205 40.2701 8.25333 40.3198 8.24042 40.3741C8.22622 40.3805 8.21525 40.3889 8.2075 40.3992C8.19976 40.407 8.19266 40.4167 8.1862 40.4283C8.17975 40.4399 8.172 40.4528 8.16297 40.467C8.15522 40.4799 8.14231 40.4928 8.12424 40.5057C8.12295 40.5251 8.11714 40.5438 8.10681 40.5619C8.09777 40.5787 8.08809 40.5961 8.07776 40.6142C8.09842 40.6219 8.1152 40.6335 8.12811 40.649C8.14231 40.6632 8.15651 40.6735 8.17071 40.68C8.23009 40.6309 8.29012 40.5709 8.3508 40.4999C8.41018 40.4276 8.47021 40.3586 8.53088 40.2927C8.53863 40.2979 8.5425 40.3031 8.5425 40.3082C8.5425 40.3134 8.54573 40.3192 8.55218 40.3256C8.57154 40.3218 8.5922 40.3205 8.61414 40.3218C8.63609 40.3231 8.65804 40.3244 8.67998 40.3256C8.70193 40.3244 8.72258 40.3218 8.74195 40.3179C8.76002 40.3127 8.77616 40.3018 8.79036 40.285C8.80972 40.2914 8.82779 40.3005 8.84457 40.3121C8.86136 40.3237 8.87427 40.3405 8.8833 40.3624C8.87427 40.405 8.86652 40.4476 8.86007 40.4902C8.85232 40.5315 8.84199 40.5729 8.82908 40.6142C8.81747 40.6542 8.80068 40.6942 8.77874 40.7342C8.75679 40.7742 8.7271 40.8117 8.68966 40.8465C8.68321 40.853 8.6774 40.8588 8.67224 40.864C8.66836 40.8678 8.66062 40.8704 8.649 40.8717C8.64254 40.8911 8.6277 40.9111 8.60446 40.9317C8.58123 40.9498 8.56573 40.9692 8.55799 40.9898C8.53346 41.0014 8.50893 41.0195 8.48441 41.044C8.46117 41.0673 8.43729 41.0847 8.41276 41.0963C8.42309 41.1531 8.43664 41.2106 8.45342 41.2687C8.46892 41.3255 8.48957 41.3823 8.51539 41.4391C8.57606 41.3939 8.62318 41.3532 8.65674 41.3171C8.69031 41.2809 8.72065 41.2454 8.74776 41.2106C8.77486 41.1757 8.80262 41.1402 8.83102 41.1041C8.86071 41.0666 8.90008 41.0247 8.94914 40.9782C8.96592 40.9304 8.99239 40.8833 9.02853 40.8369C9.06468 40.7878 9.09501 40.7394 9.11954 40.6916C9.13632 40.6826 9.15504 40.6794 9.1757 40.6819C9.19506 40.6832 9.21442 40.6858 9.23379 40.6897C9.25315 40.691 9.27123 40.691 9.28801 40.6897C9.30479 40.6884 9.31899 40.6794 9.33061 40.6626C9.34352 40.6626 9.35514 40.6664 9.36546 40.6742C9.37708 40.6807 9.38741 40.6871 9.39645 40.6936C9.40677 40.6987 9.41645 40.702 9.42549 40.7032C9.43324 40.7032 9.44163 40.6974 9.45066 40.6858C9.47648 40.7607 9.48746 40.8272 9.48358 40.8853C9.481 40.9421 9.46809 40.9976 9.44485 41.0518C9.42162 41.1034 9.38999 41.157 9.34997 41.2125C9.30995 41.2654 9.26606 41.3261 9.2183 41.3945C9.20668 41.4113 9.19442 41.4236 9.18151 41.4313C9.1686 41.4365 9.15698 41.4442 9.14665 41.4546C9.11696 41.4972 9.08017 41.5469 9.03628 41.6037C8.99368 41.6592 8.94656 41.7115 8.89492 41.7605C8.84328 41.8096 8.78842 41.8515 8.73033 41.8864C8.67224 41.9212 8.61285 41.9393 8.55218 41.9406Z" fill="#FFA16B" fill-opacity="0.5"/>
<path d="M4.3314 28.0579L4.89199 28.6185L3.674 29.8345L4.22393 30.3844L4.00222 30.6062L2.89267 29.4966L4.3314 28.0579Z" fill="#F1BDCF" fill-opacity="0.5"/>
<path d="M4.62174 31.3526C4.52392 31.2548 4.45253 31.1543 4.40759 31.0512C4.36132 30.9494 4.34943 30.8463 4.3719 30.7419C4.39437 30.6374 4.45848 30.5323 4.56424 30.4266C4.66999 30.3208 4.79028 30.2349 4.92512 30.1688C5.06259 30.1027 5.20602 30.0571 5.3554 30.032C5.50477 30.0069 5.65415 30.0029 5.80352 30.0201C5.95422 30.0386 6.09699 30.0783 6.23182 30.1391C6.36666 30.1999 6.48695 30.2832 6.5927 30.3889C6.71035 30.5066 6.78636 30.6222 6.82073 30.7359C6.8551 30.8496 6.8551 30.958 6.82073 31.0611C6.78901 31.1642 6.73084 31.2581 6.64624 31.3427C6.53388 31.455 6.38913 31.5456 6.21199 31.6143C6.03089 31.6844 5.84516 31.7247 5.65481 31.7353C5.46445 31.7458 5.28005 31.7201 5.10159 31.6579C4.92446 31.5971 4.7645 31.4953 4.62174 31.3526ZM4.90727 31.4279C5.00641 31.4848 5.12208 31.5224 5.25427 31.541C5.38646 31.5595 5.52262 31.5595 5.66274 31.541C5.80286 31.5224 5.93439 31.4874 6.05733 31.4359C6.24636 31.3579 6.3997 31.26 6.51735 31.1424C6.53586 31.1239 6.55238 31.1047 6.56693 31.0849C6.58279 31.0664 6.59733 31.0479 6.61055 31.0294C6.67664 30.9342 6.69978 30.8436 6.67995 30.7577C6.66012 30.6718 6.61716 30.5958 6.55106 30.5297C6.48232 30.461 6.39838 30.4048 6.29924 30.3612C6.20142 30.3162 6.1069 30.2878 6.01569 30.2759C5.90201 30.2627 5.78568 30.2613 5.66671 30.2719C5.54774 30.2825 5.43339 30.3056 5.32367 30.3413C5.22849 30.373 5.13332 30.4167 5.03814 30.4722C4.94561 30.5277 4.86431 30.5905 4.79425 30.6606C4.7308 30.724 4.68189 30.7914 4.64752 30.8628C4.61315 30.9342 4.60059 31.0076 4.60984 31.0829C4.62042 31.1569 4.66074 31.229 4.7308 31.299C4.77574 31.344 4.83457 31.387 4.90727 31.4279Z" fill="#F84C37" fill-opacity="0.5"/>
<path d="M7.08011 30.8066L7.69297 31.4194L7.10528 32.681L8.34166 32.0681L8.59533 32.3199L6.6512 33.2551L6.19615 32.7981L7.08011 30.8066Z" fill="#D09FE4" fill-opacity="0.5"/>
<path d="M7.34249 33.8148C7.34249 33.7941 7.34701 33.7741 7.35604 33.7547C7.36637 33.7367 7.36766 33.7147 7.35992 33.6889C7.3767 33.6669 7.39477 33.6411 7.41413 33.6114C7.43608 33.5817 7.45738 33.5514 7.47804 33.5204C7.50127 33.4894 7.52451 33.4597 7.54774 33.4313C7.57356 33.4029 7.59938 33.3797 7.6252 33.3616C7.6394 33.3526 7.65425 33.3455 7.66974 33.3403C7.68652 33.3365 7.70201 33.3326 7.71621 33.3287C7.73299 33.3248 7.74784 33.319 7.76075 33.3113C7.77495 33.3048 7.78592 33.2952 7.79367 33.2822C7.8027 33.2887 7.81109 33.2893 7.81884 33.2842C7.82917 33.279 7.8382 33.2829 7.84595 33.2958C7.88339 33.2764 7.91953 33.2597 7.95439 33.2455C7.98924 33.2313 8.0241 33.2183 8.05895 33.2067C8.09381 33.1951 8.12866 33.1835 8.16352 33.1719C8.20095 33.1603 8.23968 33.1448 8.2797 33.1254C8.27841 33.0828 8.28422 33.0447 8.29713 33.0112C8.31262 32.9776 8.33005 32.946 8.34941 32.9163C8.36877 32.8866 8.38943 32.8582 8.41137 32.8311C8.43461 32.8027 8.45527 32.7717 8.47334 32.7381C8.51207 32.7304 8.5495 32.7304 8.58565 32.7381C8.62309 32.7446 8.65923 32.7562 8.69409 32.773C8.73152 32.7898 8.76831 32.8111 8.80446 32.8369C8.8419 32.8614 8.88192 32.8872 8.92452 32.9143C9.00585 32.9569 9.0762 32.9976 9.13558 33.0363C9.19626 33.0738 9.25306 33.1125 9.30599 33.1525C9.3602 33.1912 9.41507 33.2332 9.47058 33.2784C9.52738 33.3223 9.59451 33.3713 9.67196 33.4255C9.66938 33.4307 9.66938 33.4346 9.67196 33.4372C9.67584 33.441 9.68035 33.4455 9.68552 33.4507C9.68035 33.4636 9.68294 33.4752 9.69326 33.4856C9.69714 33.4817 9.69972 33.4778 9.70101 33.4739C9.70488 33.4701 9.70811 33.4668 9.71069 33.4643C9.71327 33.4668 9.71585 33.4707 9.71844 33.4759C9.72231 33.4823 9.72489 33.4875 9.72618 33.4914C9.72876 33.4965 9.73199 33.4998 9.73586 33.5011C9.74103 33.5011 9.74619 33.4972 9.75135 33.4894C9.73974 33.532 9.73715 33.5746 9.74361 33.6172C9.75135 33.6586 9.76362 33.7005 9.7804 33.7431C9.77007 33.756 9.76168 33.7644 9.75523 33.7683C9.75006 33.7734 9.74425 33.778 9.7378 33.7818C9.73264 33.7844 9.72683 33.7889 9.72037 33.7954C9.71521 33.8006 9.70875 33.8096 9.70101 33.8225C9.6455 33.8367 9.59451 33.8399 9.54803 33.8322C9.50285 33.8257 9.46025 33.8128 9.42023 33.7935C9.38021 33.7741 9.34084 33.7502 9.30211 33.7218C9.26468 33.6947 9.2253 33.6669 9.18399 33.6385C9.14527 33.6101 9.10331 33.5837 9.05813 33.5592C9.01295 33.5346 8.96324 33.5159 8.90903 33.503C8.90257 33.4888 8.89418 33.4778 8.88385 33.4701C8.87611 33.4623 8.86643 33.4552 8.85481 33.4488C8.84319 33.4423 8.83028 33.4346 8.81608 33.4255C8.80317 33.4178 8.79026 33.4049 8.77735 33.3868C8.75799 33.3855 8.73927 33.3797 8.7212 33.3694C8.70441 33.3603 8.68699 33.3507 8.66891 33.3403C8.66117 33.361 8.64955 33.3778 8.63406 33.3907C8.61986 33.4049 8.60953 33.4191 8.60308 33.4333C8.65213 33.4927 8.71216 33.5527 8.78316 33.6134C8.85545 33.6728 8.92452 33.7328 8.99035 33.7935C8.98519 33.8012 8.98003 33.8051 8.97486 33.8051C8.9697 33.8051 8.96389 33.8083 8.95744 33.8148C8.96131 33.8341 8.9626 33.8548 8.96131 33.8767C8.96002 33.8987 8.95873 33.9206 8.95744 33.9426C8.95873 33.9645 8.96131 33.9852 8.96518 34.0045C8.97034 34.0226 8.98132 34.0387 8.9981 34.0529C8.99164 34.0723 8.98261 34.0904 8.97099 34.1071C8.95937 34.1239 8.94259 34.1368 8.92064 34.1459C8.87804 34.1368 8.83544 34.1291 8.79284 34.1226C8.75153 34.1149 8.71022 34.1046 8.66891 34.0917C8.62889 34.08 8.58888 34.0633 8.54886 34.0413C8.50884 34.0194 8.4714 33.9897 8.43655 33.9522C8.43009 33.9458 8.42428 33.94 8.41912 33.9348C8.41525 33.9309 8.41266 33.9232 8.41137 33.9116C8.39201 33.9051 8.372 33.8903 8.35135 33.867C8.33327 33.8438 8.31391 33.8283 8.29325 33.8206C8.28164 33.796 8.26356 33.7715 8.23904 33.747C8.2158 33.7237 8.19837 33.6999 8.18675 33.6753C8.12995 33.6857 8.07251 33.6992 8.01441 33.716C7.95761 33.7315 7.90081 33.7521 7.84401 33.778C7.88919 33.8386 7.92986 33.8858 7.966 33.9193C8.00215 33.9529 8.03765 33.9832 8.07251 34.0103C8.10736 34.0374 8.14286 34.0652 8.17901 34.0936C8.21644 34.1233 8.2584 34.1627 8.30487 34.2117C8.35264 34.2285 8.39976 34.255 8.44623 34.2911C8.49528 34.3273 8.54369 34.3576 8.59146 34.3821C8.60049 34.3989 8.60372 34.4176 8.60114 34.4383C8.59985 34.4576 8.59727 34.477 8.59339 34.4964C8.5921 34.5157 8.5921 34.5338 8.59339 34.5506C8.59469 34.5674 8.60372 34.5816 8.6205 34.5932C8.6205 34.6061 8.61663 34.6177 8.60889 34.628C8.60243 34.6397 8.59598 34.65 8.58952 34.659C8.58436 34.6693 8.58113 34.679 8.57984 34.6881C8.57984 34.6958 8.58565 34.7042 8.59727 34.7132C8.52239 34.7391 8.45591 34.75 8.39782 34.7462C8.34102 34.7436 8.28551 34.7307 8.23129 34.7074C8.17965 34.6842 8.12608 34.6526 8.07057 34.6125C8.01764 34.5725 7.95697 34.5286 7.88855 34.4809C7.87177 34.4693 7.8595 34.457 7.85176 34.4441C7.84659 34.4312 7.83885 34.4196 7.82852 34.4092C7.78592 34.3795 7.73622 34.3427 7.67942 34.2989C7.62391 34.2562 7.57163 34.2091 7.52257 34.1575C7.47352 34.1059 7.43156 34.051 7.39671 33.9929C7.36185 33.9348 7.34378 33.8754 7.34249 33.8148Z" fill="#FFA16B" fill-opacity="0.5"/>
<path d="M2.7953 67.9048L3.35588 67.3442L4.57193 68.5622L5.12187 68.0123L5.34358 68.234L4.23403 69.3435L2.7953 67.9048Z" fill="#F1BDCF" fill-opacity="0.5"/>
<path d="M6.09001 67.6145C5.99219 67.7123 5.89172 67.7837 5.78861 67.8286C5.68683 67.8749 5.58372 67.8868 5.47929 67.8643C5.37486 67.8418 5.26976 67.7777 5.16401 67.672C5.05826 67.5662 4.97234 67.4459 4.90624 67.3111C4.84014 67.1736 4.79454 67.0302 4.76942 66.8808C4.74431 66.7314 4.74034 66.5821 4.75753 66.4327C4.77603 66.282 4.81569 66.1392 4.8765 66.0044C4.93731 65.8695 5.02059 65.7493 5.12634 65.6435C5.24399 65.5259 5.35965 65.4498 5.47334 65.4155C5.58702 65.3811 5.69542 65.3811 5.79853 65.4155C5.90164 65.4472 5.99549 65.5054 6.08009 65.59C6.19246 65.7023 6.28301 65.8471 6.35175 66.0242C6.42181 66.2053 6.46213 66.391 6.4727 66.5814C6.48328 66.7718 6.4575 66.9562 6.39537 67.1346C6.33456 67.3118 6.23277 67.4717 6.09001 67.6145ZM6.16536 67.3289C6.2222 67.2298 6.25987 67.1141 6.27838 66.9819C6.29689 66.8497 6.29689 66.7136 6.27838 66.5735C6.25987 66.4333 6.22484 66.3018 6.17329 66.1789C6.0953 65.9898 5.99747 65.8365 5.87983 65.7189C5.86132 65.7003 5.84215 65.6838 5.82232 65.6693C5.80382 65.6534 5.78531 65.6389 5.7668 65.6257C5.67162 65.5596 5.58107 65.5364 5.49515 65.5563C5.40923 65.5761 5.33322 65.619 5.26712 65.6851C5.19838 65.7539 5.1422 65.8378 5.09858 65.937C5.05363 66.0348 5.02521 66.1293 5.01331 66.2205C5.0001 66.3342 4.99877 66.4505 5.00935 66.5695C5.01992 66.6885 5.04306 66.8028 5.07875 66.9125C5.11047 67.0077 5.1541 67.1029 5.20962 67.1981C5.26514 67.2906 5.32793 67.3719 5.39799 67.442C5.46144 67.5054 5.52886 67.5543 5.60024 67.5887C5.67162 67.6231 5.74499 67.6356 5.82034 67.6264C5.89437 67.6158 5.96641 67.5755 6.03647 67.5054C6.08142 67.4605 6.12438 67.4016 6.16536 67.3289Z" fill="#F84C37" fill-opacity="0.5"/>
<path d="M5.544 65.1561L6.15687 64.5432L7.41842 65.1309L6.80556 63.8945L7.05729 63.6409L7.99256 65.585L7.53558 66.0401L5.544 65.1561Z" fill="#D09FE4" fill-opacity="0.5"/>
<path d="M8.55218 64.8937C8.53153 64.8937 8.51152 64.8892 8.49215 64.8802C8.47408 64.8698 8.45213 64.8685 8.42631 64.8763C8.40437 64.8595 8.37855 64.8414 8.34886 64.8221C8.31917 64.8001 8.28883 64.7788 8.25785 64.7582C8.22687 64.7349 8.19718 64.7117 8.16878 64.6885C8.14037 64.6626 8.11714 64.6368 8.09907 64.611C8.09003 64.5968 8.08293 64.582 8.07776 64.5665C8.07389 64.5497 8.07002 64.5342 8.06615 64.52C8.06227 64.5032 8.05646 64.4884 8.04872 64.4755C8.04226 64.4613 8.03258 64.4503 8.01967 64.4425C8.02613 64.4335 8.02677 64.4251 8.02161 64.4174C8.01645 64.407 8.02032 64.398 8.03323 64.3903C8.01386 64.3528 7.99708 64.3167 7.98288 64.2818C7.96868 64.247 7.95577 64.2121 7.94415 64.1773C7.93254 64.1424 7.92092 64.1075 7.9093 64.0727C7.89768 64.0353 7.88219 63.9965 7.86283 63.9565C7.82023 63.9578 7.78214 63.952 7.74858 63.9391C7.71501 63.9236 7.68339 63.9062 7.6537 63.8868C7.624 63.8674 7.5956 63.8468 7.56849 63.8248C7.54009 63.8016 7.50911 63.7809 7.47555 63.7629C7.4678 63.7241 7.4678 63.6867 7.47555 63.6506C7.482 63.6131 7.49362 63.577 7.5104 63.5421C7.52719 63.5047 7.54849 63.4679 7.5743 63.4317C7.59883 63.3943 7.62465 63.3543 7.65176 63.3117C7.69436 63.2304 7.73502 63.16 7.77375 63.1006C7.81119 63.0399 7.84992 62.9831 7.88994 62.9302C7.92866 62.876 7.97062 62.8211 8.0158 62.7656C8.05969 62.7088 8.10875 62.6417 8.16297 62.5642C8.16813 62.5668 8.172 62.5668 8.17458 62.5642C8.17846 62.5604 8.18298 62.5559 8.18814 62.5507C8.20105 62.5559 8.21267 62.5533 8.22299 62.5429C8.21912 62.5391 8.21525 62.5365 8.21138 62.5352C8.2075 62.5313 8.20428 62.5281 8.20169 62.5255C8.20428 62.5229 8.20815 62.5204 8.21331 62.5178C8.21977 62.5139 8.22493 62.5113 8.2288 62.51C8.23397 62.5074 8.23719 62.5042 8.23849 62.5003C8.23849 62.4952 8.23461 62.49 8.22687 62.4849C8.26947 62.4965 8.31207 62.4991 8.35467 62.4926C8.39598 62.4849 8.43793 62.4726 8.48053 62.4558C8.49344 62.4661 8.50183 62.4745 8.50571 62.481C8.51087 62.4861 8.51539 62.492 8.51926 62.4984C8.52184 62.5036 8.52636 62.5094 8.53282 62.5158C8.53798 62.521 8.54702 62.5275 8.55993 62.5352C8.57413 62.5907 8.57735 62.6417 8.56961 62.6882C8.56315 62.7334 8.55024 62.776 8.53088 62.816C8.51152 62.856 8.48763 62.8954 8.45923 62.9341C8.43212 62.9715 8.40437 63.0109 8.37597 63.0522C8.34757 63.0909 8.3211 63.1329 8.29658 63.1781C8.27205 63.2233 8.25333 63.273 8.24042 63.3272C8.22622 63.3336 8.21525 63.342 8.2075 63.3524C8.19976 63.3601 8.19266 63.3698 8.1862 63.3814C8.17975 63.393 8.172 63.4059 8.16297 63.4201C8.15522 63.433 8.14231 63.4459 8.12424 63.4589C8.12295 63.4782 8.11714 63.4969 8.10681 63.515C8.09777 63.5318 8.08809 63.5492 8.07776 63.5673C8.09842 63.575 8.1152 63.5867 8.12811 63.6021C8.14231 63.6163 8.15651 63.6267 8.17071 63.6331C8.23009 63.5841 8.29012 63.524 8.3508 63.453C8.41018 63.3808 8.47021 63.3117 8.53088 63.2459C8.53863 63.251 8.5425 63.2562 8.5425 63.2613C8.5425 63.2665 8.54573 63.2723 8.55218 63.2788C8.57154 63.2749 8.5922 63.2736 8.61414 63.2749C8.63609 63.2762 8.65804 63.2775 8.67998 63.2788C8.70193 63.2775 8.72258 63.2749 8.74195 63.271C8.76002 63.2659 8.77616 63.2549 8.79036 63.2381C8.80972 63.2446 8.82779 63.2536 8.84457 63.2652C8.86136 63.2768 8.87427 63.2936 8.8833 63.3156C8.87427 63.3582 8.86652 63.4008 8.86007 63.4434C8.85232 63.4847 8.84199 63.526 8.82908 63.5673C8.81747 63.6073 8.80068 63.6473 8.77874 63.6873C8.75679 63.7274 8.7271 63.7648 8.68966 63.7997C8.68321 63.8061 8.6774 63.8119 8.67224 63.8171C8.66836 63.821 8.66062 63.8235 8.649 63.8248C8.64254 63.8442 8.6277 63.8642 8.60446 63.8849C8.58123 63.9029 8.56573 63.9223 8.55799 63.943C8.53346 63.9546 8.50893 63.9726 8.48441 63.9972C8.46117 64.0204 8.43729 64.0378 8.41276 64.0495C8.42309 64.1063 8.43664 64.1637 8.45342 64.2218C8.46892 64.2786 8.48957 64.3354 8.51539 64.3922C8.57606 64.347 8.62318 64.3063 8.65674 64.2702C8.69031 64.2341 8.72065 64.1986 8.74776 64.1637C8.77486 64.1288 8.80262 64.0933 8.83102 64.0572C8.86071 64.0198 8.90008 63.9778 8.94914 63.9313C8.96592 63.8836 8.99239 63.8365 9.02853 63.79C9.06468 63.7409 9.09501 63.6925 9.11954 63.6447C9.13632 63.6357 9.15504 63.6325 9.1757 63.6351C9.19506 63.6364 9.21442 63.6389 9.23379 63.6428C9.25315 63.6441 9.27123 63.6441 9.28801 63.6428C9.30479 63.6415 9.31899 63.6325 9.33061 63.6157C9.34352 63.6157 9.35514 63.6196 9.36546 63.6273C9.37708 63.6338 9.38741 63.6402 9.39645 63.6467C9.40677 63.6518 9.41645 63.6551 9.42549 63.6564C9.43324 63.6564 9.44163 63.6506 9.45066 63.6389C9.47648 63.7138 9.48746 63.7803 9.48358 63.8384C9.481 63.8952 9.46809 63.9507 9.44485 64.0049C9.42162 64.0566 9.38999 64.1101 9.34997 64.1656C9.30995 64.2186 9.26606 64.2792 9.2183 64.3477C9.20668 64.3644 9.19442 64.3767 9.18151 64.3844C9.1686 64.3896 9.15698 64.3974 9.14665 64.4077C9.11696 64.4503 9.08017 64.5 9.03628 64.5568C8.99368 64.6123 8.94656 64.6646 8.89492 64.7136C8.84328 64.7627 8.78842 64.8046 8.73033 64.8395C8.67224 64.8744 8.61285 64.8924 8.55218 64.8937Z" fill="#FFA16B" fill-opacity="0.5"/>
<path d="M4.3314 51.0129L4.89199 51.5735L3.674 52.7896L4.22393 53.3395L4.00222 53.5612L2.89267 52.4517L4.3314 51.0129Z" fill="#F1BDCF" fill-opacity="0.5"/>
<path d="M4.62174 54.3077C4.52392 54.2098 4.45253 54.1094 4.40759 54.0063C4.36132 53.9045 4.34943 53.8014 4.3719 53.6969C4.39437 53.5925 4.45848 53.4874 4.56424 53.3817C4.66999 53.2759 4.79028 53.19 4.92512 53.1239C5.06259 53.0578 5.20602 53.0122 5.3554 52.9871C5.50477 52.962 5.65415 52.958 5.80352 52.9752C5.95422 52.9937 6.09699 53.0333 6.23182 53.0941C6.36666 53.155 6.48695 53.2382 6.5927 53.344C6.71035 53.4616 6.78636 53.5773 6.82073 53.691C6.8551 53.8047 6.8551 53.9131 6.82073 54.0162C6.78901 54.1193 6.73084 54.2131 6.64624 54.2977C6.53388 54.4101 6.38913 54.5007 6.21199 54.5694C6.03089 54.6395 5.84516 54.6798 5.65481 54.6904C5.46445 54.7009 5.28005 54.6752 5.10159 54.613C4.92446 54.5522 4.7645 54.4504 4.62174 54.3077ZM4.90727 54.383C5.00641 54.4399 5.12208 54.4775 5.25427 54.496C5.38646 54.5145 5.52262 54.5145 5.66274 54.496C5.80286 54.4775 5.93439 54.4425 6.05733 54.3909C6.24636 54.3129 6.3997 54.2151 6.51735 54.0975C6.53586 54.079 6.55238 54.0598 6.56693 54.04C6.58279 54.0215 6.59733 54.003 6.61055 53.9845C6.67664 53.8893 6.69978 53.7987 6.67995 53.7128C6.66012 53.6269 6.61716 53.5509 6.55106 53.4848C6.48232 53.416 6.39838 53.3599 6.29924 53.3162C6.20142 53.2713 6.1069 53.2429 6.01569 53.231C5.90201 53.2177 5.78568 53.2164 5.66671 53.227C5.54774 53.2376 5.43339 53.2607 5.32367 53.2964C5.22849 53.3281 5.13332 53.3717 5.03814 53.4273C4.94561 53.4828 4.86431 53.5456 4.79425 53.6156C4.7308 53.6791 4.68189 53.7465 4.64752 53.8179C4.61315 53.8893 4.60059 53.9626 4.60984 54.038C4.62042 54.112 4.66074 54.1841 4.7308 54.2541C4.77574 54.2991 4.83457 54.342 4.90727 54.383Z" fill="#F84C37" fill-opacity="0.5"/>
<path d="M7.08011 53.7617L7.69297 54.3745L7.10528 55.6361L8.34166 55.0232L8.59533 55.2749L6.6512 56.2102L6.19615 55.7532L7.08011 53.7617Z" fill="#D09FE4" fill-opacity="0.5"/>
<path d="M7.34249 56.7698C7.34249 56.7492 7.34701 56.7292 7.35604 56.7098C7.36637 56.6917 7.36766 56.6698 7.35992 56.644C7.3767 56.622 7.39477 56.5962 7.41413 56.5665C7.43608 56.5368 7.45738 56.5065 7.47804 56.4755C7.50127 56.4445 7.52451 56.4148 7.54774 56.3864C7.57356 56.358 7.59938 56.3348 7.6252 56.3167C7.6394 56.3077 7.65425 56.3006 7.66974 56.2954C7.68652 56.2915 7.70201 56.2877 7.71621 56.2838C7.73299 56.2799 7.74784 56.2741 7.76075 56.2664C7.77495 56.2599 7.78592 56.2502 7.79367 56.2373C7.8027 56.2438 7.81109 56.2444 7.81884 56.2393C7.82917 56.2341 7.8382 56.238 7.84595 56.2509C7.88339 56.2315 7.91953 56.2147 7.95439 56.2005C7.98924 56.1863 8.0241 56.1734 8.05895 56.1618C8.09381 56.1502 8.12866 56.1386 8.16352 56.127C8.20095 56.1153 8.23968 56.0998 8.2797 56.0805C8.27841 56.0379 8.28422 55.9998 8.29713 55.9662C8.31262 55.9327 8.33005 55.901 8.34941 55.8713C8.36877 55.8417 8.38943 55.8133 8.41137 55.7861C8.43461 55.7577 8.45527 55.7268 8.47334 55.6932C8.51207 55.6855 8.5495 55.6855 8.58565 55.6932C8.62309 55.6997 8.65923 55.7113 8.69409 55.7281C8.73152 55.7448 8.76831 55.7661 8.80446 55.792C8.8419 55.8165 8.88192 55.8423 8.92452 55.8694C9.00585 55.912 9.0762 55.9527 9.13558 55.9914C9.19626 56.0288 9.25306 56.0676 9.30599 56.1076C9.3602 56.1463 9.41507 56.1883 9.47058 56.2335C9.52738 56.2773 9.59451 56.3264 9.67196 56.3806C9.66938 56.3858 9.66938 56.3897 9.67196 56.3922C9.67584 56.3961 9.68035 56.4006 9.68552 56.4058C9.68035 56.4187 9.68294 56.4303 9.69326 56.4406C9.69714 56.4368 9.69972 56.4329 9.70101 56.429C9.70488 56.4252 9.70811 56.4219 9.71069 56.4193C9.71327 56.4219 9.71585 56.4258 9.71844 56.431C9.72231 56.4374 9.72489 56.4426 9.72618 56.4465C9.72876 56.4516 9.73199 56.4548 9.73586 56.4561C9.74103 56.4561 9.74619 56.4523 9.75135 56.4445C9.73974 56.4871 9.73715 56.5297 9.74361 56.5723C9.75135 56.6136 9.76362 56.6556 9.7804 56.6982C9.77007 56.7111 9.76168 56.7195 9.75523 56.7234C9.75006 56.7285 9.74425 56.733 9.7378 56.7369C9.73264 56.7395 9.72683 56.744 9.72037 56.7505C9.71521 56.7556 9.70875 56.7647 9.70101 56.7776C9.6455 56.7918 9.59451 56.795 9.54803 56.7873C9.50285 56.7808 9.46025 56.7679 9.42023 56.7485C9.38021 56.7292 9.34084 56.7053 9.30211 56.6769C9.26468 56.6498 9.2253 56.622 9.18399 56.5936C9.14527 56.5652 9.10331 56.5388 9.05813 56.5142C9.01295 56.4897 8.96324 56.471 8.90903 56.4581C8.90257 56.4439 8.89418 56.4329 8.88385 56.4252C8.87611 56.4174 8.86643 56.4103 8.85481 56.4039C8.84319 56.3974 8.83028 56.3897 8.81608 56.3806C8.80317 56.3729 8.79026 56.36 8.77735 56.3419C8.75799 56.3406 8.73927 56.3348 8.7212 56.3245C8.70441 56.3154 8.68699 56.3057 8.66891 56.2954C8.66117 56.3161 8.64955 56.3329 8.63406 56.3458C8.61986 56.36 8.60953 56.3742 8.60308 56.3884C8.65213 56.4477 8.71216 56.5078 8.78316 56.5684C8.85545 56.6278 8.92452 56.6879 8.99035 56.7485C8.98519 56.7563 8.98003 56.7601 8.97486 56.7601C8.9697 56.7601 8.96389 56.7634 8.95744 56.7698C8.96131 56.7892 8.9626 56.8099 8.96131 56.8318C8.96002 56.8537 8.95873 56.8757 8.95744 56.8976C8.95873 56.9196 8.96131 56.9402 8.96518 56.9596C8.97034 56.9777 8.98132 56.9938 8.9981 57.008C8.99164 57.0274 8.98261 57.0454 8.97099 57.0622C8.95937 57.079 8.94259 57.0919 8.92064 57.101C8.87804 57.0919 8.83544 57.0842 8.79284 57.0777C8.75153 57.07 8.71022 57.0596 8.66891 57.0467C8.62889 57.0351 8.58888 57.0183 8.54886 56.9964C8.50884 56.9744 8.4714 56.9448 8.43655 56.9073C8.43009 56.9009 8.42428 56.8951 8.41912 56.8899C8.41525 56.886 8.41266 56.8783 8.41137 56.8667C8.39201 56.8602 8.372 56.8454 8.35135 56.8221C8.33327 56.7989 8.31391 56.7834 8.29325 56.7756C8.28164 56.7511 8.26356 56.7266 8.23904 56.7021C8.2158 56.6788 8.19837 56.6549 8.18675 56.6304C8.12995 56.6407 8.07251 56.6543 8.01441 56.6711C7.95761 56.6866 7.90081 56.7072 7.84401 56.733C7.88919 56.7937 7.92986 56.8408 7.966 56.8744C8.00215 56.908 8.03765 56.9383 8.07251 56.9654C8.10736 56.9925 8.14286 57.0203 8.17901 57.0487C8.21644 57.0784 8.2584 57.1177 8.30487 57.1668C8.35264 57.1836 8.39976 57.21 8.44623 57.2462C8.49528 57.2823 8.54369 57.3127 8.59146 57.3372C8.60049 57.354 8.60372 57.3727 8.60114 57.3933C8.59985 57.4127 8.59727 57.4321 8.59339 57.4514C8.5921 57.4708 8.5921 57.4889 8.59339 57.5057C8.59469 57.5224 8.60372 57.5366 8.6205 57.5483C8.6205 57.5612 8.61663 57.5728 8.60889 57.5831C8.60243 57.5947 8.59598 57.6051 8.58952 57.6141C8.58436 57.6244 8.58113 57.6341 8.57984 57.6431C8.57984 57.6509 8.58565 57.6593 8.59727 57.6683C8.52239 57.6941 8.45591 57.7051 8.39782 57.7012C8.34102 57.6987 8.28551 57.6857 8.23129 57.6625C8.17965 57.6393 8.12608 57.6076 8.07057 57.5676C8.01764 57.5276 7.95697 57.4837 7.88855 57.4359C7.87177 57.4243 7.8595 57.4121 7.85176 57.3992C7.84659 57.3862 7.83885 57.3746 7.82852 57.3643C7.78592 57.3346 7.73622 57.2978 7.67942 57.2539C7.62391 57.2113 7.57163 57.1642 7.52257 57.1126C7.47352 57.0609 7.43156 57.0061 7.39671 56.948C7.36185 56.8899 7.34378 56.8305 7.34249 56.7698Z" fill="#FFA16B" fill-opacity="0.5"/>
<path d="M3.50305 3.78804H6.14566L6.1411 9.52513H8.73352V10.5703H3.50305V3.78804Z" fill="#F1BDCF" fill-opacity="0.5"/>
<path d="M31.7693 10.8694C31.3082 10.8694 30.9032 10.8009 30.5542 10.6638C30.2052 10.5329 29.9342 10.3179 29.741 10.0188C29.5478 9.71971 29.4512 9.32089 29.4512 8.82237C29.4512 8.32385 29.5322 7.83779 29.6942 7.36419C29.8625 6.88436 30.0931 6.43881 30.3859 6.02753C30.6788 5.61624 31.0216 5.25482 31.4141 4.94324C31.813 4.63166 32.2429 4.38863 32.7041 4.21415C33.1652 4.03967 33.645 3.95243 34.1436 3.95243C34.6982 3.95243 35.15 4.0459 35.4989 4.23284C35.8479 4.41979 36.1034 4.67528 36.2654 4.99932C36.4336 5.31713 36.5178 5.67544 36.5178 6.07426C36.5178 6.60394 36.39 7.15855 36.1345 7.73808C35.8728 8.33008 35.5301 8.86287 35.1063 9.33647C34.6826 9.81007 34.1872 10.184 33.6201 10.4581C33.0593 10.7323 32.4424 10.8694 31.7693 10.8694ZM32.62 10.374C32.9876 10.2743 33.349 10.0905 33.7042 9.82253C34.0594 9.55457 34.3804 9.23365 34.667 8.85976C34.9537 8.48586 35.1811 8.09328 35.3494 7.682C35.6111 7.05261 35.7419 6.46062 35.7419 5.90601C35.7419 5.81877 35.7357 5.73464 35.7233 5.65363C35.717 5.57262 35.7077 5.49473 35.6952 5.41995C35.6267 5.03983 35.4678 4.77187 35.2185 4.61608C34.9692 4.4603 34.6888 4.3824 34.3772 4.3824C34.0532 4.3824 33.7229 4.44783 33.3864 4.57869C33.0499 4.70332 32.7602 4.85911 32.5171 5.04606C32.218 5.28286 31.9407 5.55393 31.6852 5.85927C31.4297 6.16462 31.2147 6.48866 31.0403 6.83139C30.8907 7.13051 30.7692 7.45766 30.6757 7.81286C30.5885 8.16183 30.5449 8.50144 30.5449 8.83172C30.5449 9.13083 30.5885 9.40502 30.6757 9.65428C30.763 9.90354 30.9063 10.1061 31.1057 10.2619C31.3051 10.4114 31.5699 10.4862 31.9002 10.4862C32.1121 10.4862 32.352 10.4488 32.62 10.374Z" fill="#F84C37" fill-opacity="0.5"/>
<path d="M56.0931 3.78804H58.9822L60.5705 8.14677L62.0401 3.78804L63.2314 3.78348L60.8535 10.5703L58.7038 10.5657L56.0931 3.78804Z" fill="#D09FE4" fill-opacity="0.5"/>
<path d="M83.6182 10.26C83.5695 10.2113 83.533 10.1535 83.5086 10.0865C83.4904 10.0196 83.4417 9.96481 83.3626 9.92221C83.3504 9.83093 83.3321 9.72747 83.3078 9.61185C83.2895 9.49014 83.2682 9.36843 83.2439 9.24672C83.2256 9.11893 83.2104 8.99417 83.1983 8.87246C83.1922 8.74467 83.1983 8.62904 83.2165 8.52559C83.2287 8.47082 83.2469 8.4191 83.2713 8.37041C83.3017 8.32173 83.3291 8.27609 83.3534 8.23349C83.3839 8.1848 83.4052 8.13612 83.4173 8.08744C83.4356 8.03875 83.4386 7.99007 83.4265 7.94139C83.463 7.9353 83.4843 7.91704 83.4904 7.88662C83.5025 7.8501 83.533 7.83793 83.5816 7.8501C83.6242 7.71622 83.6699 7.59147 83.7186 7.47585C83.7672 7.36022 83.819 7.24764 83.8737 7.1381C83.9285 7.02856 83.9833 6.91902 84.0381 6.80949C84.0989 6.69386 84.1537 6.56607 84.2024 6.4261C84.0989 6.32873 84.0228 6.22528 83.9742 6.11574C83.9316 6.00012 83.8981 5.88449 83.8737 5.76887C83.8494 5.65324 83.8311 5.53762 83.819 5.422C83.8068 5.30029 83.7825 5.17858 83.7459 5.05687C83.819 4.94733 83.9072 4.85909 84.0107 4.79215C84.1141 4.71912 84.2267 4.66131 84.3484 4.61871C84.4762 4.57003 84.6131 4.53352 84.7592 4.50917C84.9052 4.47875 85.0604 4.44528 85.2247 4.40876C85.5168 4.31748 85.7785 4.2475 86.0097 4.19881C86.241 4.14405 86.4662 4.10145 86.6852 4.07102C86.9043 4.03451 87.1325 4.00408 87.3699 3.97974C87.6072 3.94931 87.881 3.90671 88.1914 3.85194C88.1975 3.8702 88.2066 3.87933 88.2188 3.87933C88.237 3.87933 88.2583 3.87933 88.2827 3.87933C88.3009 3.92193 88.3344 3.94322 88.3831 3.94322C88.3831 3.92497 88.38 3.90975 88.374 3.89758C88.374 3.87933 88.374 3.86411 88.374 3.85194C88.3861 3.85194 88.4013 3.85499 88.4196 3.86107C88.4439 3.86716 88.4622 3.87324 88.4744 3.87933C88.4926 3.88541 88.5078 3.88541 88.52 3.87933C88.5322 3.86716 88.5352 3.84586 88.5291 3.81543C88.6022 3.94322 88.6965 4.04972 88.8121 4.13492C88.9277 4.21403 89.0555 4.28401 89.1955 4.34487C89.2016 4.39964 89.2016 4.43919 89.1955 4.46353C89.1955 4.48787 89.1925 4.51222 89.1864 4.53656C89.1803 4.55482 89.1772 4.57916 89.1772 4.60958C89.1772 4.63393 89.1833 4.67044 89.1955 4.71912C89.0981 4.88343 88.9855 5.01123 88.8578 5.10251C88.736 5.19379 88.6052 5.26377 88.4652 5.31246C88.3253 5.36114 88.1762 5.39765 88.018 5.422C87.8658 5.44634 87.7076 5.47372 87.5433 5.50415C87.3851 5.52849 87.2238 5.565 87.0595 5.61369C86.8952 5.66237 86.7339 5.7354 86.5757 5.83277C86.527 5.81451 86.4814 5.80842 86.4388 5.81451C86.4023 5.81451 86.3627 5.8206 86.3201 5.83277C86.2775 5.84494 86.2288 5.85711 86.1741 5.86928C86.1254 5.88145 86.0645 5.88145 85.9915 5.86928C85.9428 5.91188 85.885 5.9423 85.8181 5.96056C85.7572 5.97882 85.6933 5.99707 85.6264 6.01533C85.6568 6.08227 85.669 6.14921 85.6629 6.21615C85.6629 6.28309 85.672 6.3409 85.6903 6.38959C85.9458 6.41393 86.2288 6.41393 86.5392 6.38959C86.8495 6.35916 87.1538 6.33786 87.452 6.32569C87.4581 6.35612 87.455 6.37742 87.4429 6.38959C87.4307 6.40176 87.4246 6.42306 87.4246 6.45349C87.4794 6.49 87.5311 6.53564 87.5798 6.59041C87.6285 6.64518 87.6772 6.69995 87.7259 6.75472C87.7806 6.8034 87.8354 6.846 87.8902 6.88251C87.9449 6.91294 88.0088 6.92511 88.0819 6.91902C88.1123 6.97988 88.1336 7.04378 88.1457 7.11072C88.1579 7.17766 88.1488 7.24764 88.1184 7.32067C87.9967 7.39978 87.878 7.48193 87.7624 7.56713C87.6467 7.64624 87.525 7.71927 87.3972 7.78621C87.2755 7.85315 87.1416 7.90791 86.9956 7.95051C86.8495 7.99311 86.6913 8.01137 86.5209 8.00528C86.4905 8.00528 86.4631 8.00528 86.4388 8.00528C86.4205 8.00528 86.3962 7.99311 86.3657 7.96877C86.3049 7.9992 86.2227 8.01137 86.1193 8.00528C86.0219 7.99311 85.9398 8.00224 85.8728 8.03267C85.7876 8.00224 85.6872 7.98703 85.5716 7.98703C85.4621 7.98703 85.3647 7.97181 85.2795 7.94139C85.1699 8.09961 85.0665 8.26696 84.9691 8.44344C84.8718 8.61383 84.7866 8.7964 84.7135 8.99113C84.963 9.02764 85.1699 9.04286 85.3343 9.03677C85.4986 9.03069 85.6537 9.01852 85.7998 9.00026C85.9458 8.982 86.0949 8.96375 86.2471 8.94549C86.4053 8.92723 86.597 8.92115 86.8222 8.92723C86.9743 8.85421 87.1477 8.80552 87.3425 8.78118C87.5433 8.75075 87.7289 8.70816 87.8993 8.65339C87.9601 8.67164 88.0119 8.70816 88.0545 8.76292C88.0971 8.81161 88.1366 8.86334 88.1731 8.9181C88.2157 8.96679 88.2583 9.00939 88.3009 9.0459C88.3435 9.08241 88.3983 9.09458 88.4652 9.08241C88.4957 9.11284 88.5139 9.14935 88.52 9.19195C88.5322 9.23455 88.5413 9.27411 88.5474 9.31062C88.5596 9.34713 88.5748 9.37756 88.593 9.4019C88.6113 9.42016 88.6448 9.42624 88.6934 9.42016C88.5778 9.65749 88.447 9.84005 88.3009 9.96785C88.161 10.0956 87.9997 10.1961 87.8171 10.2691C87.6407 10.336 87.4398 10.3877 87.2147 10.4243C86.9956 10.4547 86.7491 10.4942 86.4753 10.5429C86.4083 10.5551 86.3505 10.5551 86.3018 10.5429C86.2593 10.5247 86.2136 10.5155 86.1649 10.5155C85.9945 10.546 85.7907 10.5764 85.5533 10.6068C85.3221 10.6373 85.0878 10.6494 84.8505 10.6433C84.6131 10.6373 84.3849 10.6068 84.1658 10.5521C83.9468 10.4973 83.7642 10.3999 83.6182 10.26Z" fill="#FFA16B" fill-opacity="0.5"/>
<path d="M3.50305 85.5771H6.14566L6.1411 91.3142H8.73352V92.3594H3.50305V85.5771Z" fill="#F1BDCF" fill-opacity="0.5"/>
<path d="M31.7693 92.6585C31.3082 92.6585 30.9032 92.5899 30.5542 92.4528C30.2052 92.322 29.9342 92.107 29.741 91.8079C29.5478 91.5088 29.4512 91.11 29.4512 90.6114C29.4512 90.1129 29.5322 89.6268 29.6942 89.1533C29.8625 88.6734 30.0931 88.2279 30.3859 87.8166C30.6788 87.4053 31.0216 87.0439 31.4141 86.7323C31.813 86.4207 32.2429 86.1777 32.7041 86.0032C33.1652 85.8287 33.645 85.7415 34.1436 85.7415C34.6982 85.7415 35.15 85.835 35.4989 86.0219C35.8479 86.2089 36.1034 86.4643 36.2654 86.7884C36.4336 87.1062 36.5178 87.4645 36.5178 87.8633C36.5178 88.393 36.39 88.9476 36.1345 89.5271C35.8728 90.1191 35.5301 90.6519 35.1063 91.1255C34.6826 91.5991 34.1872 91.973 33.6201 92.2472C33.0593 92.5214 32.4424 92.6585 31.7693 92.6585ZM32.62 92.1631C32.9876 92.0634 33.349 91.8795 33.7042 91.6116C34.0594 91.3436 34.3804 91.0227 34.667 90.6488C34.9537 90.2749 35.1811 89.8823 35.3494 89.4711C35.6111 88.8417 35.7419 88.2497 35.7419 87.6951C35.7419 87.6078 35.7357 87.5237 35.7233 87.4427C35.717 87.3617 35.7077 87.2838 35.6952 87.209C35.6267 86.8289 35.4678 86.5609 35.2185 86.4051C34.9692 86.2494 34.6888 86.1715 34.3772 86.1715C34.0532 86.1715 33.7229 86.2369 33.3864 86.3678C33.0499 86.4924 32.7602 86.6482 32.5171 86.8351C32.218 87.0719 31.9407 87.343 31.6852 87.6483C31.4297 87.9537 31.2147 88.2777 31.0403 88.6205C30.8907 88.9196 30.7692 89.2467 30.6757 89.6019C30.5885 89.9509 30.5449 90.2905 30.5449 90.6208C30.5449 90.9199 30.5885 91.1941 30.6757 91.4433C30.763 91.6926 30.9063 91.8951 31.1057 92.0509C31.3051 92.2005 31.5699 92.2752 31.9002 92.2752C32.1121 92.2752 32.352 92.2379 32.62 92.1631Z" fill="#F84C37" fill-opacity="0.5"/>
<path d="M56.0931 85.5771H58.9822L60.5705 89.9358L62.0401 85.5771L63.2314 85.5725L60.8535 92.3594L58.7038 92.3548L56.0931 85.5771Z" fill="#D09FE4" fill-opacity="0.5"/>
<path d="M83.6182 92.049C83.5695 92.0003 83.533 91.9425 83.5086 91.8756C83.4904 91.8086 83.4417 91.7539 83.3626 91.7113C83.3504 91.62 83.3321 91.5165 83.3078 91.4009C83.2895 91.2792 83.2682 91.1575 83.2439 91.0358C83.2256 90.908 83.2104 90.7832 83.1983 90.6615C83.1922 90.5337 83.1983 90.4181 83.2165 90.3147C83.2287 90.2599 83.2469 90.2082 83.2713 90.1595C83.3017 90.1108 83.3291 90.0651 83.3534 90.0226C83.3839 89.9739 83.4052 89.9252 83.4173 89.8765C83.4356 89.8278 83.4386 89.7791 83.4265 89.7304C83.463 89.7244 83.4843 89.7061 83.4904 89.6757C83.5025 89.6392 83.533 89.627 83.5816 89.6392C83.6242 89.5053 83.6699 89.3805 83.7186 89.2649C83.7672 89.1493 83.819 89.0367 83.8737 88.9272C83.9285 88.8176 83.9833 88.7081 84.0381 88.5985C84.0989 88.4829 84.1537 88.3551 84.2024 88.2152C84.0989 88.1178 84.0228 88.0143 83.9742 87.9048C83.9316 87.7892 83.8981 87.6736 83.8737 87.5579C83.8494 87.4423 83.8311 87.3267 83.819 87.2111C83.8068 87.0893 83.7825 86.9676 83.7459 86.8459C83.819 86.7364 83.9072 86.6482 84.0107 86.5812C84.1141 86.5082 84.2267 86.4504 84.3484 86.4078C84.4762 86.3591 84.6131 86.3226 84.7592 86.2982C84.9052 86.2678 85.0604 86.2343 85.2247 86.1978C85.5168 86.1065 85.7785 86.0366 86.0097 85.9879C86.241 85.9331 86.4662 85.8905 86.6852 85.8601C86.9043 85.8236 87.1325 85.7931 87.3699 85.7688C87.6072 85.7384 87.881 85.6958 88.1914 85.641C88.1975 85.6593 88.2066 85.6684 88.2188 85.6684C88.237 85.6684 88.2583 85.6684 88.2827 85.6684C88.3009 85.711 88.3344 85.7323 88.3831 85.7323C88.3831 85.714 88.38 85.6988 88.374 85.6866C88.374 85.6684 88.374 85.6532 88.374 85.641C88.3861 85.641 88.4013 85.644 88.4196 85.6501C88.4439 85.6562 88.4622 85.6623 88.4744 85.6684C88.4926 85.6745 88.5078 85.6745 88.52 85.6684C88.5322 85.6562 88.5352 85.6349 88.5291 85.6045C88.6022 85.7323 88.6965 85.8388 88.8121 85.924C88.9277 86.0031 89.0555 86.0731 89.1955 86.1339C89.2016 86.1887 89.2016 86.2283 89.1955 86.2526C89.1955 86.2769 89.1925 86.3013 89.1864 86.3256C89.1803 86.3439 89.1772 86.3682 89.1772 86.3986C89.1772 86.423 89.1833 86.4595 89.1955 86.5082C89.0981 86.6725 88.9855 86.8003 88.8578 86.8916C88.736 86.9829 88.6052 87.0528 88.4652 87.1015C88.3253 87.1502 88.1762 87.1867 88.018 87.2111C87.8658 87.2354 87.7076 87.2628 87.5433 87.2932C87.3851 87.3176 87.2238 87.3541 87.0595 87.4028C86.8952 87.4514 86.7339 87.5245 86.5757 87.6218C86.527 87.6036 86.4814 87.5975 86.4388 87.6036C86.4023 87.6036 86.3627 87.6097 86.3201 87.6218C86.2775 87.634 86.2288 87.6462 86.1741 87.6583C86.1254 87.6705 86.0645 87.6705 85.9915 87.6583C85.9428 87.7009 85.885 87.7314 85.8181 87.7496C85.7572 87.7679 85.6933 87.7861 85.6264 87.8044C85.6568 87.8713 85.669 87.9383 85.6629 88.0052C85.6629 88.0722 85.672 88.13 85.6903 88.1787C85.9458 88.203 86.2288 88.203 86.5392 88.1787C86.8495 88.1482 87.1538 88.1269 87.452 88.1148C87.4581 88.1452 87.455 88.1665 87.4429 88.1787C87.4307 88.1908 87.4246 88.2121 87.4246 88.2425C87.4794 88.2791 87.5311 88.3247 87.5798 88.3795C87.6285 88.4342 87.6772 88.489 87.7259 88.5438C87.7806 88.5925 87.8354 88.6351 87.8902 88.6716C87.9449 88.702 88.0088 88.7142 88.0819 88.7081C88.1123 88.7689 88.1336 88.8328 88.1457 88.8998C88.1579 88.9667 88.1488 89.0367 88.1184 89.1097C87.9967 89.1888 87.878 89.271 87.7624 89.3562C87.6467 89.4353 87.525 89.5083 87.3972 89.5753C87.2755 89.6422 87.1416 89.697 86.9956 89.7396C86.8495 89.7822 86.6913 89.8004 86.5209 89.7943C86.4905 89.7943 86.4631 89.7943 86.4388 89.7943C86.4205 89.7943 86.3962 89.7822 86.3657 89.7578C86.3049 89.7883 86.2227 89.8004 86.1193 89.7943C86.0219 89.7822 85.9398 89.7913 85.8728 89.8217C85.7876 89.7913 85.6872 89.7761 85.5716 89.7761C85.4621 89.7761 85.3647 89.7609 85.2795 89.7304C85.1699 89.8887 85.0665 90.056 84.9691 90.2325C84.8718 90.4029 84.7866 90.5855 84.7135 90.7802C84.963 90.8167 85.1699 90.8319 85.3343 90.8258C85.4986 90.8197 85.6537 90.8076 85.7998 90.7893C85.9458 90.7711 86.0949 90.7528 86.2471 90.7346C86.4053 90.7163 86.597 90.7102 86.8222 90.7163C86.9743 90.6433 87.1477 90.5946 87.3425 90.5702C87.5433 90.5398 87.7289 90.4972 87.8993 90.4424C87.9601 90.4607 88.0119 90.4972 88.0545 90.552C88.0971 90.6007 88.1366 90.6524 88.1731 90.7072C88.2157 90.7559 88.2583 90.7984 88.3009 90.835C88.3435 90.8715 88.3983 90.8836 88.4652 90.8715C88.4957 90.9019 88.5139 90.9384 88.52 90.981C88.5322 91.0236 88.5413 91.0632 88.5474 91.0997C88.5596 91.1362 88.5748 91.1666 88.593 91.191C88.6113 91.2092 88.6448 91.2153 88.6934 91.2092C88.5778 91.4466 88.447 91.6291 88.3009 91.7569C88.161 91.8847 87.9997 91.9851 87.8171 92.0581C87.6407 92.1251 87.4398 92.1768 87.2147 92.2133C86.9956 92.2438 86.7491 92.2833 86.4753 92.332C86.4083 92.3442 86.3505 92.3442 86.3018 92.332C86.2593 92.3137 86.2136 92.3046 86.1649 92.3046C85.9945 92.335 85.7907 92.3655 85.5533 92.3959C85.3221 92.4263 85.0878 92.4385 84.8505 92.4324C84.6131 92.4263 84.3849 92.3959 84.1658 92.3411C83.9468 92.2863 83.7642 92.189 83.6182 92.049Z" fill="#FFA16B" fill-opacity="0.5"/>
<defs>
<filter id="filter0_d_2846_47047" x="0.532635" y="0.532635" width="91.1361" height="96.5109" filterUnits="userSpaceOnUse" color-interpolation-filters="sRGB">
<feFlood flood-opacity="0" result="BackgroundImageFix"/>
<feColorMatrix in="SourceAlpha" type="matrix" values="0 0 0 0 0 0 0 0 0 0 0 0 0 0 0 0 0 0 127 0" result="hardAlpha"/>
<feOffset/>
<feGaussianBlur stdDeviation="0.233682"/>
<feComposite in2="hardAlpha" operator="out"/>
<feColorMatrix type="matrix" values="0 0 0 0 0 0 0 0 0 0 0 0 0 0 0 0 0 0 0.3 0"/>
<feBlend mode="normal" in2="BackgroundImageFix" result="effect1_dropShadow_2846_47047"/>
<feBlend mode="normal" in="SourceGraphic" in2="effect1_dropShadow_2846_47047" result="shape"/>
</filter>
</defs>
</svg>
