<svg width="91" height="96" viewBox="0 0 91 96" fill="none" xmlns="http://www.w3.org/2000/svg">
<rect width="90.2014" height="95.5761" rx="2.33682" fill="white"/>
<path d="M6.18972 4.30394C6.55234 3.94131 7.04417 3.73759 7.557 3.73759H82.6431C83.1559 3.73759 83.6477 3.94131 84.0104 4.30394L86.1292 6.42275C86.4918 6.78538 86.6955 7.2772 86.6955 7.79003V87.8609C86.6955 88.3738 86.4918 88.8656 86.1292 89.2282L84.0104 91.347C83.6477 91.7096 83.1559 91.9134 82.6431 91.9134H7.557C7.04417 91.9134 6.55234 91.7096 6.18972 91.347L4.0709 89.2282C3.70828 88.8656 3.50456 88.3738 3.50456 87.8609V7.79003C3.50456 7.2772 3.70828 6.78538 4.0709 6.42275L6.18972 4.30394Z" stroke="#FFA16B" stroke-width="0.467365"/>
<path d="M9.23158 7.74848C9.56553 7.41453 10.0185 7.22692 10.4907 7.22692H79.6385C80.1108 7.22692 80.5637 7.41453 80.8977 7.74848L82.8489 9.69972C83.1829 10.0337 83.3705 10.4866 83.3705 10.9589V84.6972C83.3705 85.1695 83.1829 85.6224 82.8489 85.9564L80.8977 87.9076C80.5637 88.2416 80.1108 88.4292 79.6385 88.4292H10.4907C10.0185 88.4292 9.56553 88.2416 9.23158 87.9076L7.28034 85.9564C6.94639 85.6224 6.75878 85.1695 6.75878 84.6972V10.9589C6.75878 10.4866 6.94639 10.0337 7.28034 9.69972L9.23158 7.74848Z" stroke="#FFA16B" stroke-width="0.430403"/>
<path d="M5.36956 75.6832C5.44241 75.32 5.90381 75.2035 6.14032 75.4886L7.8431 77.5412C7.93828 77.6559 8.08505 77.7147 8.23312 77.6974L10.8821 77.3881C11.25 77.3452 11.5034 77.748 11.3053 78.061L9.87937 80.3147C9.79966 80.4407 9.7891 80.5985 9.8513 80.734L10.964 83.1577C11.1186 83.4943 10.8138 83.8598 10.4548 83.7682L7.87078 83.1084C7.72633 83.0716 7.57304 83.1103 7.46341 83.2113L5.50216 85.0185C5.22975 85.2695 4.78799 85.0926 4.76423 84.7229L4.59313 82.0615C4.58357 81.9127 4.49939 81.7789 4.36943 81.7058L2.0446 80.399C1.72169 80.2175 1.75348 79.7427 2.09771 79.6058L4.57602 78.6207C4.71456 78.5656 4.81583 78.4442 4.84514 78.298L5.36956 75.6832Z" fill="#F1BDCF"/>
<path d="M41.7512 5.51854V6.44141H41.5622V4.45876H41.7512V5.18993H41.7649C41.8361 5.03383 41.9798 4.93525 42.2058 4.93525C42.5084 4.93525 42.7137 5.12283 42.7124 5.4802V6.44141H42.5262V5.4939C42.5262 5.25154 42.3824 5.10367 42.1565 5.10503C41.921 5.10367 41.7498 5.26113 41.7512 5.51854ZM43.041 6.02516C43.0396 5.72256 43.2847 5.60891 43.5887 5.58427C43.6886 5.57879 43.9282 5.56236 43.9994 5.55962V5.41996C44.0008 5.22005 43.8721 5.09819 43.638 5.09956C43.4435 5.09819 43.3121 5.18856 43.2765 5.32411H43.0821C43.1136 5.0886 43.3395 4.93388 43.6489 4.93251C43.8707 4.93388 44.1857 5.02836 44.1857 5.43639V6.44141H43.9994V6.21138H43.9885C43.9282 6.33871 43.7804 6.47564 43.5312 6.47427C43.2601 6.47564 43.0396 6.31133 43.041 6.02516ZM43.2272 6.03337C43.2272 6.20864 43.3682 6.30722 43.5586 6.30722C43.831 6.30722 44.0008 6.11142 43.9994 5.87454V5.71434C43.9255 5.72119 43.69 5.73899 43.6161 5.7431C43.3532 5.7609 43.2272 5.86222 43.2272 6.03337ZM44.5882 7.00005V4.95442H44.769V5.231H44.7909C44.8511 5.10367 44.9675 4.93388 45.2427 4.93251C45.6097 4.93388 45.8589 5.23922 45.8589 5.70202C45.8589 6.16482 45.6097 6.4729 45.2454 6.47153C44.9743 6.4729 44.8497 6.30174 44.7909 6.17304H44.7772V7.00005H44.5882ZM44.7744 5.69928C44.7731 6.05117 44.936 6.30311 45.2208 6.30448C45.5125 6.30311 45.6713 6.03885 45.6727 5.69928C45.6713 5.36108 45.5152 5.1023 45.2208 5.1023C44.9319 5.1023 44.7731 5.34739 44.7744 5.69928ZM46.1847 7.00005V4.95442H46.3655V5.231H46.3874C46.4476 5.10367 46.564 4.93388 46.8392 4.93251C47.2062 4.93388 47.4554 5.23922 47.4554 5.70202C47.4554 6.16482 47.2062 6.4729 46.842 6.47153C46.5709 6.4729 46.4463 6.30174 46.3874 6.17304H46.3737V7.00005H46.1847ZM46.371 5.69928C46.3696 6.05117 46.5325 6.30311 46.8173 6.30448C47.109 6.30311 47.2678 6.03885 47.2692 5.69928C47.2678 5.36108 47.1117 5.1023 46.8173 5.1023C46.5284 5.1023 46.3696 5.34739 46.371 5.69928ZM47.8443 7.00005C47.8045 6.99868 47.7648 6.99731 47.7402 6.99458L47.7429 6.82753C47.7607 6.8289 47.8032 6.83027 47.8333 6.83027C47.9291 6.83027 48.025 6.81795 48.1044 6.60024L48.1564 6.4551L47.6087 4.95442H47.8114L48.2441 6.20042H48.2578L48.6932 4.95442H48.8931L48.266 6.67144C48.1838 6.89188 48.0469 6.99868 47.8443 7.00005Z" fill="#952E21"/>
<path d="M48.6841 90.292V89.3691H48.8731V91.3518H48.6841V90.6206H48.6704C48.5992 90.7767 48.4555 90.8753 48.2296 90.8753C47.9269 90.8753 47.7216 90.6877 47.7229 90.3303V89.3691H47.9091V90.3166C47.9091 90.559 48.0529 90.7069 48.2788 90.7055C48.5144 90.7069 48.6855 90.5494 48.6841 90.292ZM47.3943 89.7854C47.3957 90.088 47.1506 90.2016 46.8466 90.2263C46.7467 90.2318 46.5071 90.2482 46.4359 90.2509V90.3906C46.4345 90.5905 46.5632 90.7124 46.7973 90.711C46.9918 90.7124 47.1232 90.622 47.1588 90.4864H47.3532C47.3217 90.7219 47.0958 90.8767 46.7864 90.878C46.5646 90.8767 46.2496 90.7822 46.2496 90.3742V89.3691H46.4359V89.5992H46.4468C46.5071 89.4718 46.6549 89.3349 46.9041 89.3363C47.1752 89.3349 47.3957 89.4992 47.3943 89.7854ZM47.2081 89.7772C47.2081 89.6019 47.0671 89.5033 46.8767 89.5033C46.6043 89.5033 46.4345 89.6991 46.4359 89.936V90.0962C46.5098 90.0894 46.7453 90.0716 46.8192 90.0674C47.0821 90.0496 47.2081 89.9483 47.2081 89.7772ZM45.8471 88.8105V90.8561H45.6663V90.5795H45.6444C45.5842 90.7069 45.4678 90.8767 45.1926 90.878C44.8256 90.8767 44.5764 90.5713 44.5764 90.1085C44.5764 89.6457 44.8256 89.3376 45.1899 89.339C45.461 89.3376 45.5856 89.5088 45.6444 89.6375H45.6581V88.8105H45.8471ZM45.6609 90.1113C45.6622 89.7594 45.4993 89.5074 45.2145 89.5061C44.9229 89.5074 44.764 89.7717 44.7627 90.1113C44.764 90.4495 44.9201 90.7083 45.2145 90.7083C45.5034 90.7083 45.6622 90.4632 45.6609 90.1113ZM44.2506 88.8105V90.8561H44.0698V90.5795H44.0479C43.9877 90.7069 43.8713 90.8767 43.5961 90.878C43.2291 90.8767 42.9799 90.5713 42.9799 90.1085C42.9799 89.6457 43.2291 89.3376 43.5933 89.339C43.8644 89.3376 43.989 89.5088 44.0479 89.6375H44.0616V88.8105H44.2506ZM44.0643 90.1113C44.0657 89.7594 43.9028 89.5074 43.618 89.5061C43.3263 89.5074 43.1675 89.7717 43.1661 90.1113C43.1675 90.4495 43.3236 90.7083 43.618 90.7083C43.9069 90.7083 44.0657 90.4632 44.0643 90.1113ZM42.591 88.8105C42.6308 88.8119 42.6705 88.8132 42.6951 88.816L42.6924 88.983C42.6746 88.9816 42.6321 88.9803 42.602 88.9803C42.5062 88.9803 42.4103 88.9926 42.3309 89.2103L42.2789 89.3554L42.8266 90.8561H42.6239L42.1912 89.6101H42.1775L41.7421 90.8561H41.5422L42.1693 89.1391C42.2515 88.9187 42.3884 88.8119 42.591 88.8105Z" fill="#952E21"/>
<circle cx="7.8281" cy="16.7088" r="2.68735" fill="#F1BDCF"/>
<circle cx="82.6065" cy="65.3143" r="2.68735" fill="#F1BDCF"/>
<circle cx="86.9301" cy="61.4593" r="1.86946" fill="#F1BDCF"/>
</svg>
